  0
SECTION
  2
HEADER
  9
$ACADVER
  1
AC1018
  9
$ACADMAINTVER
 70
     0
  9
$DWGCODEPAGE
  3
ASCII
  9
$INSBASE
 10
0.0
 20
0.0
 30
0.0
  9
$EXTMIN
 10
1.000000000000000E+20
 20
1.000000000000000E+20
 30
1.000000000000000E+20
  9
$EXTMAX
 10
-1.000000000000000E+20
 20
-1.000000000000000E+20
 30
-1.000000000000000E+20
  9
$LIMMIN
 10
0.0
 20
0.0
  9
$LIMMAX
 10
12.0
 20
9.0
  9
$ORTHOMODE
 70
     0
  9
$REGENMODE
 70
     1
  9
$FILLMODE
 70
     1
  9
$QTEXTMODE
 70
     0
  9
$MIRRTEXT
 70
     1
  9
$LTSCALE
 40
1.0
  9
$ATTMODE
 70
     1
  9
$TEXTSIZE
 40
0.2
  9
$TRACEWID
 40
0.05
  9
$TEXTSTYLE
  7
Standard
  9
$CLAYER
  8
0
  9
$CELTYPE
  6
ByLayer
  9
$CECOLOR
 62
   256
  9
$CELTSCALE
 40
1.0
  9
$DISPSILH
 70
     0
  9
$DIMSCALE
 40
1.0
  9
$DIMASZ
 40
0.18
  9
$DIMEXO
 40
0.0625
  9
$DIMDLI
 40
0.38
  9
$DIMRND
 40
0.0
  9
$DIMDLE
 40
0.0
  9
$DIMEXE
 40
0.18
  9
$DIMTP
 40
0.0
  9
$DIMTM
 40
0.0
  9
$DIMTXT
 40
0.18
  9
$DIMCEN
 40
0.09
  9
$DIMTSZ
 40
0.0
  9
$DIMTOL
 70
     0
  9
$DIMLIM
 70
     0
  9
$DIMTIH
 70
     1
  9
$DIMTOH
 70
     1
  9
$DIMSE1
 70
     0
  9
$DIMSE2
 70
     0
  9
$DIMTAD
 70
     0
  9
$DIMZIN
 70
     0
  9
$DIMBLK
  1

  9
$DIMASO
 70
     1
  9
$DIMSHO
 70
     1
  9
$DIMPOST
  1

  9
$DIMAPOST
  1

  9
$DIMALT
 70
     0
  9
$DIMALTD
 70
     2
  9
$DIMALTF
 40
25.4
  9
$DIMLFAC
 40
1.0
  9
$DIMTOFL
 70
     0
  9
$DIMTVP
 40
0.0
  9
$DIMTIX
 70
     0
  9
$DIMSOXD
 70
     0
  9
$DIMSAH
 70
     0
  9
$DIMBLK1
  1

  9
$DIMBLK2
  1

  9
$DIMSTYLE
  2
Standard
  9
$DIMCLRD
 70
     0
  9
$DIMCLRE
 70
     0
  9
$DIMCLRT
 70
     0
  9
$DIMTFAC
 40
1.0
  9
$DIMGAP
 40
0.09
  9
$DIMJUST
 70
     0
  9
$DIMSD1
 70
     0
  9
$DIMSD2
 70
     0
  9
$DIMTOLJ
 70
     1
  9
$DIMTZIN
 70
     0
  9
$DIMALTZ
 70
     0
  9
$DIMALTTZ
 70
     0
  9
$DIMUPT
 70
     0
  9
$DIMDEC
 70
     4
  9
$DIMTDEC
 70
     4
  9
$DIMALTU
 70
     2
  9
$DIMALTTD
 70
     2
  9
$DIMTXSTY
  7
Standard
  9
$DIMAUNIT
 70
     0
  9
$DIMADEC
 70
     0
  9
$DIMALTRND
 40
0.0
  9
$DIMAZIN
 70
     0
  9
$DIMDSEP
 70
    46
  9
$DIMATFIT
 70
     3
  9
$DIMFRAC
 70
     0
  9
$DIMLDRBLK
  1

  9
$DIMLUNIT
 70
     2
  9
$DIMLWD
 70
    -2
  9
$DIMLWE
 70
    -2
  9
$DIMTMOVE
 70
     0
  9
$LUNITS
 70
     2
  9
$LUPREC
 70
     4
  9
$SKETCHINC
 40
0.1
  9
$FILLETRAD
 40
0.5
  9
$AUNITS
 70
     0
  9
$AUPREC
 70
     0
  9
$MENU
  1
.
  9
$ELEVATION
 40
0.0
  9
$PELEVATION
 40
0.0
  9
$THICKNESS
 40
0.0
  9
$LIMCHECK
 70
     0
  9
$CHAMFERA
 40
0.5
  9
$CHAMFERB
 40
0.5
  9
$CHAMFERC
 40
1.0
  9
$CHAMFERD
 40
0.0
  9
$SKPOLY
 70
     0
  9
$TDCREATE
 40
2456361.76044691
  9
$TDUCREATE
 40
2456361.718780243
  9
$TDUPDATE
 40
2456361.760446921
  9
$TDUUPDATE
 40
2456361.718780254
  9
$TDINDWG
 40
0.0000000116
  9
$TDUSRTIMER
 40
0.0000000116
  9
$USRTIMER
 70
     1
  9
$ANGBASE
 50
0.0
  9
$ANGDIR
 70
     0
  9
$PDMODE
 70
     0
  9
$PDSIZE
 40
0.0
  9
$PLINEWID
 40
0.0
  9
$SPLFRAME
 70
     0
  9
$SPLINETYPE
 70
     6
  9
$SPLINESEGS
 70
     8
  9
$HANDSEED
  5
61
  9
$SURFTAB1
 70
     6
  9
$SURFTAB2
 70
     6
  9
$SURFTYPE
 70
     6
  9
$SURFU
 70
     6
  9
$SURFV
 70
     6
  9
$UCSBASE
  2

  9
$UCSNAME
  2

  9
$UCSORG
 10
0.0
 20
0.0
 30
0.0
  9
$UCSXDIR
 10
1.0
 20
0.0
 30
0.0
  9
$UCSYDIR
 10
0.0
 20
1.0
 30
0.0
  9
$UCSORTHOREF
  2

  9
$UCSORTHOVIEW
 70
     0
  9
$UCSORGTOP
 10
0.0
 20
0.0
 30
0.0
  9
$UCSORGBOTTOM
 10
0.0
 20
0.0
 30
0.0
  9
$UCSORGLEFT
 10
0.0
 20
0.0
 30
0.0
  9
$UCSORGRIGHT
 10
0.0
 20
0.0
 30
0.0
  9
$UCSORGFRONT
 10
0.0
 20
0.0
 30
0.0
  9
$UCSORGBACK
 10
0.0
 20
0.0
 30
0.0
  9
$PUCSBASE
  2

  9
$PUCSNAME
  2

  9
$PUCSORG
 10
0.0
 20
0.0
 30
0.0
  9
$PUCSXDIR
 10
1.0
 20
0.0
 30
0.0
  9
$PUCSYDIR
 10
0.0
 20
1.0
 30
0.0
  9
$PUCSORTHOREF
  2

  9
$PUCSORTHOVIEW
 70
     0
  9
$PUCSORGTOP
 10
0.0
 20
0.0
 30
0.0
  9
$PUCSORGBOTTOM
 10
0.0
 20
0.0
 30
0.0
  9
$PUCSORGLEFT
 10
0.0
 20
0.0
 30
0.0
  9
$PUCSORGRIGHT
 10
0.0
 20
0.0
 30
0.0
  9
$PUCSORGFRONT
 10
0.0
 20
0.0
 30
0.0
  9
$PUCSORGBACK
 10
0.0
 20
0.0
 30
0.0
  9
$USERI1
 70
     0
  9
$USERI2
 70
     0
  9
$USERI3
 70
     0
  9
$USERI4
 70
     0
  9
$USERI5
 70
     0
  9
$USERR1
 40
0.0
  9
$USERR2
 40
0.0
  9
$USERR3
 40
0.0
  9
$USERR4
 40
0.0
  9
$USERR5
 40
0.0
  9
$WORLDVIEW
 70
     1
  9
$SHADEDGE
 70
     3
  9
$SHADEDIF
 70
    70
  9
$TILEMODE
 70
     1
  9
$MAXACTVP
 70
    64
  9
$PINSBASE
 10
0.0
 20
0.0
 30
0.0
  9
$PLIMCHECK
 70
     0
  9
$PEXTMIN
 10
1.000000000000000E+20
 20
1.000000000000000E+20
 30
1.000000000000000E+20
  9
$PEXTMAX
 10
-1.000000000000000E+20
 20
-1.000000000000000E+20
 30
-1.000000000000000E+20
  9
$PLIMMIN
 10
0.0
 20
0.0
  9
$PLIMMAX
 10
12.0
 20
9.0
  9
$UNITMODE
 70
     0
  9
$VISRETAIN
 70
     1
  9
$PLINEGEN
 70
     0
  9
$PSLTSCALE
 70
     1
  9
$TREEDEPTH
 70
  3020
  9
$CMLSTYLE
  2
Standard
  9
$CMLJUST
 70
     0
  9
$CMLSCALE
 40
1.0
  9
$PROXYGRAPHICS
 70
     1
  9
$MEASUREMENT
 70
     0
  9
$CELWEIGHT
370
    -1
  9
$ENDCAPS
280
     0
  9
$JOINSTYLE
280
     0
  9
$LWDISPLAY
290
     1
  9
$INSUNITS
 70
     1
  9
$HYPERLINKBASE
  1

  9
$STYLESHEET
  1

  9
$XEDIT
290
     1
  9
$CEPSNTYPE
380
     0
  9
$PSTYLEMODE
290
     1
  9
$FINGERPRINTGUID
  2
{E16DCBB9-D0C3-4461-9072-4CF94A39A244}
  9
$VERSIONGUID
  2
{FAEB1C32-E019-11D5-929B-00C0DF256EC4}
  9
$EXTNAMES
290
     1
  9
$PSVPSCALE
 40
0.0
  9
$OLESTARTUP
290
     0
  9
$SORTENTS
280
   127
  9
$INDEXCTL
280
     0
  9
$HIDETEXT
280
     1
  9
$XCLIPFRAME
290
     0
  9
$HALOGAP
280
     0
  9
$OBSCOLOR
 70
   257
  9
$OBSLTYPE
280
     0
  9
$INTERSECTIONDISPLAY
280
     0
  9
$INTERSECTIONCOLOR
 70
   257
  9
$DIMASSOC
280
     2
  9
$PROJECTNAME
  1

  0
ENDSEC
  0
SECTION
  2
CLASSES
  0
CLASS
  1
ACDBDICTIONARYWDFLT
  2
AcDbDictionaryWithDefault
  3
ObjectDBX Classes
 90
        0
 91
        3
280
     0
281
     0
  0
CLASS
  1
VISUALSTYLE
  2
AcDbVisualStyle
  3
ObjectDBX Classes
 90
     4095
 91
        3
280
     0
281
     0
  0
ENDSEC
  0
SECTION
  2
TABLES
  0
TABLE
  2
VPORT
  5
8
330
0
100
AcDbSymbolTable
 70
     1
  0
VPORT
  5
29
330
8
100
AcDbSymbolTableRecord
100
AcDbViewportTableRecord
  2
*Active
 70
     0
 10
0.0
 20
0.0
 11
1.0
 21
1.0
 12
0.0
 22
0.0
 13
0.0
 23
0.0
 14
0.5
 24
0.5
 15
0.5
 25
0.5
 16
0.0
 26
0.0
 36
1.0
 17
105.0008952513716
 27
148.5000775824991
 37
0.0
 40
297.0001551649982
 41
0.7070763662937379
 42
50.0
 43
0.0
 44
0.0
 50
0.0
 51
0.0
 71
     0
 72
   100
 73
     1
 74
     3
 75
     0
 76
     0
 77
     0
 78
     0
281
     0
 65
     1
110
0.0
120
0.0
130
0.0
111
1.0
121
0.0
131
0.0
112
0.0
122
1.0
132
0.0
 79
     0
146
0.0
  0
ENDTAB
  0
TABLE
  2
LTYPE
  5
5
330
0
100
AcDbSymbolTable
 70
     1
  0
LTYPE
  5
14
330
5
100
AcDbSymbolTableRecord
100
AcDbLinetypeTableRecord
  2
ByBlock
 70
     0
  3

 72
    65
 73
     0
 40
0.0
  0
LTYPE
  5
15
330
5
100
AcDbSymbolTableRecord
100
AcDbLinetypeTableRecord
  2
ByLayer
 70
     0
  3

 72
    65
 73
     0
 40
0.0
  0
LTYPE
  5
16
330
5
100
AcDbSymbolTableRecord
100
AcDbLinetypeTableRecord
  2
Continuous
 70
     0
  3
Solid line
 72
    65
 73
     0
 40
0.0
  0
ENDTAB
  0
TABLE
  2
LAYER
  5
2
330
0
100
AcDbSymbolTable
 70
     2
  0
LAYER
  5
10
330
2
100
AcDbSymbolTableRecord
100
AcDbLayerTableRecord
  2
0
 70
     0
 62
     7
  6
Continuous
370
    -3
390
F
  0
LAYER
  5
3B
330
2
100
AcDbSymbolTableRecord
100
AcDbLayerTableRecord
  2
Layer 1
 70
     0
 62
     7
  6
Continuous
370
    -3
390
F
  0
ENDTAB
  0
TABLE
  2
STYLE
  5
3
330
0
100
AcDbSymbolTable
 70
     1
  0
STYLE
  5
11
330
3
100
AcDbSymbolTableRecord
100
AcDbTextStyleTableRecord
  2
Standard
 70
     0
 40
0.0
 41
1.0
 50
0.0
 71
     0
 42
0.2
  3
txt
  4

  0
ENDTAB
  0
TABLE
  2
VIEW
  5
6
330
0
100
AcDbSymbolTable
 70
     0
  0
ENDTAB
  0
TABLE
  2
UCS
  5
7
330
0
100
AcDbSymbolTable
 70
     0
  0
ENDTAB
  0
TABLE
  2
APPID
  5
9
330
0
100
AcDbSymbolTable
 70
     1
  0
APPID
  5
12
330
9
100
AcDbSymbolTableRecord
100
AcDbRegAppTableRecord
  2
ACAD
 70
     0
  0
ENDTAB
  0
TABLE
  2
DIMSTYLE
  5
A
330
0
100
AcDbSymbolTable
 70
     1
100
AcDbDimStyleTable
  0
DIMSTYLE
105
27
330
A
100
AcDbSymbolTableRecord
100
AcDbDimStyleTableRecord
  2
Standard
 70
     0
340
11
  0
ENDTAB
  0
TABLE
  2
BLOCK_RECORD
  5
1
330
0
100
AcDbSymbolTable
 70
     1
  0
BLOCK_RECORD
  5
1F
330
1
100
AcDbSymbolTableRecord
100
AcDbBlockTableRecord
  2
*Model_Space
340
22
  0
BLOCK_RECORD
  5
1B
330
1
100
AcDbSymbolTableRecord
100
AcDbBlockTableRecord
  2
*Paper_Space
340
1E
  0
BLOCK_RECORD
  5
23
330
1
100
AcDbSymbolTableRecord
100
AcDbBlockTableRecord
  2
*Paper_Space0
340
26
  0
ENDTAB
  0
ENDSEC
  0
SECTION
  2
BLOCKS
  0
BLOCK
  5
20
330
1F
100
AcDbEntity
  8
0
100
AcDbBlockBegin
  2
*Model_Space
 70
     0
 71
     0
 10
0.0
 20
0.0
 30
0.0
  3
*Model_Space
  1

  0
ENDBLK
  5
21
330
1F
100
AcDbEntity
  8
0
100
AcDbBlockEnd
  0
BLOCK
  5
1C
330
1B
100
AcDbEntity
 67
     1
  8
0
100
AcDbBlockBegin
  2
*Paper_Space
 70
     0
 71
     0
 10
0.0
 20
0.0
 30
0.0
  3
*Paper_Space
  1

  0
ENDBLK
  5
1D
330
1B
100
AcDbEntity
 67
     1
  8
0
100
AcDbBlockEnd
  0
BLOCK
  5
24
330
23
100
AcDbEntity
  8
0
100
AcDbBlockBegin
  2
*Paper_Space0
 70
     0
 71
     0
 10
0.0
 20
0.0
 30
0.0
  3
*Paper_Space0
  1

  0
ENDBLK
  5
25
330
23
100
AcDbEntity
  8
0
100
AcDbBlockEnd
  0
ENDSEC
  0
SECTION
  2
ENTITIES
  0
POLYLINE
  5
3C
330
1F
100
AcDbEntity
  8
Layer 1
 62
   250
420
  2301728
370
    18
100
AcDb2dPolyline
 66
     1
 10
0.0
 20
0.0
 30
0.0
  0
VERTEX
  5
3D
330
3C
100
AcDbEntity
  8
Layer 1
 62
   250
420
  2301728
370
    18
100
AcDbVertex
100
AcDb2dVertex
 10
15.19219209305945
 20
286.626104541336
 30
0.0
  0
VERTEX
  5
5E
330
3C
100
AcDbEntity
  8
0
100
AcDbVertex
100
AcDb2dVertex
 10
15.19219209305945
 20
286.626104541336
 30
0.0
  0
SEQEND
  5
3E
330
3C
100
AcDbEntity
  8
Layer 1
370
    18
  0
POLYLINE
  5
3F
330
1F
100
AcDbEntity
  8
Layer 1
 62
   250
420
  2301728
370
    18
100
AcDb2dPolyline
 66
     1
 10
0.0
 20
0.0
 30
0.0
  0
VERTEX
  5
40
330
3F
100
AcDbEntity
  8
Layer 1
 62
   250
420
  2301728
370
    18
100
AcDbVertex
100
AcDb2dVertex
 10
18.21285380724026
 20
291.2297886753003
 30
0.0
  0
VERTEX
  5
5F
330
3F
100
AcDbEntity
  8
0
100
AcDbVertex
100
AcDb2dVertex
 10
18.21285380724026
 20
291.2297886753003
 30
0.0
  0
SEQEND
  5
41
330
3F
100
AcDbEntity
  8
Layer 1
370
    18
  0
SPLINE
  5
42
330
1F
100
AcDbEntity
  8
Layer 1
 62
   250
420
  2301728
370
    18
100
AcDbSpline
210
0.0
220
0.0
230
1.0
 70
    11
 71
     3
 72
    29
 73
    25
 74
     0
 42
0.0000000001
 43
0.0000000001
 40
0.0
 40
0.0
 40
0.0
 40
0.0
 40
1.0
 40
1.0
 40
1.0
 40
2.0
 40
2.0
 40
2.0
 40
3.0
 40
3.0
 40
3.0
 40
4.0
 40
4.0
 40
4.0
 40
5.0
 40
5.0
 40
5.0
 40
6.0
 40
6.0
 40
6.0
 40
7.0
 40
7.0
 40
7.0
 40
8.0
 40
8.0
 40
8.0
 40
8.0
 10
53.95643206564437
 20
284.4091841340877
 30
0.0
 10
53.00007292803421
 20
285.0585850614635
 30
0.0
 10
52.37306513608518
 20
286.1548151680469
 30
0.0
 10
52.37306513608518
 20
287.3976341842315
 30
0.0
 10
52.37306513608518
 20
289.3925180409793
 30
0.0
 10
53.98950500412081
 20
291.0094746736786
 30
0.0
 10
55.98490562553221
 20
291.0094746736786
 30
0.0
 10
56.54301146232201
 20
291.0094746736786
 30
0.0
 10
57.07148945839333
 20
290.8826950761856
 30
0.0
 10
57.54346785123408
 20
290.6565244083754
 30
0.0
 10
57.54346785123408
 20
290.6565244083754
 30
0.0
 10
56.85582633874493
 20
289.4679656818786
 30
0.0
 10
56.85582633874493
 20
289.4679656818786
 30
0.0
 10
56.58573067452073
 20
289.582342927443
 30
0.0
 10
56.28945226733603
 20
289.6457327261895
 30
0.0
 10
55.97801543001629
 20
289.6457327261895
 30
0.0
 10
54.73364611984053
 20
289.6457327261895
 30
0.0
 10
53.72354345720616
 20
288.6337352597882
 30
0.0
 10
53.72354345720616
 20
287.3848873225271
 30
0.0
 10
53.72354345720616
 20
286.6453970887806
 30
0.0
 10
54.07769950672462
 20
285.9884169463373
 30
0.0
 10
54.62615906979212
 20
285.5763832544851
 30
0.0
 10
54.62615906979212
 20
285.5763832544851
 30
0.0
 10
53.95643206564437
 20
284.4091841340877
 30
0.0
 10
53.95643206564437
 20
284.4091841340877
 30
0.0
  0
HATCH
  5
43
330
1F
100
AcDbEntity
  8
Layer 1
 62
    18
420
        0
100
AcDbHatch
 10
0.0
 20
0.0
 30
0.0
210
0.0
220
0.0
230
1.0
  2
SOLID
 70
     1
 71
     0
 91
        1
 92
        1
 93
        1
 72
     4
 94
        3
 73
     0
 74
     1
 95
       29
 96
       25
 40
0.0
 40
0.0
 40
0.0
 40
0.0
 40
1.0
 40
1.0
 40
1.0
 40
2.0
 40
2.0
 40
2.0
 40
3.0
 40
3.0
 40
3.0
 40
4.0
 40
4.0
 40
4.0
 40
5.0
 40
5.0
 40
5.0
 40
6.0
 40
6.0
 40
6.0
 40
7.0
 40
7.0
 40
7.0
 40
8.0
 40
8.0
 40
8.0
 40
8.0
 10
53.95643206564437
 20
284.4091841340877
 10
53.00007292803421
 20
285.0585850614635
 10
52.37306513608518
 20
286.1548151680469
 10
52.37306513608518
 20
287.3976341842315
 10
52.37306513608518
 20
289.3925180409793
 10
53.98950500412081
 20
291.0094746736786
 10
55.98490562553221
 20
291.0094746736786
 10
56.54301146232201
 20
291.0094746736786
 10
57.07148945839333
 20
290.8826950761856
 10
57.54346785123408
 20
290.6565244083754
 10
57.54346785123408
 20
290.6565244083754
 10
56.85582633874493
 20
289.4679656818786
 10
56.85582633874493
 20
289.4679656818786
 10
56.58573067452073
 20
289.582342927443
 10
56.28945226733603
 20
289.6457327261895
 10
55.97801543001629
 20
289.6457327261895
 10
54.73364611984053
 20
289.6457327261895
 10
53.72354345720616
 20
288.6337352597882
 10
53.72354345720616
 20
287.3848873225271
 10
53.72354345720616
 20
286.6453970887806
 10
54.07769950672462
 20
285.9884169463373
 10
54.62615906979212
 20
285.5763832544851
 10
54.62615906979212
 20
285.5763832544851
 10
53.95643206564437
 20
284.4091841340877
 10
53.95643206564437
 20
284.4091841340877
 97
        0
 75
     2
 76
     1
 98
        0
  0
SPLINE
  5
44
330
1F
100
AcDbEntity
  8
Layer 1
 62
   250
420
  2301728
370
    18
100
AcDbSpline
210
0.0
220
0.0
230
1.0
 70
    11
 71
     3
 72
    29
 73
    25
 74
     0
 42
0.0000000001
 43
0.0000000001
 40
0.0
 40
0.0
 40
0.0
 40
0.0
 40
1.0
 40
1.0
 40
1.0
 40
2.0
 40
2.0
 40
2.0
 40
3.0
 40
3.0
 40
3.0
 40
4.0
 40
4.0
 40
4.0
 40
5.0
 40
5.0
 40
5.0
 40
6.0
 40
6.0
 40
6.0
 40
7.0
 40
7.0
 40
7.0
 40
8.0
 40
8.0
 40
8.0
 40
8.0
 10
54.42427634117557
 20
284.1394329796393
 30
0.0
 10
54.89694375356791
 20
283.9130900569412
 30
0.0
 10
55.42611076919083
 20
283.7863104594482
 30
0.0
 10
55.98490562553221
 20
283.7863104594482
 30
0.0
 10
57.97892820784044
 20
283.7863104594482
 30
0.0
 10
59.59674611497925
 20
285.4030948372596
 30
0.0
 10
59.59674611497925
 20
287.3976341842315
 30
0.0
 10
59.59674611497925
 20
288.640797710192
 30
0.0
 10
58.96767126437545
 20
289.7373723265512
 30
0.0
 10
58.01131212676528
 20
290.3871177637028
 30
0.0
 10
58.01131212676528
 20
290.3871177637028
 30
0.0
 10
57.32849375113727
 20
289.1952861943359
 30
0.0
 10
57.32849375113727
 20
289.1952861943359
 30
0.0
 10
57.87764233375636
 20
288.7832525024838
 30
0.0
 10
58.23248740282642
 20
288.1257555953767
 30
0.0
 10
58.23248740282642
 20
287.3848873225271
 30
0.0
 10
58.23248740282642
 20
286.1365561499297
 30
0.0
 10
57.22307375974365
 20
285.1247309384163
 30
0.0
 10
55.97801543001629
 20
285.1247309384163
 30
0.0
 10
55.66726761224815
 20
285.1247309384163
 30
0.0
 10
55.37098920506345
 20
285.187776227387
 30
0.0
 10
55.10089354083924
 20
285.3021534729514
 30
0.0
 10
55.10089354083924
 20
285.3021534729514
 30
0.0
 10
54.42427634117557
 20
284.1394329796393
 30
0.0
 10
54.42427634117557
 20
284.1394329796393
 30
0.0
  0
HATCH
  5
45
330
1F
100
AcDbEntity
  8
Layer 1
 62
    18
420
        0
100
AcDbHatch
 10
0.0
 20
0.0
 30
0.0
210
0.0
220
0.0
230
1.0
  2
SOLID
 70
     1
 71
     0
 91
        1
 92
        1
 93
        1
 72
     4
 94
        3
 73
     0
 74
     1
 95
       29
 96
       25
 40
0.0
 40
0.0
 40
0.0
 40
0.0
 40
1.0
 40
1.0
 40
1.0
 40
2.0
 40
2.0
 40
2.0
 40
3.0
 40
3.0
 40
3.0
 40
4.0
 40
4.0
 40
4.0
 40
5.0
 40
5.0
 40
5.0
 40
6.0
 40
6.0
 40
6.0
 40
7.0
 40
7.0
 40
7.0
 40
8.0
 40
8.0
 40
8.0
 40
8.0
 10
54.42427634117557
 20
284.1394329796393
 10
54.89694375356791
 20
283.9130900569412
 10
55.42611076919083
 20
283.7863104594482
 10
55.98490562553221
 20
283.7863104594482
 10
57.97892820784044
 20
283.7863104594482
 10
59.59674611497925
 20
285.4030948372596
 10
59.59674611497925
 20
287.3976341842315
 10
59.59674611497925
 20
288.640797710192
 10
58.96767126437545
 20
289.7373723265512
 10
58.01131212676528
 20
290.3871177637028
 10
58.01131212676528
 20
290.3871177637028
 10
57.32849375113727
 20
289.1952861943359
 10
57.32849375113727
 20
289.1952861943359
 10
57.87764233375636
 20
288.7832525024838
 10
58.23248740282642
 20
288.1257555953767
 10
58.23248740282642
 20
287.3848873225271
 10
58.23248740282642
 20
286.1365561499297
 10
57.22307375974365
 20
285.1247309384163
 10
55.97801543001629
 20
285.1247309384163
 10
55.66726761224815
 20
285.1247309384163
 10
55.37098920506345
 20
285.187776227387
 10
55.10089354083924
 20
285.3021534729514
 10
55.10089354083924
 20
285.3021534729514
 10
54.42427634117557
 20
284.1394329796393
 10
54.42427634117557
 20
284.1394329796393
 97
        0
 75
     2
 76
     1
 98
        0
  0
SPLINE
  5
46
330
1F
100
AcDbEntity
  8
Layer 1
 62
   250
420
  2301728
370
    18
100
AcDbSpline
210
0.0
220
0.0
230
1.0
 70
    11
 71
     3
 72
    29
 73
    25
 74
     0
 42
0.0000000001
 43
0.0000000001
 40
0.0
 40
0.0
 40
0.0
 40
0.0
 40
1.0
 40
1.0
 40
1.0
 40
2.0
 40
2.0
 40
2.0
 40
3.0
 40
3.0
 40
3.0
 40
4.0
 40
4.0
 40
4.0
 40
5.0
 40
5.0
 40
5.0
 40
6.0
 40
6.0
 40
6.0
 40
7.0
 40
7.0
 40
7.0
 40
8.0
 40
8.0
 40
8.0
 40
8.0
 10
64.1697688788976
 20
282.5943066351935
 30
0.0
 10
64.90012960358547
 20
282.2177574502483
 30
0.0
 10
65.72833110459946
 20
282.0058839381336
 30
0.0
 10
66.60545299377651
 20
282.0058839381336
 30
0.0
 10
69.56203588965923
 20
282.0058839381336
 30
0.0
 10
71.95982392920057
 20
284.4198639371374
 30
0.0
 10
71.95982392920057
 20
287.3976341842315
 30
0.0
 10
71.95982392920057
 20
289.2908876571194
 30
0.0
 10
70.99106243966173
 20
290.956420168206
 30
0.0
 10
69.52551785342483
 20
291.9184637171168
 30
0.0
 10
69.52551785342483
 20
291.9184637171168
 30
0.0
 10
68.86474810344778
 20
290.7691791050608
 30
0.0
 10
68.86474810344778
 20
290.7691791050608
 30
0.0
 10
69.93272840841591
 20
290.0350287728392
 30
0.0
 10
70.63346129238532
 20
288.7989276972825
 30
0.0
 10
70.63346129238532
 20
287.3976341842315
 30
0.0
 10
70.63346129238532
 20
285.1450570151883
 30
0.0
 10
68.82065085214587
 20
283.3188106936929
 30
0.0
 10
66.58547142678033
 20
283.3188106936929
 30
0.0
 10
65.95295147841857
 20
283.3188106936929
 30
0.0
 10
65.35350446853323
 20
283.4652273484062
 30
0.0
 10
64.82020333560077
 20
283.7260212486839
 30
0.0
 10
64.82020333560077
 20
283.7260212486839
 30
0.0
 10
64.1697688788976
 20
282.5943066351935
 30
0.0
 10
64.1697688788976
 20
282.5943066351935
 30
0.0
  0
HATCH
  5
47
330
1F
100
AcDbEntity
  8
Layer 1
 62
    18
420
        0
100
AcDbHatch
 10
0.0
 20
0.0
 30
0.0
210
0.0
220
0.0
230
1.0
  2
SOLID
 70
     1
 71
     0
 91
        1
 92
        1
 93
        1
 72
     4
 94
        3
 73
     0
 74
     1
 95
       29
 96
       25
 40
0.0
 40
0.0
 40
0.0
 40
0.0
 40
1.0
 40
1.0
 40
1.0
 40
2.0
 40
2.0
 40
2.0
 40
3.0
 40
3.0
 40
3.0
 40
4.0
 40
4.0
 40
4.0
 40
5.0
 40
5.0
 40
5.0
 40
6.0
 40
6.0
 40
6.0
 40
7.0
 40
7.0
 40
7.0
 40
8.0
 40
8.0
 40
8.0
 40
8.0
 10
64.1697688788976
 20
282.5943066351935
 10
64.90012960358547
 20
282.2177574502483
 10
65.72833110459946
 20
282.0058839381336
 10
66.60545299377651
 20
282.0058839381336
 10
69.56203588965923
 20
282.0058839381336
 10
71.95982392920057
 20
284.4198639371374
 10
71.95982392920057
 20
287.3976341842315
 10
71.95982392920057
 20
289.2908876571194
 10
70.99106243966173
 20
290.956420168206
 10
69.52551785342483
 20
291.9184637171168
 10
69.52551785342483
 20
291.9184637171168
 10
68.86474810344778
 20
290.7691791050608
 10
68.86474810344778
 20
290.7691791050608
 10
69.93272840841591
 20
290.0350287728392
 10
70.63346129238532
 20
288.7989276972825
 10
70.63346129238532
 20
287.3976341842315
 10
70.63346129238532
 20
285.1450570151883
 10
68.82065085214587
 20
283.3188106936929
 10
66.58547142678033
 20
283.3188106936929
 10
65.95295147841857
 20
283.3188106936929
 10
65.35350446853323
 20
283.4652273484062
 10
64.82020333560077
 20
283.7260212486839
 10
64.82020333560077
 20
283.7260212486839
 10
64.1697688788976
 20
282.5943066351935
 10
64.1697688788976
 20
282.5943066351935
 97
        0
 75
     2
 76
     1
 98
        0
  0
SPLINE
  5
48
330
1F
100
AcDbEntity
  8
Layer 1
 62
   250
420
  2301728
370
    18
100
AcDbSpline
210
0.0
220
0.0
230
1.0
 70
    11
 71
     3
 72
    53
 73
    49
 74
     0
 42
0.0000000001
 43
0.0000000001
 40
0.0
 40
0.0
 40
0.0
 40
0.0
 40
1.0
 40
1.0
 40
1.0
 40
2.0
 40
2.0
 40
2.0
 40
3.0
 40
3.0
 40
3.0
 40
4.0
 40
4.0
 40
4.0
 40
5.0
 40
5.0
 40
5.0
 40
6.0
 40
6.0
 40
6.0
 40
7.0
 40
7.0
 40
7.0
 40
8.0
 40
8.0
 40
8.0
 40
9.0
 40
9.0
 40
9.0
 40
10.0
 40
10.0
 40
10.0
 40
11.0
 40
11.0
 40
11.0
 40
12.0
 40
12.0
 40
12.0
 40
13.0
 40
13.0
 40
13.0
 40
14.0
 40
14.0
 40
14.0
 40
15.0
 40
15.0
 40
15.0
 40
16.0
 40
16.0
 40
16.0
 40
16.0
 10
66.60545299377651
 20
292.7900734498811
 30
0.0
 10
63.863155178439
 20
292.7900734498811
 30
0.0
 10
61.60317104921614
 20
290.7144020507092
 30
0.0
 10
61.28828911413844
 20
288.0380778574366
 30
0.0
 10
61.09674167879577
 20
289.6629582149793
 30
0.0
 10
60.18930292934866
 20
291.0666632964608
 30
0.0
 10
58.89187911370028
 20
291.9184637171168
 30
0.0
 10
58.89187911370028
 20
291.9184637171168
 30
0.0
 10
58.23179838327483
 20
290.7691791050608
 30
0.0
 10
58.23179838327483
 20
290.7691791050608
 30
0.0
 10
59.29977868824295
 20
290.0350287728392
 30
0.0
 10
60.00051157221236
 20
288.7989276972825
 30
0.0
 10
60.00051157221236
 20
287.3976341842315
 30
0.0
 10
60.00051157221236
 20
285.1450570151883
 30
0.0
 10
58.18839015152451
 20
283.3188106936929
 30
0.0
 10
55.95321072615896
 20
283.3188106936929
 30
0.0
 10
55.32000175824561
 20
283.3188106936929
 30
0.0
 10
54.72055474836027
 20
283.4652273484062
 30
0.0
 10
54.1879426349794
 20
283.7260212486839
 30
0.0
 10
54.1879426349794
 20
283.7260212486839
 30
0.0
 10
53.53681915872464
 20
282.5943066351935
 30
0.0
 10
53.53681915872464
 20
282.5943066351935
 30
0.0
 10
54.26786890296411
 20
282.2177574502483
 30
0.0
 10
55.09538138442651
 20
282.0058839381336
 30
0.0
 10
55.97181425405196
 20
282.0058839381336
 30
0.0
 10
58.71342304983787
 20
282.0058839381336
 30
0.0
 10
60.97409619861233
 20
284.0812108275297
 30
0.0
 10
61.28828911413844
 20
286.7573627659144
 30
0.0
 10
61.47983654948111
 20
285.1250754481921
 30
0.0
 10
62.39554353354733
 20
283.7160304651858
 30
0.0
 10
63.70261362291799
 20
282.8657803385209
 30
0.0
 10
63.70261362291799
 20
282.8657803385209
 30
0.0
 10
64.35167004051797
 20
283.9957724031323
 30
0.0
 10
64.35167004051797
 20
283.9957724031323
 30
0.0
 10
63.25957405124412
 20
284.7261331278202
 30
0.0
 10
62.53817058072694
 20
285.977048123736
 30
0.0
 10
62.53817058072694
 20
287.3976341842315
 30
0.0
 10
62.53817058072694
 20
289.6507281179385
 30
0.0
 10
64.35029200141479
 20
291.4766299296582
 30
0.0
 10
66.58547142678033
 20
291.4766299296582
 30
0.0
 10
67.23866196168987
 20
291.4766299296582
 30
0.0
 10
67.85464544081341
 20
291.3212560207741
 30
0.0
 10
68.40034892567455
 20
291.0449591805856
 30
0.0
 10
68.40034892567455
 20
291.0449591805856
 30
0.0
 10
69.05836259744522
 20
292.1918322242111
 30
0.0
 10
69.05836259744522
 20
292.1918322242111
 30
0.0
 10
68.3238677554478
 20
292.5742380753448
 30
0.0
 10
67.49015409802107
 20
292.7900734498811
 30
0.0
 10
66.60545299377651
 20
292.7900734498811
 30
0.0
  0
HATCH
  5
49
330
1F
100
AcDbEntity
  8
Layer 1
 62
    18
420
        0
100
AcDbHatch
 10
0.0
 20
0.0
 30
0.0
210
0.0
220
0.0
230
1.0
  2
SOLID
 70
     1
 71
     0
 91
        1
 92
        1
 93
        1
 72
     4
 94
        3
 73
     0
 74
     1
 95
       53
 96
       49
 40
0.0
 40
0.0
 40
0.0
 40
0.0
 40
1.0
 40
1.0
 40
1.0
 40
2.0
 40
2.0
 40
2.0
 40
3.0
 40
3.0
 40
3.0
 40
4.0
 40
4.0
 40
4.0
 40
5.0
 40
5.0
 40
5.0
 40
6.0
 40
6.0
 40
6.0
 40
7.0
 40
7.0
 40
7.0
 40
8.0
 40
8.0
 40
8.0
 40
9.0
 40
9.0
 40
9.0
 40
10.0
 40
10.0
 40
10.0
 40
11.0
 40
11.0
 40
11.0
 40
12.0
 40
12.0
 40
12.0
 40
13.0
 40
13.0
 40
13.0
 40
14.0
 40
14.0
 40
14.0
 40
15.0
 40
15.0
 40
15.0
 40
16.0
 40
16.0
 40
16.0
 40
16.0
 10
66.60545299377651
 20
292.7900734498811
 10
63.863155178439
 20
292.7900734498811
 10
61.60317104921614
 20
290.7144020507092
 10
61.28828911413844
 20
288.0380778574366
 10
61.09674167879577
 20
289.6629582149793
 10
60.18930292934866
 20
291.0666632964608
 10
58.89187911370028
 20
291.9184637171168
 10
58.89187911370028
 20
291.9184637171168
 10
58.23179838327483
 20
290.7691791050608
 10
58.23179838327483
 20
290.7691791050608
 10
59.29977868824295
 20
290.0350287728392
 10
60.00051157221236
 20
288.7989276972825
 10
60.00051157221236
 20
287.3976341842315
 10
60.00051157221236
 20
285.1450570151883
 10
58.18839015152451
 20
283.3188106936929
 10
55.95321072615896
 20
283.3188106936929
 10
55.32000175824561
 20
283.3188106936929
 10
54.72055474836027
 20
283.4652273484062
 10
54.1879426349794
 20
283.7260212486839
 10
54.1879426349794
 20
283.7260212486839
 10
53.53681915872464
 20
282.5943066351935
 10
53.53681915872464
 20
282.5943066351935
 10
54.26786890296411
 20
282.2177574502483
 10
55.09538138442651
 20
282.0058839381336
 10
55.97181425405196
 20
282.0058839381336
 10
58.71342304983787
 20
282.0058839381336
 10
60.97409619861233
 20
284.0812108275297
 10
61.28828911413844
 20
286.7573627659144
 10
61.47983654948111
 20
285.1250754481921
 10
62.39554353354733
 20
283.7160304651858
 10
63.70261362291799
 20
282.8657803385209
 10
63.70261362291799
 20
282.8657803385209
 10
64.35167004051797
 20
283.9957724031323
 10
64.35167004051797
 20
283.9957724031323
 10
63.25957405124412
 20
284.7261331278202
 10
62.53817058072694
 20
285.977048123736
 10
62.53817058072694
 20
287.3976341842315
 10
62.53817058072694
 20
289.6507281179385
 10
64.35029200141479
 20
291.4766299296582
 10
66.58547142678033
 20
291.4766299296582
 10
67.23866196168987
 20
291.4766299296582
 10
67.85464544081341
 20
291.3212560207741
 10
68.40034892567455
 20
291.0449591805856
 10
68.40034892567455
 20
291.0449591805856
 10
69.05836259744522
 20
292.1918322242111
 10
69.05836259744522
 20
292.1918322242111
 10
68.3238677554478
 20
292.5742380753448
 10
67.49015409802107
 20
292.7900734498811
 10
66.60545299377651
 20
292.7900734498811
 97
        0
 75
     2
 76
     1
 98
        0
  0
SPLINE
  5
4A
330
1F
100
AcDbEntity
  8
Layer 1
 62
   250
420
  2301728
370
    18
100
AcDbSpline
210
0.0
220
0.0
230
1.0
 70
    11
 71
     3
 72
    29
 73
    25
 74
     0
 42
0.0000000001
 43
0.0000000001
 40
0.0
 40
0.0
 40
0.0
 40
0.0
 40
1.0
 40
1.0
 40
1.0
 40
2.0
 40
2.0
 40
2.0
 40
3.0
 40
3.0
 40
3.0
 40
4.0
 40
4.0
 40
4.0
 40
5.0
 40
5.0
 40
5.0
 40
6.0
 40
6.0
 40
6.0
 40
7.0
 40
7.0
 40
7.0
 40
8.0
 40
8.0
 40
8.0
 40
8.0
 10
64.58938178581732
 20
284.4091841340877
 30
0.0
 10
63.63371166775875
 20
285.0585850614635
 30
0.0
 10
63.00601485625813
 20
286.1548151680469
 30
0.0
 10
63.00601485625813
 20
287.3976341842315
 30
0.0
 10
63.00601485625813
 20
289.3925180409793
 30
0.0
 10
64.62245472429376
 20
291.0094746736786
 30
0.0
 10
66.61785534570517
 20
291.0094746736786
 30
0.0
 10
67.17596118249496
 20
291.0094746736786
 30
0.0
 10
67.70443917856629
 20
290.8826950761856
 30
0.0
 10
68.17641757140704
 20
290.6565244083754
 30
0.0
 10
68.17641757140704
 20
290.6565244083754
 30
0.0
 10
67.48877605891788
 20
289.4679656818786
 30
0.0
 10
67.48877605891788
 20
289.4679656818786
 30
0.0
 10
67.21868039469369
 20
289.582342927443
 30
0.0
 10
66.92240198750898
 20
289.6457327261895
 30
0.0
 10
66.61165416974085
 20
289.6457327261895
 30
0.0
 10
65.36590682046189
 20
289.6457327261895
 30
0.0
 10
64.35718219693071
 20
288.6337352597882
 30
0.0
 10
64.35718219693071
 20
287.3848873225271
 30
0.0
 10
64.35718219693071
 20
286.6453970887806
 30
0.0
 10
64.71133824644917
 20
285.9884169463373
 30
0.0
 10
65.25910878996508
 20
285.5763832544851
 30
0.0
 10
65.25910878996508
 20
285.5763832544851
 30
0.0
 10
64.58938178581732
 20
284.4091841340877
 30
0.0
 10
64.58938178581732
 20
284.4091841340877
 30
0.0
  0
HATCH
  5
4B
330
1F
100
AcDbEntity
  8
Layer 1
 62
    18
420
        0
100
AcDbHatch
 10
0.0
 20
0.0
 30
0.0
210
0.0
220
0.0
230
1.0
  2
SOLID
 70
     1
 71
     0
 91
        1
 92
        1
 93
        1
 72
     4
 94
        3
 73
     0
 74
     1
 95
       29
 96
       25
 40
0.0
 40
0.0
 40
0.0
 40
0.0
 40
1.0
 40
1.0
 40
1.0
 40
2.0
 40
2.0
 40
2.0
 40
3.0
 40
3.0
 40
3.0
 40
4.0
 40
4.0
 40
4.0
 40
5.0
 40
5.0
 40
5.0
 40
6.0
 40
6.0
 40
6.0
 40
7.0
 40
7.0
 40
7.0
 40
8.0
 40
8.0
 40
8.0
 40
8.0
 10
64.58938178581732
 20
284.4091841340877
 10
63.63371166775875
 20
285.0585850614635
 10
63.00601485625813
 20
286.1548151680469
 10
63.00601485625813
 20
287.3976341842315
 10
63.00601485625813
 20
289.3925180409793
 10
64.62245472429376
 20
291.0094746736786
 10
66.61785534570517
 20
291.0094746736786
 10
67.17596118249496
 20
291.0094746736786
 10
67.70443917856629
 20
290.8826950761856
 10
68.17641757140704
 20
290.6565244083754
 10
68.17641757140704
 20
290.6565244083754
 10
67.48877605891788
 20
289.4679656818786
 10
67.48877605891788
 20
289.4679656818786
 10
67.21868039469369
 20
289.582342927443
 10
66.92240198750898
 20
289.6457327261895
 10
66.61165416974085
 20
289.6457327261895
 10
65.36590682046189
 20
289.6457327261895
 10
64.35718219693071
 20
288.6337352597882
 10
64.35718219693071
 20
287.3848873225271
 10
64.35718219693071
 20
286.6453970887806
 10
64.71133824644917
 20
285.9884169463373
 10
65.25910878996508
 20
285.5763832544851
 10
65.25910878996508
 20
285.5763832544851
 10
64.58938178581732
 20
284.4091841340877
 10
64.58938178581732
 20
284.4091841340877
 97
        0
 75
     2
 76
     1
 98
        0
  0
SPLINE
  5
4C
330
1F
100
AcDbEntity
  8
Layer 1
 62
   250
420
  2301728
370
    18
100
AcDbSpline
210
0.0
220
0.0
230
1.0
 70
    11
 71
     3
 72
    29
 73
    25
 74
     0
 42
0.0000000001
 43
0.0000000001
 40
0.0
 40
0.0
 40
0.0
 40
0.0
 40
1.0
 40
1.0
 40
1.0
 40
2.0
 40
2.0
 40
2.0
 40
3.0
 40
3.0
 40
3.0
 40
4.0
 40
4.0
 40
4.0
 40
5.0
 40
5.0
 40
5.0
 40
6.0
 40
6.0
 40
6.0
 40
7.0
 40
7.0
 40
7.0
 40
8.0
 40
8.0
 40
8.0
 40
8.0
 10
65.05722606134853
 20
284.1394329796393
 30
0.0
 10
65.52920445418927
 20
283.9130900569412
 30
0.0
 10
66.05837146981219
 20
283.7863104594482
 30
0.0
 10
66.61785534570517
 20
283.7863104594482
 30
0.0
 10
68.61256694756499
 20
283.7863104594482
 30
0.0
 10
70.2296958351522
 20
285.4030948372596
 30
0.0
 10
70.2296958351522
 20
287.3976341842315
 30
0.0
 10
70.2296958351522
 20
288.640797710192
 30
0.0
 10
69.60131000409999
 20
289.7373723265512
 30
0.0
 10
68.64563988604142
 20
290.3871177637028
 30
0.0
 10
68.64563988604142
 20
290.3871177637028
 30
0.0
 10
67.96144347131023
 20
289.1952861943359
 30
0.0
 10
67.96144347131023
 20
289.1952861943359
 30
0.0
 10
68.50990303437773
 20
288.7832525024838
 30
0.0
 10
68.86474810344778
 20
288.1257555953767
 30
0.0
 10
68.86474810344778
 20
287.3848873225271
 30
0.0
 10
68.86474810344778
 20
286.1365561499297
 30
0.0
 10
67.85671249946819
 20
285.1247309384163
 30
0.0
 10
66.61165416974085
 20
285.1247309384163
 30
0.0
 10
66.29952831286951
 20
285.1247309384163
 30
0.0
 10
66.00324990568481
 20
285.187776227387
 30
0.0
 10
65.73315424146061
 20
285.3021534729514
 30
0.0
 10
65.73315424146061
 20
285.3021534729514
 30
0.0
 10
65.05722606134853
 20
284.1394329796393
 30
0.0
 10
65.05722606134853
 20
284.1394329796393
 30
0.0
  0
HATCH
  5
4D
330
1F
100
AcDbEntity
  8
Layer 1
 62
    18
420
        0
100
AcDbHatch
 10
0.0
 20
0.0
 30
0.0
210
0.0
220
0.0
230
1.0
  2
SOLID
 70
     1
 71
     0
 91
        1
 92
        1
 93
        1
 72
     4
 94
        3
 73
     0
 74
     1
 95
       29
 96
       25
 40
0.0
 40
0.0
 40
0.0
 40
0.0
 40
1.0
 40
1.0
 40
1.0
 40
2.0
 40
2.0
 40
2.0
 40
3.0
 40
3.0
 40
3.0
 40
4.0
 40
4.0
 40
4.0
 40
5.0
 40
5.0
 40
5.0
 40
6.0
 40
6.0
 40
6.0
 40
7.0
 40
7.0
 40
7.0
 40
8.0
 40
8.0
 40
8.0
 40
8.0
 10
65.05722606134853
 20
284.1394329796393
 10
65.52920445418927
 20
283.9130900569412
 10
66.05837146981219
 20
283.7863104594482
 10
66.61785534570517
 20
283.7863104594482
 10
68.61256694756499
 20
283.7863104594482
 10
70.2296958351522
 20
285.4030948372596
 10
70.2296958351522
 20
287.3976341842315
 10
70.2296958351522
 20
288.640797710192
 10
69.60131000409999
 20
289.7373723265512
 10
68.64563988604142
 20
290.3871177637028
 10
68.64563988604142
 20
290.3871177637028
 10
67.96144347131023
 20
289.1952861943359
 10
67.96144347131023
 20
289.1952861943359
 10
68.50990303437773
 20
288.7832525024838
 10
68.86474810344778
 20
288.1257555953767
 10
68.86474810344778
 20
287.3848873225271
 10
68.86474810344778
 20
286.1365561499297
 10
67.85671249946819
 20
285.1247309384163
 10
66.61165416974085
 20
285.1247309384163
 10
66.29952831286951
 20
285.1247309384163
 10
66.00324990568481
 20
285.187776227387
 10
65.73315424146061
 20
285.3021534729514
 10
65.73315424146061
 20
285.3021534729514
 10
65.05722606134853
 20
284.1394329796393
 10
65.05722606134853
 20
284.1394329796393
 97
        0
 75
     2
 76
     1
 98
        0
  0
SPLINE
  5
4E
330
1F
100
AcDbEntity
  8
Layer 1
 62
   250
420
  2301728
370
    18
100
AcDbSpline
210
0.0
220
0.0
230
1.0
 70
    11
 71
     3
 72
    53
 73
    49
 74
     0
 42
0.0000000001
 43
0.0000000001
 40
0.0
 40
0.0
 40
0.0
 40
0.0
 40
1.0
 40
1.0
 40
1.0
 40
2.0
 40
2.0
 40
2.0
 40
3.0
 40
3.0
 40
3.0
 40
4.0
 40
4.0
 40
4.0
 40
5.0
 40
5.0
 40
5.0
 40
6.0
 40
6.0
 40
6.0
 40
7.0
 40
7.0
 40
7.0
 40
8.0
 40
8.0
 40
8.0
 40
9.0
 40
9.0
 40
9.0
 40
10.0
 40
10.0
 40
10.0
 40
11.0
 40
11.0
 40
11.0
 40
12.0
 40
12.0
 40
12.0
 40
13.0
 40
13.0
 40
13.0
 40
14.0
 40
14.0
 40
14.0
 40
15.0
 40
15.0
 40
15.0
 40
16.0
 40
16.0
 40
16.0
 40
16.0
 10
41.59886640783579
 20
289.6457327261895
 30
0.0
 10
41.59886640783579
 20
289.6457327261895
 30
0.0
 10
42.35196477772622
 20
291.0094746736786
 30
0.0
 10
42.35196477772622
 20
291.0094746736786
 30
0.0
 10
42.35196477772622
 20
291.0094746736786
 30
0.0
 10
47.31497260784583
 20
291.0094746736786
 30
0.0
 10
47.31497260784583
 20
291.0094746736786
 30
0.0
 10
48.27408782366236
 20
291.0094746736786
 30
0.0
 10
49.05199089741011
 20
290.2179634637869
 30
0.0
 10
49.05199089741011
 20
289.2414505042927
 30
0.0
 10
49.05199089741011
 20
288.2651097996863
 30
0.0
 10
48.27408782366236
 20
287.4735985897946
 30
0.0
 10
47.31497260784583
 20
287.4735985897946
 30
0.0
 10
47.31497260784583
 20
287.4735985897946
 30
0.0
 10
45.05636651772615
 20
287.4735985897946
 30
0.0
 10
45.05636651772615
 20
287.4735985897946
 30
0.0
 10
43.84575916557841
 20
287.4735985897946
 30
0.0
 10
42.86390630455933
 20
286.4986359242915
 30
0.0
 10
42.86390630455933
 20
285.2962968067628
 30
0.0
 10
42.86390630455933
 20
285.2962968067628
 30
0.0
 10
42.86390630455933
 20
283.3188106936929
 30
0.0
 10
42.86390630455933
 20
283.3188106936929
 30
0.0
 10
42.86390630455933
 20
283.3188106936929
 30
0.0
 10
50.61744331862791
 20
283.3188106936929
 30
0.0
 10
50.61744331862791
 20
283.3188106936929
 30
0.0
 10
50.61744331862791
 20
283.3188106936929
 30
0.0
 10
50.61744331862791
 20
282.0058839381336
 30
0.0
 10
50.61744331862791
 20
282.0058839381336
 30
0.0
 10
50.61744331862791
 20
282.0058839381336
 30
0.0
 10
41.57543974308166
 20
282.0561823653999
 30
0.0
 10
41.57543974308166
 20
282.0561823653999
 30
0.0
 10
41.57543974308166
 20
282.0561823653999
 30
0.0
 10
41.57543974308166
 20
285.4530487547501
 30
0.0
 10
41.57543974308166
 20
285.4530487547501
 30
0.0
 10
41.57543974308166
 20
287.2663759596532
 30
0.0
 10
43.09955099120391
 20
288.7360546631997
 30
0.0
 10
44.97850730839621
 20
288.7360546631997
 30
0.0
 10
44.97850730839621
 20
288.7360546631997
 30
0.0
 10
47.32806397932608
 20
288.7360546631997
 30
0.0
 10
47.32806397932608
 20
288.7360546631997
 30
0.0
 10
47.57611101789932
 20
288.7360546631997
 30
0.0
 10
47.7766157074127
 20
288.9398321955831
 30
0.0
 10
47.7766157074127
 20
289.1908075672506
 30
0.0
 10
47.7766157074127
 20
289.4419551938061
 30
0.0
 10
47.57611101789932
 20
289.6457327261895
 30
0.0
 10
47.32806397932608
 20
289.6457327261895
 30
0.0
 10
47.32806397932608
 20
289.6457327261895
 30
0.0
 10
41.59886640783579
 20
289.6457327261895
 30
0.0
 10
41.59886640783579
 20
289.6457327261895
 30
0.0
  0
HATCH
  5
4F
330
1F
100
AcDbEntity
  8
Layer 1
 62
    18
420
        0
100
AcDbHatch
 10
0.0
 20
0.0
 30
0.0
210
0.0
220
0.0
230
1.0
  2
SOLID
 70
     1
 71
     0
 91
        1
 92
        1
 93
        1
 72
     4
 94
        3
 73
     0
 74
     1
 95
       53
 96
       49
 40
0.0
 40
0.0
 40
0.0
 40
0.0
 40
1.0
 40
1.0
 40
1.0
 40
2.0
 40
2.0
 40
2.0
 40
3.0
 40
3.0
 40
3.0
 40
4.0
 40
4.0
 40
4.0
 40
5.0
 40
5.0
 40
5.0
 40
6.0
 40
6.0
 40
6.0
 40
7.0
 40
7.0
 40
7.0
 40
8.0
 40
8.0
 40
8.0
 40
9.0
 40
9.0
 40
9.0
 40
10.0
 40
10.0
 40
10.0
 40
11.0
 40
11.0
 40
11.0
 40
12.0
 40
12.0
 40
12.0
 40
13.0
 40
13.0
 40
13.0
 40
14.0
 40
14.0
 40
14.0
 40
15.0
 40
15.0
 40
15.0
 40
16.0
 40
16.0
 40
16.0
 40
16.0
 10
41.59886640783579
 20
289.6457327261895
 10
41.59886640783579
 20
289.6457327261895
 10
42.35196477772622
 20
291.0094746736786
 10
42.35196477772622
 20
291.0094746736786
 10
42.35196477772622
 20
291.0094746736786
 10
47.31497260784583
 20
291.0094746736786
 10
47.31497260784583
 20
291.0094746736786
 10
48.27408782366236
 20
291.0094746736786
 10
49.05199089741011
 20
290.2179634637869
 10
49.05199089741011
 20
289.2414505042927
 10
49.05199089741011
 20
288.2651097996863
 10
48.27408782366236
 20
287.4735985897946
 10
47.31497260784583
 20
287.4735985897946
 10
47.31497260784583
 20
287.4735985897946
 10
45.05636651772615
 20
287.4735985897946
 10
45.05636651772615
 20
287.4735985897946
 10
43.84575916557841
 20
287.4735985897946
 10
42.86390630455933
 20
286.4986359242915
 10
42.86390630455933
 20
285.2962968067628
 10
42.86390630455933
 20
285.2962968067628
 10
42.86390630455933
 20
283.3188106936929
 10
42.86390630455933
 20
283.3188106936929
 10
42.86390630455933
 20
283.3188106936929
 10
50.61744331862791
 20
283.3188106936929
 10
50.61744331862791
 20
283.3188106936929
 10
50.61744331862791
 20
283.3188106936929
 10
50.61744331862791
 20
282.0058839381336
 10
50.61744331862791
 20
282.0058839381336
 10
50.61744331862791
 20
282.0058839381336
 10
41.57543974308166
 20
282.0561823653999
 10
41.57543974308166
 20
282.0561823653999
 10
41.57543974308166
 20
282.0561823653999
 10
41.57543974308166
 20
285.4530487547501
 10
41.57543974308166
 20
285.4530487547501
 10
41.57543974308166
 20
287.2663759596532
 10
43.09955099120391
 20
288.7360546631997
 10
44.97850730839621
 20
288.7360546631997
 10
44.97850730839621
 20
288.7360546631997
 10
47.32806397932608
 20
288.7360546631997
 10
47.32806397932608
 20
288.7360546631997
 10
47.57611101789932
 20
288.7360546631997
 10
47.7766157074127
 20
288.9398321955831
 10
47.7766157074127
 20
289.1908075672506
 10
47.7766157074127
 20
289.4419551938061
 10
47.57611101789932
 20
289.6457327261895
 10
47.32806397932608
 20
289.6457327261895
 10
47.32806397932608
 20
289.6457327261895
 10
41.59886640783579
 20
289.6457327261895
 10
41.59886640783579
 20
289.6457327261895
 97
        0
 75
     2
 76
     1
 98
        0
  0
SPLINE
  5
50
330
1F
100
AcDbEntity
  8
Layer 1
 62
   250
420
  2301728
370
    18
100
AcDbSpline
210
0.0
220
0.0
230
1.0
 70
    11
 71
     3
 72
    83
 73
    79
 74
     0
 42
0.0000000001
 43
0.0000000001
 40
0.0
 40
0.0
 40
0.0
 40
0.0
 40
1.0
 40
1.0
 40
1.0
 40
2.0
 40
2.0
 40
2.0
 40
3.0
 40
3.0
 40
3.0
 40
4.0
 40
4.0
 40
4.0
 40
5.0
 40
5.0
 40
5.0
 40
6.0
 40
6.0
 40
6.0
 40
7.0
 40
7.0
 40
7.0
 40
8.0
 40
8.0
 40
8.0
 40
9.0
 40
9.0
 40
9.0
 40
10.0
 40
10.0
 40
10.0
 40
11.0
 40
11.0
 40
11.0
 40
12.0
 40
12.0
 40
12.0
 40
13.0
 40
13.0
 40
13.0
 40
14.0
 40
14.0
 40
14.0
 40
15.0
 40
15.0
 40
15.0
 40
16.0
 40
16.0
 40
16.0
 40
17.0
 40
17.0
 40
17.0
 40
18.0
 40
18.0
 40
18.0
 40
19.0
 40
19.0
 40
19.0
 40
20.0
 40
20.0
 40
20.0
 40
21.0
 40
21.0
 40
21.0
 40
22.0
 40
22.0
 40
22.0
 40
23.0
 40
23.0
 40
23.0
 40
24.0
 40
24.0
 40
24.0
 40
25.0
 40
25.0
 40
25.0
 40
26.0
 40
26.0
 40
26.0
 40
26.0
 10
55.97181425405196
 20
292.7900734498811
 30
0.0
 10
53.46653916446222
 20
292.7900734498811
 30
0.0
 10
51.36296247345081
 20
291.0568447678506
 30
0.0
 10
50.7793629132521
 20
288.7162453510914
 30
0.0
 10
50.80554565621262
 20
288.8916008269716
 30
0.0
 10
50.81932604724446
 20
289.0714349299373
 30
0.0
 10
50.81932604724446
 20
289.254369620885
 30
0.0
 10
50.81932604724446
 20
291.2070510300977
 30
0.0
 10
49.2421602936496
 20
292.7900734498811
 30
0.0
 10
47.29636907995284
 20
292.7900734498811
 30
0.0
 10
47.29636907995284
 20
292.7900734498811
 30
0.0
 10
43.3338176387453
 20
292.7900734498811
 30
0.0
 10
43.3338176387453
 20
292.7900734498811
 30
0.0
 10
43.3338176387453
 20
292.7900734498811
 30
0.0
 10
42.60965809002175
 20
291.4766299296582
 30
0.0
 10
42.60965809002175
 20
291.4766299296582
 30
0.0
 10
42.60965809002175
 20
291.4766299296582
 30
0.0
 10
47.21161967510698
 20
291.4766299296582
 30
0.0
 10
47.21161967510698
 20
291.4766299296582
 30
0.0
 10
48.45805604393752
 20
291.4766299296582
 30
0.0
 10
49.46815870657188
 20
290.4811689324952
 30
0.0
 10
49.46815870657188
 20
289.2531638366697
 30
0.0
 10
49.46815870657188
 20
288.0249864859564
 30
0.0
 10
48.45805604393752
 20
287.0295254887934
 30
0.0
 10
47.21161967510698
 20
287.0295254887934
 30
0.0
 10
47.21161967510698
 20
287.0295254887934
 30
0.0
 10
45.0425861266943
 20
287.0314202925603
 30
0.0
 10
45.0425861266943
 20
287.0314202925603
 30
0.0
 10
44.04764189419497
 20
287.0314202925603
 30
0.0
 10
43.24217803838352
 20
286.254378493252
 30
0.0
 10
43.24217803838352
 20
285.2952632774354
 30
0.0
 10
43.24217803838352
 20
285.2952632774354
 30
0.0
 10
43.24217803838352
 20
283.7863104594482
 30
0.0
 10
43.24217803838352
 20
283.7863104594482
 30
0.0
 10
43.24217803838352
 20
283.7863104594482
 30
0.0
 10
50.61744331862791
 20
283.7863104594482
 30
0.0
 10
50.61744331862791
 20
283.7863104594482
 30
0.0
 10
50.61744331862791
 20
283.7863104594482
 30
0.0
 10
50.61744331862791
 20
285.1247309384163
 30
0.0
 10
50.61744331862791
 20
285.1247309384163
 30
0.0
 10
50.61744331862791
 20
285.1247309384163
 30
0.0
 10
44.49274852452361
 20
285.1247309384163
 30
0.0
 10
44.49274852452361
 20
285.1247309384163
 30
0.0
 10
44.49274852452361
 20
285.1247309384163
 30
0.0
 10
44.49274852452361
 20
285.2508215163577
 30
0.0
 10
44.49274852452361
 20
285.2508215163577
 30
0.0
 10
44.49274852452361
 20
285.5088593384291
 30
0.0
 10
44.69945439000131
 20
285.7183212821132
 30
0.0
 10
44.95370260453889
 20
285.7183212821132
 30
0.0
 10
44.95370260453889
 20
285.7183212821132
 30
0.0
 10
47.29636907995284
 20
285.7183212821132
 30
0.0
 10
47.29636907995284
 20
285.7183212821132
 30
0.0
 10
48.92452228036553
 20
285.7183212821132
 30
0.0
 10
50.2936041293795
 20
286.8267814857373
 30
0.0
 10
50.69736958661262
 20
288.3324614608545
 30
0.0
 10
50.6450041006916
 20
288.028948348378
 30
0.0
 10
50.61744331862791
 20
287.7166502366188
 30
0.0
 10
50.61744331862791
 20
287.3976341842315
 30
0.0
 10
50.61744331862791
 20
285.4968014962762
 30
0.0
 10
51.59378402323425
 20
283.825584573889
 30
0.0
 10
53.06966390274503
 20
282.8657803385209
 30
0.0
 10
53.06966390274503
 20
282.8657803385209
 30
0.0
 10
53.71940933989661
 20
283.9957724031323
 30
0.0
 10
53.71940933989661
 20
283.9957724031323
 30
0.0
 10
52.62593531151957
 20
284.7261331278202
 30
0.0
 10
51.90522086055398
 20
285.977048123736
 30
0.0
 10
51.90522086055398
 20
287.3976341842315
 30
0.0
 10
51.90522086055398
 20
289.6507281179385
 30
0.0
 10
53.71734228124183
 20
291.4766299296582
 30
0.0
 10
55.95321072615896
 20
291.4766299296582
 30
0.0
 10
56.60502322196532
 20
291.4766299296582
 30
0.0
 10
57.22169572064046
 20
291.3212560207741
 30
0.0
 10
57.76739920550159
 20
291.0449591805856
 30
0.0
 10
57.76739920550159
 20
291.0449591805856
 30
0.0
 10
58.42610189682387
 20
292.1918322242111
 30
0.0
 10
58.42610189682387
 20
292.1918322242111
 30
0.0
 10
57.69022901572325
 20
292.5742380753448
 30
0.0
 10
56.85651535829652
 20
292.7900734498811
 30
0.0
 10
55.97181425405196
 20
292.7900734498811
 30
0.0
  0
HATCH
  5
51
330
1F
100
AcDbEntity
  8
Layer 1
 62
    18
420
        0
100
AcDbHatch
 10
0.0
 20
0.0
 30
0.0
210
0.0
220
0.0
230
1.0
  2
SOLID
 70
     1
 71
     0
 91
        1
 92
        1
 93
        1
 72
     4
 94
        3
 73
     0
 74
     1
 95
       83
 96
       79
 40
0.0
 40
0.0
 40
0.0
 40
0.0
 40
1.0
 40
1.0
 40
1.0
 40
2.0
 40
2.0
 40
2.0
 40
3.0
 40
3.0
 40
3.0
 40
4.0
 40
4.0
 40
4.0
 40
5.0
 40
5.0
 40
5.0
 40
6.0
 40
6.0
 40
6.0
 40
7.0
 40
7.0
 40
7.0
 40
8.0
 40
8.0
 40
8.0
 40
9.0
 40
9.0
 40
9.0
 40
10.0
 40
10.0
 40
10.0
 40
11.0
 40
11.0
 40
11.0
 40
12.0
 40
12.0
 40
12.0
 40
13.0
 40
13.0
 40
13.0
 40
14.0
 40
14.0
 40
14.0
 40
15.0
 40
15.0
 40
15.0
 40
16.0
 40
16.0
 40
16.0
 40
17.0
 40
17.0
 40
17.0
 40
18.0
 40
18.0
 40
18.0
 40
19.0
 40
19.0
 40
19.0
 40
20.0
 40
20.0
 40
20.0
 40
21.0
 40
21.0
 40
21.0
 40
22.0
 40
22.0
 40
22.0
 40
23.0
 40
23.0
 40
23.0
 40
24.0
 40
24.0
 40
24.0
 40
25.0
 40
25.0
 40
25.0
 40
26.0
 40
26.0
 40
26.0
 40
26.0
 10
55.97181425405196
 20
292.7900734498811
 10
53.46653916446222
 20
292.7900734498811
 10
51.36296247345081
 20
291.0568447678506
 10
50.7793629132521
 20
288.7162453510914
 10
50.80554565621262
 20
288.8916008269716
 10
50.81932604724446
 20
289.0714349299373
 10
50.81932604724446
 20
289.254369620885
 10
50.81932604724446
 20
291.2070510300977
 10
49.2421602936496
 20
292.7900734498811
 10
47.29636907995284
 20
292.7900734498811
 10
47.29636907995284
 20
292.7900734498811
 10
43.3338176387453
 20
292.7900734498811
 10
43.3338176387453
 20
292.7900734498811
 10
43.3338176387453
 20
292.7900734498811
 10
42.60965809002175
 20
291.4766299296582
 10
42.60965809002175
 20
291.4766299296582
 10
42.60965809002175
 20
291.4766299296582
 10
47.21161967510698
 20
291.4766299296582
 10
47.21161967510698
 20
291.4766299296582
 10
48.45805604393752
 20
291.4766299296582
 10
49.46815870657188
 20
290.4811689324952
 10
49.46815870657188
 20
289.2531638366697
 10
49.46815870657188
 20
288.0249864859564
 10
48.45805604393752
 20
287.0295254887934
 10
47.21161967510698
 20
287.0295254887934
 10
47.21161967510698
 20
287.0295254887934
 10
45.0425861266943
 20
287.0314202925603
 10
45.0425861266943
 20
287.0314202925603
 10
44.04764189419497
 20
287.0314202925603
 10
43.24217803838352
 20
286.254378493252
 10
43.24217803838352
 20
285.2952632774354
 10
43.24217803838352
 20
285.2952632774354
 10
43.24217803838352
 20
283.7863104594482
 10
43.24217803838352
 20
283.7863104594482
 10
43.24217803838352
 20
283.7863104594482
 10
50.61744331862791
 20
283.7863104594482
 10
50.61744331862791
 20
283.7863104594482
 10
50.61744331862791
 20
283.7863104594482
 10
50.61744331862791
 20
285.1247309384163
 10
50.61744331862791
 20
285.1247309384163
 10
50.61744331862791
 20
285.1247309384163
 10
44.49274852452361
 20
285.1247309384163
 10
44.49274852452361
 20
285.1247309384163
 10
44.49274852452361
 20
285.1247309384163
 10
44.49274852452361
 20
285.2508215163577
 10
44.49274852452361
 20
285.2508215163577
 10
44.49274852452361
 20
285.5088593384291
 10
44.69945439000131
 20
285.7183212821132
 10
44.95370260453889
 20
285.7183212821132
 10
44.95370260453889
 20
285.7183212821132
 10
47.29636907995284
 20
285.7183212821132
 10
47.29636907995284
 20
285.7183212821132
 10
48.92452228036553
 20
285.7183212821132
 10
50.2936041293795
 20
286.8267814857373
 10
50.69736958661262
 20
288.3324614608545
 10
50.6450041006916
 20
288.028948348378
 10
50.61744331862791
 20
287.7166502366188
 10
50.61744331862791
 20
287.3976341842315
 10
50.61744331862791
 20
285.4968014962762
 10
51.59378402323425
 20
283.825584573889
 10
53.06966390274503
 20
282.8657803385209
 10
53.06966390274503
 20
282.8657803385209
 10
53.71940933989661
 20
283.9957724031323
 10
53.71940933989661
 20
283.9957724031323
 10
52.62593531151957
 20
284.7261331278202
 10
51.90522086055398
 20
285.977048123736
 10
51.90522086055398
 20
287.3976341842315
 10
51.90522086055398
 20
289.6507281179385
 10
53.71734228124183
 20
291.4766299296582
 10
55.95321072615896
 20
291.4766299296582
 10
56.60502322196532
 20
291.4766299296582
 10
57.22169572064046
 20
291.3212560207741
 10
57.76739920550159
 20
291.0449591805856
 10
57.76739920550159
 20
291.0449591805856
 10
58.42610189682387
 20
292.1918322242111
 10
58.42610189682387
 20
292.1918322242111
 10
57.69022901572325
 20
292.5742380753448
 10
56.85651535829652
 20
292.7900734498811
 10
55.97181425405196
 20
292.7900734498811
 97
        0
 75
     2
 76
     1
 98
        0
  0
SPLINE
  5
52
330
1F
100
AcDbEntity
  8
Layer 1
 62
   250
420
  2301728
370
    18
100
AcDbSpline
210
0.0
220
0.0
230
1.0
 70
    11
 71
     3
 72
    80
 73
    76
 74
     0
 42
0.0000000001
 43
0.0000000001
 40
0.0
 40
0.0
 40
0.0
 40
0.0
 40
1.0
 40
1.0
 40
1.0
 40
2.0
 40
2.0
 40
2.0
 40
3.0
 40
3.0
 40
3.0
 40
4.0
 40
4.0
 40
4.0
 40
5.0
 40
5.0
 40
5.0
 40
6.0
 40
6.0
 40
6.0
 40
7.0
 40
7.0
 40
7.0
 40
8.0
 40
8.0
 40
8.0
 40
9.0
 40
9.0
 40
9.0
 40
10.0
 40
10.0
 40
10.0
 40
11.0
 40
11.0
 40
11.0
 40
12.0
 40
12.0
 40
12.0
 40
13.0
 40
13.0
 40
13.0
 40
14.0
 40
14.0
 40
14.0
 40
15.0
 40
15.0
 40
15.0
 40
16.0
 40
16.0
 40
16.0
 40
17.0
 40
17.0
 40
17.0
 40
18.0
 40
18.0
 40
18.0
 40
19.0
 40
19.0
 40
19.0
 40
20.0
 40
20.0
 40
20.0
 40
21.0
 40
21.0
 40
21.0
 40
22.0
 40
22.0
 40
22.0
 40
23.0
 40
23.0
 40
23.0
 40
24.0
 40
24.0
 40
24.0
 40
25.0
 40
25.0
 40
25.0
 40
25.0
 10
25.25532264406555
 20
292.7900734498811
 30
0.0
 10
27.40988678189479
 20
292.7900734498811
 30
0.0
 10
29.15655134518136
 20
291.0242885940378
 30
0.0
 10
29.15655134518136
 20
288.8461255365665
 30
0.0
 10
29.15655134518136
 20
286.6681347339832
 30
0.0
 10
27.40988678189479
 20
284.9025221330278
 30
0.0
 10
25.25532264406555
 20
284.9025221330278
 30
0.0
 10
25.25532264406555
 20
284.9025221330278
 30
0.0
 10
21.89704134960449
 20
284.9025221330278
 30
0.0
 10
21.89704134960449
 20
284.9025221330278
 30
0.0
 10
21.89704134960449
 20
284.9025221330278
 30
0.0
 10
21.89704134960449
 20
281.8460314021642
 30
0.0
 10
21.89704134960449
 20
281.8460314021642
 30
0.0
 10
21.89704134960449
 20
281.8460314021642
 30
0.0
 10
20.49075244480453
 20
281.8460314021642
 30
0.0
 10
20.49075244480453
 20
281.8460314021642
 30
0.0
 10
20.49075244480453
 20
281.8460314021642
 30
0.0
 10
20.49075244480453
 20
291.0332458482085
 30
0.0
 10
20.49075244480453
 20
291.0332458482085
 30
0.0
 10
20.49075244480453
 20
291.0332458482085
 30
0.0
 10
25.18848774756109
 20
291.0332458482085
 30
0.0
 10
25.18848774756109
 20
291.0332458482085
 30
0.0
 10
26.40185117791519
 20
291.0332458482085
 30
0.0
 10
27.38508207803746
 20
290.0534600458442
 30
0.0
 10
27.38508207803746
 20
288.845264262127
 30
0.0
 10
27.38508207803746
 20
287.6362072039704
 30
0.0
 10
26.40185117791519
 20
286.6567659113819
 30
0.0
 10
25.18848774756109
 20
286.6567659113819
 30
0.0
 10
25.18848774756109
 20
286.6567659113819
 30
0.0
 10
22.84788833080192
 20
286.6567659113819
 30
0.0
 10
22.84788833080192
 20
286.6567659113819
 30
0.0
 10
22.84788833080192
 20
286.6567659113819
 30
0.0
 10
23.63888277602992
 20
288.0287760934901
 30
0.0
 10
23.63888277602992
 20
288.0287760934901
 30
0.0
 10
23.63888277602992
 20
288.0287760934901
 30
0.0
 10
25.18021951294198
 20
288.0287760934901
 30
0.0
 10
25.18021951294198
 20
288.0287760934901
 30
0.0
 10
25.63083829968337
 20
288.0287760934901
 30
0.0
 10
25.9967076815789
 20
288.3901668483003
 30
0.0
 10
25.9967076815789
 20
288.8363070079563
 30
0.0
 10
25.9967076815789
 20
289.2821026578366
 30
0.0
 10
25.63083829968337
 20
289.6438379224226
 30
0.0
 10
25.18021951294198
 20
289.6438379224226
 30
0.0
 10
25.18021951294198
 20
289.6438379224226
 30
0.0
 10
21.89704134960449
 20
289.6438379224226
 30
0.0
 10
21.89704134960449
 20
289.6438379224226
 30
0.0
 10
21.89704134960449
 20
289.6438379224226
 30
0.0
 10
21.89704134960449
 20
285.008631143973
 30
0.0
 10
21.89704134960449
 20
285.008631143973
 30
0.0
 10
21.89704134960449
 20
285.008631143973
 30
0.0
 10
22.59708521402231
 20
286.2226835938787
 30
0.0
 10
22.59708521402231
 20
286.2226835938787
 30
0.0
 10
22.59708521402231
 20
286.2226835938787
 30
0.0
 10
25.28426146523242
 20
286.2226835938787
 30
0.0
 10
25.28426146523242
 20
286.2226835938787
 30
0.0
 10
26.69399546779035
 20
286.2226835938787
 30
0.0
 10
27.83707890388203
 20
287.3962561451284
 30
0.0
 10
27.83707890388203
 20
288.8438862230239
 30
0.0
 10
27.83707890388203
 20
290.2916885558073
 30
0.0
 10
26.69399546779035
 20
291.465261107057
 30
0.0
 10
25.28426146523242
 20
291.465261107057
 30
0.0
 10
25.28426146523242
 20
291.465261107057
 30
0.0
 10
20.03944463851155
 20
291.465261107057
 30
0.0
 10
20.03944463851155
 20
291.465261107057
 30
0.0
 10
20.03944463851155
 20
291.465261107057
 30
0.0
 10
20.03944463851155
 20
281.8460314021642
 30
0.0
 10
20.03944463851155
 20
281.8460314021642
 30
0.0
 10
20.03944463851155
 20
281.8460314021642
 30
0.0
 10
18.73719768600203
 20
281.8460314021642
 30
0.0
 10
18.73719768600203
 20
281.8460314021642
 30
0.0
 10
18.73719768600203
 20
281.8460314021642
 30
0.0
 10
18.73719768600203
 20
292.7900734498811
 30
0.0
 10
18.73719768600203
 20
292.7900734498811
 30
0.0
 10
18.73719768600203
 20
292.7900734498811
 30
0.0
 10
25.25532264406555
 20
292.7900734498811
 30
0.0
 10
25.25532264406555
 20
292.7900734498811
 30
0.0
  0
HATCH
  5
53
330
1F
100
AcDbEntity
  8
Layer 1
 62
    18
420
        0
100
AcDbHatch
 10
0.0
 20
0.0
 30
0.0
210
0.0
220
0.0
230
1.0
  2
SOLID
 70
     1
 71
     0
 91
        1
 92
        1
 93
        1
 72
     4
 94
        3
 73
     0
 74
     1
 95
       80
 96
       76
 40
0.0
 40
0.0
 40
0.0
 40
0.0
 40
1.0
 40
1.0
 40
1.0
 40
2.0
 40
2.0
 40
2.0
 40
3.0
 40
3.0
 40
3.0
 40
4.0
 40
4.0
 40
4.0
 40
5.0
 40
5.0
 40
5.0
 40
6.0
 40
6.0
 40
6.0
 40
7.0
 40
7.0
 40
7.0
 40
8.0
 40
8.0
 40
8.0
 40
9.0
 40
9.0
 40
9.0
 40
10.0
 40
10.0
 40
10.0
 40
11.0
 40
11.0
 40
11.0
 40
12.0
 40
12.0
 40
12.0
 40
13.0
 40
13.0
 40
13.0
 40
14.0
 40
14.0
 40
14.0
 40
15.0
 40
15.0
 40
15.0
 40
16.0
 40
16.0
 40
16.0
 40
17.0
 40
17.0
 40
17.0
 40
18.0
 40
18.0
 40
18.0
 40
19.0
 40
19.0
 40
19.0
 40
20.0
 40
20.0
 40
20.0
 40
21.0
 40
21.0
 40
21.0
 40
22.0
 40
22.0
 40
22.0
 40
23.0
 40
23.0
 40
23.0
 40
24.0
 40
24.0
 40
24.0
 40
25.0
 40
25.0
 40
25.0
 40
25.0
 10
25.25532264406555
 20
292.7900734498811
 10
27.40988678189479
 20
292.7900734498811
 10
29.15655134518136
 20
291.0242885940378
 10
29.15655134518136
 20
288.8461255365665
 10
29.15655134518136
 20
286.6681347339832
 10
27.40988678189479
 20
284.9025221330278
 10
25.25532264406555
 20
284.9025221330278
 10
25.25532264406555
 20
284.9025221330278
 10
21.89704134960449
 20
284.9025221330278
 10
21.89704134960449
 20
284.9025221330278
 10
21.89704134960449
 20
284.9025221330278
 10
21.89704134960449
 20
281.8460314021642
 10
21.89704134960449
 20
281.8460314021642
 10
21.89704134960449
 20
281.8460314021642
 10
20.49075244480453
 20
281.8460314021642
 10
20.49075244480453
 20
281.8460314021642
 10
20.49075244480453
 20
281.8460314021642
 10
20.49075244480453
 20
291.0332458482085
 10
20.49075244480453
 20
291.0332458482085
 10
20.49075244480453
 20
291.0332458482085
 10
25.18848774756109
 20
291.0332458482085
 10
25.18848774756109
 20
291.0332458482085
 10
26.40185117791519
 20
291.0332458482085
 10
27.38508207803746
 20
290.0534600458442
 10
27.38508207803746
 20
288.845264262127
 10
27.38508207803746
 20
287.6362072039704
 10
26.40185117791519
 20
286.6567659113819
 10
25.18848774756109
 20
286.6567659113819
 10
25.18848774756109
 20
286.6567659113819
 10
22.84788833080192
 20
286.6567659113819
 10
22.84788833080192
 20
286.6567659113819
 10
22.84788833080192
 20
286.6567659113819
 10
23.63888277602992
 20
288.0287760934901
 10
23.63888277602992
 20
288.0287760934901
 10
23.63888277602992
 20
288.0287760934901
 10
25.18021951294198
 20
288.0287760934901
 10
25.18021951294198
 20
288.0287760934901
 10
25.63083829968337
 20
288.0287760934901
 10
25.9967076815789
 20
288.3901668483003
 10
25.9967076815789
 20
288.8363070079563
 10
25.9967076815789
 20
289.2821026578366
 10
25.63083829968337
 20
289.6438379224226
 10
25.18021951294198
 20
289.6438379224226
 10
25.18021951294198
 20
289.6438379224226
 10
21.89704134960449
 20
289.6438379224226
 10
21.89704134960449
 20
289.6438379224226
 10
21.89704134960449
 20
289.6438379224226
 10
21.89704134960449
 20
285.008631143973
 10
21.89704134960449
 20
285.008631143973
 10
21.89704134960449
 20
285.008631143973
 10
22.59708521402231
 20
286.2226835938787
 10
22.59708521402231
 20
286.2226835938787
 10
22.59708521402231
 20
286.2226835938787
 10
25.28426146523242
 20
286.2226835938787
 10
25.28426146523242
 20
286.2226835938787
 10
26.69399546779035
 20
286.2226835938787
 10
27.83707890388203
 20
287.3962561451284
 10
27.83707890388203
 20
288.8438862230239
 10
27.83707890388203
 20
290.2916885558073
 10
26.69399546779035
 20
291.465261107057
 10
25.28426146523242
 20
291.465261107057
 10
25.28426146523242
 20
291.465261107057
 10
20.03944463851155
 20
291.465261107057
 10
20.03944463851155
 20
291.465261107057
 10
20.03944463851155
 20
291.465261107057
 10
20.03944463851155
 20
281.8460314021642
 10
20.03944463851155
 20
281.8460314021642
 10
20.03944463851155
 20
281.8460314021642
 10
18.73719768600203
 20
281.8460314021642
 10
18.73719768600203
 20
281.8460314021642
 10
18.73719768600203
 20
281.8460314021642
 10
18.73719768600203
 20
292.7900734498811
 10
18.73719768600203
 20
292.7900734498811
 10
18.73719768600203
 20
292.7900734498811
 10
25.25532264406555
 20
292.7900734498811
 10
25.25532264406555
 20
292.7900734498811
 97
        0
 75
     2
 76
     1
 98
        0
  0
SPLINE
  5
54
330
1F
100
AcDbEntity
  8
Layer 1
 62
   250
420
  2301728
370
    18
100
AcDbSpline
210
0.0
220
0.0
230
1.0
 70
    11
 71
     3
 72
    41
 73
    37
 74
     0
 42
0.0000000001
 43
0.0000000001
 40
0.0
 40
0.0
 40
0.0
 40
0.0
 40
1.0
 40
1.0
 40
1.0
 40
2.0
 40
2.0
 40
2.0
 40
3.0
 40
3.0
 40
3.0
 40
4.0
 40
4.0
 40
4.0
 40
5.0
 40
5.0
 40
5.0
 40
6.0
 40
6.0
 40
6.0
 40
7.0
 40
7.0
 40
7.0
 40
8.0
 40
8.0
 40
8.0
 40
9.0
 40
9.0
 40
9.0
 40
10.0
 40
10.0
 40
10.0
 40
11.0
 40
11.0
 40
11.0
 40
12.0
 40
12.0
 40
12.0
 40
12.0
 10
36.72956523673275
 20
285.9939291027501
 30
0.0
 10
36.31270840801938
 20
285.3972381710711
 30
0.0
 10
35.62368885642704
 20
285.006908595094
 30
0.0
 10
34.84440774357611
 20
285.006908595094
 30
0.0
 10
33.57385569043984
 20
285.006908595094
 30
0.0
 10
32.5437714608093
 20
286.0449165495679
 30
0.0
 10
32.5437714608093
 20
287.3252871313144
 30
0.0
 10
32.5437714608093
 20
288.6060022228367
 30
0.0
 10
33.57385569043984
 20
289.6438379224226
 30
0.0
 10
34.84440774357611
 20
289.6438379224226
 30
0.0
 10
34.84440774357611
 20
289.6438379224226
 30
0.0
 10
37.7761859356015
 20
289.6438379224226
 30
0.0
 10
37.7761859356015
 20
289.6438379224226
 30
0.0
 10
37.09474559907668
 20
290.4911597159933
 30
0.0
 10
36.0501919588627
 20
291.0332458482085
 30
0.0
 10
34.87954774070732
 20
291.0332458482085
 30
0.0
 10
32.82695849651375
 20
291.0332458482085
 30
0.0
 10
31.16297627941825
 20
289.3668520626825
 30
0.0
 10
31.16297627941825
 20
287.3111622305067
 30
0.0
 10
31.16297627941825
 20
285.2553001434431
 30
0.0
 10
32.82695849651375
 20
283.5885618481412
 30
0.0
 10
34.87954774070732
 20
283.5885618481412
 30
0.0
 10
36.93213698490089
 20
283.5885618481412
 30
0.0
 10
38.59680822154798
 20
285.2553001434431
 30
0.0
 10
38.59680822154798
 20
287.3111622305067
 30
0.0
 10
38.59680822154798
 20
287.3264929155297
 30
0.0
 10
38.59680822154798
 20
287.3418236005526
 30
0.0
 10
38.59611920199639
 20
287.3573265404634
 30
0.0
 10
38.59611920199639
 20
287.3573265404634
 30
0.0
 10
35.14344222896718
 20
287.3573265404634
 30
0.0
 10
35.14344222896718
 20
287.3573265404634
 30
0.0
 10
35.14344222896718
 20
287.3573265404634
 30
0.0
 10
34.35864895970351
 20
285.9939291027501
 30
0.0
 10
34.35864895970351
 20
285.9939291027501
 30
0.0
 10
34.35864895970351
 20
285.9939291027501
 30
0.0
 10
36.72956523673275
 20
285.9939291027501
 30
0.0
 10
36.72956523673275
 20
285.9939291027501
 30
0.0
  0
HATCH
  5
55
330
1F
100
AcDbEntity
  8
Layer 1
 62
    18
420
        0
100
AcDbHatch
 10
0.0
 20
0.0
 30
0.0
210
0.0
220
0.0
230
1.0
  2
SOLID
 70
     1
 71
     0
 91
        1
 92
        1
 93
        1
 72
     4
 94
        3
 73
     0
 74
     1
 95
       41
 96
       37
 40
0.0
 40
0.0
 40
0.0
 40
0.0
 40
1.0
 40
1.0
 40
1.0
 40
2.0
 40
2.0
 40
2.0
 40
3.0
 40
3.0
 40
3.0
 40
4.0
 40
4.0
 40
4.0
 40
5.0
 40
5.0
 40
5.0
 40
6.0
 40
6.0
 40
6.0
 40
7.0
 40
7.0
 40
7.0
 40
8.0
 40
8.0
 40
8.0
 40
9.0
 40
9.0
 40
9.0
 40
10.0
 40
10.0
 40
10.0
 40
11.0
 40
11.0
 40
11.0
 40
12.0
 40
12.0
 40
12.0
 40
12.0
 10
36.72956523673275
 20
285.9939291027501
 10
36.31270840801938
 20
285.3972381710711
 10
35.62368885642704
 20
285.006908595094
 10
34.84440774357611
 20
285.006908595094
 10
33.57385569043984
 20
285.006908595094
 10
32.5437714608093
 20
286.0449165495679
 10
32.5437714608093
 20
287.3252871313144
 10
32.5437714608093
 20
288.6060022228367
 10
33.57385569043984
 20
289.6438379224226
 10
34.84440774357611
 20
289.6438379224226
 10
34.84440774357611
 20
289.6438379224226
 10
37.7761859356015
 20
289.6438379224226
 10
37.7761859356015
 20
289.6438379224226
 10
37.09474559907668
 20
290.4911597159933
 10
36.0501919588627
 20
291.0332458482085
 10
34.87954774070732
 20
291.0332458482085
 10
32.82695849651375
 20
291.0332458482085
 10
31.16297627941825
 20
289.3668520626825
 10
31.16297627941825
 20
287.3111622305067
 10
31.16297627941825
 20
285.2553001434431
 10
32.82695849651375
 20
283.5885618481412
 10
34.87954774070732
 20
283.5885618481412
 10
36.93213698490089
 20
283.5885618481412
 10
38.59680822154798
 20
285.2553001434431
 10
38.59680822154798
 20
287.3111622305067
 10
38.59680822154798
 20
287.3264929155297
 10
38.59680822154798
 20
287.3418236005526
 10
38.59611920199639
 20
287.3573265404634
 10
38.59611920199639
 20
287.3573265404634
 10
35.14344222896718
 20
287.3573265404634
 10
35.14344222896718
 20
287.3573265404634
 10
35.14344222896718
 20
287.3573265404634
 10
34.35864895970351
 20
285.9939291027501
 10
34.35864895970351
 20
285.9939291027501
 10
34.35864895970351
 20
285.9939291027501
 10
36.72956523673275
 20
285.9939291027501
 10
36.72956523673275
 20
285.9939291027501
 97
        0
 75
     2
 76
     1
 98
        0
  0
SPLINE
  5
56
330
1F
100
AcDbEntity
  8
Layer 1
 62
   250
420
  2301728
370
    18
100
AcDbSpline
210
0.0
220
0.0
230
1.0
 70
    11
 71
     3
 72
    47
 73
    43
 74
     0
 42
0.0000000001
 43
0.0000000001
 40
0.0
 40
0.0
 40
0.0
 40
0.0
 40
1.0
 40
1.0
 40
1.0
 40
2.0
 40
2.0
 40
2.0
 40
3.0
 40
3.0
 40
3.0
 40
4.0
 40
4.0
 40
4.0
 40
5.0
 40
5.0
 40
5.0
 40
6.0
 40
6.0
 40
6.0
 40
7.0
 40
7.0
 40
7.0
 40
8.0
 40
8.0
 40
8.0
 40
9.0
 40
9.0
 40
9.0
 40
10.0
 40
10.0
 40
10.0
 40
11.0
 40
11.0
 40
11.0
 40
12.0
 40
12.0
 40
12.0
 40
13.0
 40
13.0
 40
13.0
 40
14.0
 40
14.0
 40
14.0
 40
14.0
 10
39.83979949262056
 20
289.6440101773105
 30
0.0
 10
38.9633666229951
 20
291.5031571823945
 30
0.0
 10
37.06856285611617
 20
292.7900734498811
 30
0.0
 10
34.87127950608821
 20
292.7900734498811
 30
0.0
 10
31.84028249863352
 20
292.7900734498811
 30
0.0
 10
29.38254975810365
 20
290.3400921793066
 30
0.0
 10
29.38254975810365
 20
287.3180524260226
 30
0.0
 10
29.38254975810365
 20
284.2961849276265
 30
0.0
 10
31.84028249863352
 20
281.8460314021642
 30
0.0
 10
34.87127950608821
 20
281.8460314021642
 30
0.0
 10
37.9022765135429
 20
281.8460314021642
 30
0.0
 10
40.35932023452118
 20
284.2961849276265
 30
0.0
 10
40.35932023452118
 20
287.3180524260226
 30
0.0
 10
40.35932023452118
 20
287.9591851187793
 30
0.0
 10
40.24838808671481
 20
288.5746518332392
 30
0.0
 10
40.04512731899507
 20
289.1465380610608
 30
0.0
 10
40.04512731899507
 20
289.1465380610608
 30
0.0
 10
36.17352645859773
 20
289.1460212963971
 30
0.0
 10
36.17352645859773
 20
289.1460212963971
 30
0.0
 10
36.17352645859773
 20
289.1460212963971
 30
0.0
 10
35.37357475919902
 20
287.7569578803869
 30
0.0
 10
35.37357475919902
 20
287.7569578803869
 30
0.0
 10
35.37357475919902
 20
287.7569578803869
 30
0.0
 10
38.99850662012631
 20
287.7569578803869
 30
0.0
 10
38.99850662012631
 20
287.7569578803869
 30
0.0
 10
39.01366505026134
 20
287.6114025001131
 30
0.0
 10
39.02193328488045
 20
287.4639523160723
 30
0.0
 10
39.02193328488045
 20
287.3144350733768
 30
0.0
 10
39.02193328488045
 20
285.0217225154533
 30
0.0
 10
37.16089147602955
 20
283.1634367848088
 30
0.0
 10
34.86714538877866
 20
283.1634367848088
 30
0.0
 10
32.57133224287299
 20
283.1634367848088
 30
0.0
 10
30.71166847312527
 20
285.0217225154533
 30
0.0
 10
30.71166847312527
 20
287.3144350733768
 30
0.0
 10
30.71166847312527
 20
289.6068031215245
 30
0.0
 10
32.57133224287299
 20
291.465261107057
 30
0.0
 10
34.86714538877866
 20
291.465261107057
 30
0.0
 10
36.29754997788435
 20
291.465261107057
 30
0.0
 10
37.55845575729833
 20
290.7433408718761
 30
0.0
 10
38.30673099032761
 20
289.6438379224226
 30
0.0
 10
38.30673099032761
 20
289.6438379224226
 30
0.0
 10
39.83979949262056
 20
289.6440101773105
 30
0.0
 10
39.83979949262056
 20
289.6440101773105
 30
0.0
  0
HATCH
  5
57
330
1F
100
AcDbEntity
  8
Layer 1
 62
    18
420
        0
100
AcDbHatch
 10
0.0
 20
0.0
 30
0.0
210
0.0
220
0.0
230
1.0
  2
SOLID
 70
     1
 71
     0
 91
        1
 92
        1
 93
        1
 72
     4
 94
        3
 73
     0
 74
     1
 95
       47
 96
       43
 40
0.0
 40
0.0
 40
0.0
 40
0.0
 40
1.0
 40
1.0
 40
1.0
 40
2.0
 40
2.0
 40
2.0
 40
3.0
 40
3.0
 40
3.0
 40
4.0
 40
4.0
 40
4.0
 40
5.0
 40
5.0
 40
5.0
 40
6.0
 40
6.0
 40
6.0
 40
7.0
 40
7.0
 40
7.0
 40
8.0
 40
8.0
 40
8.0
 40
9.0
 40
9.0
 40
9.0
 40
10.0
 40
10.0
 40
10.0
 40
11.0
 40
11.0
 40
11.0
 40
12.0
 40
12.0
 40
12.0
 40
13.0
 40
13.0
 40
13.0
 40
14.0
 40
14.0
 40
14.0
 40
14.0
 10
39.83979949262056
 20
289.6440101773105
 10
38.9633666229951
 20
291.5031571823945
 10
37.06856285611617
 20
292.7900734498811
 10
34.87127950608821
 20
292.7900734498811
 10
31.84028249863352
 20
292.7900734498811
 10
29.38254975810365
 20
290.3400921793066
 10
29.38254975810365
 20
287.3180524260226
 10
29.38254975810365
 20
284.2961849276265
 10
31.84028249863352
 20
281.8460314021642
 10
34.87127950608821
 20
281.8460314021642
 10
37.9022765135429
 20
281.8460314021642
 10
40.35932023452118
 20
284.2961849276265
 10
40.35932023452118
 20
287.3180524260226
 10
40.35932023452118
 20
287.9591851187793
 10
40.24838808671481
 20
288.5746518332392
 10
40.04512731899507
 20
289.1465380610608
 10
40.04512731899507
 20
289.1465380610608
 10
36.17352645859773
 20
289.1460212963971
 10
36.17352645859773
 20
289.1460212963971
 10
36.17352645859773
 20
289.1460212963971
 10
35.37357475919902
 20
287.7569578803869
 10
35.37357475919902
 20
287.7569578803869
 10
35.37357475919902
 20
287.7569578803869
 10
38.99850662012631
 20
287.7569578803869
 10
38.99850662012631
 20
287.7569578803869
 10
39.01366505026134
 20
287.6114025001131
 10
39.02193328488045
 20
287.4639523160723
 10
39.02193328488045
 20
287.3144350733768
 10
39.02193328488045
 20
285.0217225154533
 10
37.16089147602955
 20
283.1634367848088
 10
34.86714538877866
 20
283.1634367848088
 10
32.57133224287299
 20
283.1634367848088
 10
30.71166847312527
 20
285.0217225154533
 10
30.71166847312527
 20
287.3144350733768
 10
30.71166847312527
 20
289.6068031215245
 10
32.57133224287299
 20
291.465261107057
 10
34.86714538877866
 20
291.465261107057
 10
36.29754997788435
 20
291.465261107057
 10
37.55845575729833
 20
290.7433408718761
 10
38.30673099032761
 20
289.6438379224226
 10
38.30673099032761
 20
289.6438379224226
 10
39.83979949262056
 20
289.6440101773105
 10
39.83979949262056
 20
289.6440101773105
 97
        0
 75
     2
 76
     1
 98
        0
  0
SPLINE
  5
58
330
1F
100
AcDbEntity
  8
Layer 1
 62
   250
420
  2301728
370
    18
100
AcDbSpline
210
0.0
220
0.0
230
1.0
 70
    11
 71
     3
 72
    53
 73
    49
 74
     0
 42
0.0000000001
 43
0.0000000001
 40
0.0
 40
0.0
 40
0.0
 40
0.0
 40
1.0
 40
1.0
 40
1.0
 40
2.0
 40
2.0
 40
2.0
 40
3.0
 40
3.0
 40
3.0
 40
4.0
 40
4.0
 40
4.0
 40
5.0
 40
5.0
 40
5.0
 40
6.0
 40
6.0
 40
6.0
 40
7.0
 40
7.0
 40
7.0
 40
8.0
 40
8.0
 40
8.0
 40
9.0
 40
9.0
 40
9.0
 40
10.0
 40
10.0
 40
10.0
 40
11.0
 40
11.0
 40
11.0
 40
12.0
 40
12.0
 40
12.0
 40
13.0
 40
13.0
 40
13.0
 40
14.0
 40
14.0
 40
14.0
 40
15.0
 40
15.0
 40
15.0
 40
16.0
 40
16.0
 40
16.0
 40
16.0
 10
11.99307431501623
 20
289.9714667192047
 30
0.0
 10
12.40648604597163
 20
290.8556510587856
 30
0.0
 10
13.32012597138307
 20
291.470256498806
 30
0.0
 10
14.38190510038686
 20
291.470256498806
 30
0.0
 10
15.82953517828237
 20
291.470256498806
 30
0.0
 10
17.00293547464412
 20
290.3268285529385
 30
0.0
 10
17.00293547464412
 20
288.9172668052685
 30
0.0
 10
17.00293547464412
 20
288.9172668052685
 30
0.0
 10
17.00293547464412
 20
281.8460314021642
 30
0.0
 10
17.00293547464412
 20
281.8460314021642
 30
0.0
 10
17.00293547464412
 20
281.8460314021642
 30
0.0
 10
18.32309693549504
 20
281.8460314021642
 30
0.0
 10
18.32309693549504
 20
281.8460314021642
 30
0.0
 10
18.32309693549504
 20
281.8460314021642
 30
0.0
 10
18.32309693549504
 20
288.8885002389895
 30
0.0
 10
18.32309693549504
 20
288.8885002389895
 30
0.0
 10
18.32309693549504
 20
291.0428921219308
 30
0.0
 10
16.55713982476388
 20
292.7900734498811
 30
0.0
 10
14.3791490221805
 20
292.7900734498811
 30
0.0
 10
13.48135654645568
 20
292.7900734498811
 30
0.0
 10
12.65453308454487
 20
292.4932782780327
 30
0.0
 10
11.99169627591304
 20
291.9937391031282
 30
0.0
 10
11.99169627591304
 20
291.9937391031282
 30
0.0
 10
11.99169627591304
 20
291.9937391031282
 30
0.0
 10
11.99169627591304
 20
291.9937391031282
 30
0.0
 10
11.32885946728122
 20
292.4932782780327
 30
0.0
 10
10.50134698581882
 20
292.7900734498811
 30
0.0
 10
9.603554510094003
 20
292.7900734498811
 30
0.0
 10
7.425563707510623
 20
292.7900734498811
 30
0.0
 10
5.659606596779462
 20
291.0428921219308
 30
0.0
 10
5.659606596779462
 20
288.8885002389895
 30
0.0
 10
5.659606596779462
 20
288.8885002389895
 30
0.0
 10
5.652716401263539
 20
281.8460314021642
 30
0.0
 10
5.652716401263539
 20
281.8460314021642
 30
0.0
 10
5.652716401263539
 20
281.8460314021642
 30
0.0
 10
6.984591194491527
 20
281.8460314021642
 30
0.0
 10
6.984591194491527
 20
281.8460314021642
 30
0.0
 10
6.984591194491527
 20
281.8460314021642
 30
0.0
 10
6.984591194491527
 20
288.9172668052685
 30
0.0
 10
6.984591194491527
 20
288.9172668052685
 30
0.0
 10
6.984591194491527
 20
290.3268285529385
 30
0.0
 10
8.157302471301685
 20
291.470256498806
 30
0.0
 10
9.606310588300373
 20
291.470256498806
 30
0.0
 10
10.66808971730416
 20
291.470256498806
 30
0.0
 10
11.5817296427156
 20
290.8556510587856
 30
0.0
 10
11.99307431501623
 20
289.9714667192047
 30
0.0
 10
11.99307431501623
 20
289.9714667192047
 30
0.0
 10
11.99307431501623
 20
289.9714667192047
 30
0.0
 10
11.99307431501623
 20
289.9714667192047
 30
0.0
  0
HATCH
  5
59
330
1F
100
AcDbEntity
  8
Layer 1
 62
    18
420
        0
100
AcDbHatch
 10
0.0
 20
0.0
 30
0.0
210
0.0
220
0.0
230
1.0
  2
SOLID
 70
     1
 71
     0
 91
        1
 92
        1
 93
        1
 72
     4
 94
        3
 73
     0
 74
     1
 95
       53
 96
       49
 40
0.0
 40
0.0
 40
0.0
 40
0.0
 40
1.0
 40
1.0
 40
1.0
 40
2.0
 40
2.0
 40
2.0
 40
3.0
 40
3.0
 40
3.0
 40
4.0
 40
4.0
 40
4.0
 40
5.0
 40
5.0
 40
5.0
 40
6.0
 40
6.0
 40
6.0
 40
7.0
 40
7.0
 40
7.0
 40
8.0
 40
8.0
 40
8.0
 40
9.0
 40
9.0
 40
9.0
 40
10.0
 40
10.0
 40
10.0
 40
11.0
 40
11.0
 40
11.0
 40
12.0
 40
12.0
 40
12.0
 40
13.0
 40
13.0
 40
13.0
 40
14.0
 40
14.0
 40
14.0
 40
15.0
 40
15.0
 40
15.0
 40
16.0
 40
16.0
 40
16.0
 40
16.0
 10
11.99307431501623
 20
289.9714667192047
 10
12.40648604597163
 20
290.8556510587856
 10
13.32012597138307
 20
291.470256498806
 10
14.38190510038686
 20
291.470256498806
 10
15.82953517828237
 20
291.470256498806
 10
17.00293547464412
 20
290.3268285529385
 10
17.00293547464412
 20
288.9172668052685
 10
17.00293547464412
 20
288.9172668052685
 10
17.00293547464412
 20
281.8460314021642
 10
17.00293547464412
 20
281.8460314021642
 10
17.00293547464412
 20
281.8460314021642
 10
18.32309693549504
 20
281.8460314021642
 10
18.32309693549504
 20
281.8460314021642
 10
18.32309693549504
 20
281.8460314021642
 10
18.32309693549504
 20
288.8885002389895
 10
18.32309693549504
 20
288.8885002389895
 10
18.32309693549504
 20
291.0428921219308
 10
16.55713982476388
 20
292.7900734498811
 10
14.3791490221805
 20
292.7900734498811
 10
13.48135654645568
 20
292.7900734498811
 10
12.65453308454487
 20
292.4932782780327
 10
11.99169627591304
 20
291.9937391031282
 10
11.99169627591304
 20
291.9937391031282
 10
11.99169627591304
 20
291.9937391031282
 10
11.99169627591304
 20
291.9937391031282
 10
11.32885946728122
 20
292.4932782780327
 10
10.50134698581882
 20
292.7900734498811
 10
9.603554510094003
 20
292.7900734498811
 10
7.425563707510623
 20
292.7900734498811
 10
5.659606596779462
 20
291.0428921219308
 10
5.659606596779462
 20
288.8885002389895
 10
5.659606596779462
 20
288.8885002389895
 10
5.652716401263539
 20
281.8460314021642
 10
5.652716401263539
 20
281.8460314021642
 10
5.652716401263539
 20
281.8460314021642
 10
6.984591194491527
 20
281.8460314021642
 10
6.984591194491527
 20
281.8460314021642
 10
6.984591194491527
 20
281.8460314021642
 10
6.984591194491527
 20
288.9172668052685
 10
6.984591194491527
 20
288.9172668052685
 10
6.984591194491527
 20
290.3268285529385
 10
8.157302471301685
 20
291.470256498806
 10
9.606310588300373
 20
291.470256498806
 10
10.66808971730416
 20
291.470256498806
 10
11.5817296427156
 20
290.8556510587856
 10
11.99307431501623
 20
289.9714667192047
 10
11.99307431501623
 20
289.9714667192047
 10
11.99307431501623
 20
289.9714667192047
 10
11.99307431501623
 20
289.9714667192047
 97
        0
 75
     2
 76
     1
 98
        0
  0
SPLINE
  5
5A
330
1F
100
AcDbEntity
  8
Layer 1
 62
   250
420
  2301728
370
    18
100
AcDbSpline
210
0.0
220
0.0
230
1.0
 70
    11
 71
     3
 72
    35
 73
    31
 74
     0
 42
0.0000000001
 43
0.0000000001
 40
0.0
 40
0.0
 40
0.0
 40
0.0
 40
1.0
 40
1.0
 40
1.0
 40
2.0
 40
2.0
 40
2.0
 40
3.0
 40
3.0
 40
3.0
 40
4.0
 40
4.0
 40
4.0
 40
5.0
 40
5.0
 40
5.0
 40
6.0
 40
6.0
 40
6.0
 40
7.0
 40
7.0
 40
7.0
 40
8.0
 40
8.0
 40
8.0
 40
9.0
 40
9.0
 40
9.0
 40
10.0
 40
10.0
 40
10.0
 40
10.0
 10
16.56885315714094
 20
281.8460314021642
 30
0.0
 10
16.56885315714094
 20
281.8460314021642
 30
0.0
 10
16.56885315714094
 20
288.821665342485
 30
0.0
 10
16.56885315714094
 20
288.821665342485
 30
0.0
 10
16.56885315714094
 20
290.0350287728392
 30
0.0
 10
15.58906735477664
 20
291.0186041827372
 30
0.0
 10
14.38052706128368
 20
291.0186041827372
 30
0.0
 10
13.17198676779072
 20
291.0186041827372
 30
0.0
 10
12.19220096542642
 20
290.0350287728392
 30
0.0
 10
12.19220096542642
 20
288.821665342485
 30
0.0
 10
12.19220096542642
 20
288.821665342485
 30
0.0
 10
12.19220096542642
 20
281.8460314021642
 30
0.0
 10
12.19220096542642
 20
281.8460314021642
 30
0.0
 10
12.19220096542642
 20
281.8460314021642
 30
0.0
 10
13.58126438143657
 20
281.8460314021642
 30
0.0
 10
13.58126438143657
 20
281.8460314021642
 30
0.0
 10
13.58126438143657
 20
281.8460314021642
 30
0.0
 10
13.58126438143657
 20
288.8127080883143
 30
0.0
 10
13.58126438143657
 20
288.8127080883143
 30
0.0
 10
13.58126438143657
 20
289.2638436397194
 30
0.0
 10
13.94299964602255
 20
289.6291962569513
 30
0.0
 10
14.38948431545438
 20
289.6291962569513
 30
0.0
 10
14.83527996533462
 20
289.6291962569513
 30
0.0
 10
15.1970152299206
 20
289.2638436397194
 30
0.0
 10
15.1970152299206
 20
288.8127080883143
 30
0.0
 10
15.1970152299206
 20
288.8127080883143
 30
0.0
 10
15.1970152299206
 20
281.8460314021642
 30
0.0
 10
15.1970152299206
 20
281.8460314021642
 30
0.0
 10
15.1970152299206
 20
281.8460314021642
 30
0.0
 10
16.56885315714094
 20
281.8460314021642
 30
0.0
 10
16.56885315714094
 20
281.8460314021642
 30
0.0
  0
HATCH
  5
5B
330
1F
100
AcDbEntity
  8
Layer 1
 62
    18
420
        0
100
AcDbHatch
 10
0.0
 20
0.0
 30
0.0
210
0.0
220
0.0
230
1.0
  2
SOLID
 70
     1
 71
     0
 91
        1
 92
        1
 93
        1
 72
     4
 94
        3
 73
     0
 74
     1
 95
       35
 96
       31
 40
0.0
 40
0.0
 40
0.0
 40
0.0
 40
1.0
 40
1.0
 40
1.0
 40
2.0
 40
2.0
 40
2.0
 40
3.0
 40
3.0
 40
3.0
 40
4.0
 40
4.0
 40
4.0
 40
5.0
 40
5.0
 40
5.0
 40
6.0
 40
6.0
 40
6.0
 40
7.0
 40
7.0
 40
7.0
 40
8.0
 40
8.0
 40
8.0
 40
9.0
 40
9.0
 40
9.0
 40
10.0
 40
10.0
 40
10.0
 40
10.0
 10
16.56885315714094
 20
281.8460314021642
 10
16.56885315714094
 20
281.8460314021642
 10
16.56885315714094
 20
288.821665342485
 10
16.56885315714094
 20
288.821665342485
 10
16.56885315714094
 20
290.0350287728392
 10
15.58906735477664
 20
291.0186041827372
 10
14.38052706128368
 20
291.0186041827372
 10
13.17198676779072
 20
291.0186041827372
 10
12.19220096542642
 20
290.0350287728392
 10
12.19220096542642
 20
288.821665342485
 10
12.19220096542642
 20
288.821665342485
 10
12.19220096542642
 20
281.8460314021642
 10
12.19220096542642
 20
281.8460314021642
 10
12.19220096542642
 20
281.8460314021642
 10
13.58126438143657
 20
281.8460314021642
 10
13.58126438143657
 20
281.8460314021642
 10
13.58126438143657
 20
281.8460314021642
 10
13.58126438143657
 20
288.8127080883143
 10
13.58126438143657
 20
288.8127080883143
 10
13.58126438143657
 20
289.2638436397194
 10
13.94299964602255
 20
289.6291962569513
 10
14.38948431545438
 20
289.6291962569513
 10
14.83527996533462
 20
289.6291962569513
 10
15.1970152299206
 20
289.2638436397194
 10
15.1970152299206
 20
288.8127080883143
 10
15.1970152299206
 20
288.8127080883143
 10
15.1970152299206
 20
281.8460314021642
 10
15.1970152299206
 20
281.8460314021642
 10
15.1970152299206
 20
281.8460314021642
 10
16.56885315714094
 20
281.8460314021642
 10
16.56885315714094
 20
281.8460314021642
 97
        0
 75
     2
 76
     1
 98
        0
  0
SPLINE
  5
5C
330
1F
100
AcDbEntity
  8
Layer 1
 62
   250
420
  2301728
370
    18
100
AcDbSpline
210
0.0
220
0.0
230
1.0
 70
    11
 71
     3
 72
    35
 73
    31
 74
     0
 42
0.0000000001
 43
0.0000000001
 40
0.0
 40
0.0
 40
0.0
 40
0.0
 40
1.0
 40
1.0
 40
1.0
 40
2.0
 40
2.0
 40
2.0
 40
3.0
 40
3.0
 40
3.0
 40
4.0
 40
4.0
 40
4.0
 40
5.0
 40
5.0
 40
5.0
 40
6.0
 40
6.0
 40
6.0
 40
7.0
 40
7.0
 40
7.0
 40
8.0
 40
8.0
 40
8.0
 40
9.0
 40
9.0
 40
9.0
 40
10.0
 40
10.0
 40
10.0
 40
10.0
 10
11.79256962550286
 20
281.8460314021642
 30
0.0
 10
11.79256962550286
 20
281.8460314021642
 30
0.0
 10
11.79256962550286
 20
288.821665342485
 30
0.0
 10
11.79256962550286
 20
288.821665342485
 30
0.0
 10
11.79256962550286
 20
290.0350287728392
 30
0.0
 10
10.81278382313856
 20
291.0186041827372
 30
0.0
 10
9.604932549197187
 20
291.0186041827372
 30
0.0
 10
8.396392255704226
 20
291.0186041827372
 30
0.0
 10
7.416606453339923
 20
290.0350287728392
 30
0.0
 10
7.416606453339923
 20
288.821665342485
 30
0.0
 10
7.416606453339923
 20
288.821665342485
 30
0.0
 10
7.416606453339923
 20
281.8460314021642
 30
0.0
 10
7.416606453339923
 20
281.8460314021642
 30
0.0
 10
7.416606453339923
 20
281.8460314021642
 30
0.0
 10
8.805669869350076
 20
281.8460314021642
 30
0.0
 10
8.805669869350076
 20
281.8460314021642
 30
0.0
 10
8.805669869350076
 20
281.8460314021642
 30
0.0
 10
8.805669869350076
 20
288.8127080883143
 30
0.0
 10
8.805669869350076
 20
288.8127080883143
 30
0.0
 10
8.805669869350076
 20
289.2638436397194
 30
0.0
 10
9.167405133936054
 20
289.6291962569513
 30
0.0
 10
9.613200783816296
 20
289.6291962569513
 30
0.0
 10
10.05968545324813
 20
289.6291962569513
 30
0.0
 10
10.42073169828251
 20
289.2638436397194
 30
0.0
 10
10.42073169828251
 20
288.8127080883143
 30
0.0
 10
10.42073169828251
 20
288.8127080883143
 30
0.0
 10
10.42073169828251
 20
281.8460314021642
 30
0.0
 10
10.42073169828251
 20
281.8460314021642
 30
0.0
 10
10.42073169828251
 20
281.8460314021642
 30
0.0
 10
11.79256962550286
 20
281.8460314021642
 30
0.0
 10
11.79256962550286
 20
281.8460314021642
 30
0.0
  0
HATCH
  5
5D
330
1F
100
AcDbEntity
  8
Layer 1
 62
    18
420
        0
100
AcDbHatch
 10
0.0
 20
0.0
 30
0.0
210
0.0
220
0.0
230
1.0
  2
SOLID
 70
     1
 71
     0
 91
        1
 92
        1
 93
        1
 72
     4
 94
        3
 73
     0
 74
     1
 95
       35
 96
       31
 40
0.0
 40
0.0
 40
0.0
 40
0.0
 40
1.0
 40
1.0
 40
1.0
 40
2.0
 40
2.0
 40
2.0
 40
3.0
 40
3.0
 40
3.0
 40
4.0
 40
4.0
 40
4.0
 40
5.0
 40
5.0
 40
5.0
 40
6.0
 40
6.0
 40
6.0
 40
7.0
 40
7.0
 40
7.0
 40
8.0
 40
8.0
 40
8.0
 40
9.0
 40
9.0
 40
9.0
 40
10.0
 40
10.0
 40
10.0
 40
10.0
 10
11.79256962550286
 20
281.8460314021642
 10
11.79256962550286
 20
281.8460314021642
 10
11.79256962550286
 20
288.821665342485
 10
11.79256962550286
 20
288.821665342485
 10
11.79256962550286
 20
290.0350287728392
 10
10.81278382313856
 20
291.0186041827372
 10
9.604932549197187
 20
291.0186041827372
 10
8.396392255704226
 20
291.0186041827372
 10
7.416606453339923
 20
290.0350287728392
 10
7.416606453339923
 20
288.821665342485
 10
7.416606453339923
 20
288.821665342485
 10
7.416606453339923
 20
281.8460314021642
 10
7.416606453339923
 20
281.8460314021642
 10
7.416606453339923
 20
281.8460314021642
 10
8.805669869350076
 20
281.8460314021642
 10
8.805669869350076
 20
281.8460314021642
 10
8.805669869350076
 20
281.8460314021642
 10
8.805669869350076
 20
288.8127080883143
 10
8.805669869350076
 20
288.8127080883143
 10
8.805669869350076
 20
289.2638436397194
 10
9.167405133936054
 20
289.6291962569513
 10
9.613200783816296
 20
289.6291962569513
 10
10.05968545324813
 20
289.6291962569513
 10
10.42073169828251
 20
289.2638436397194
 10
10.42073169828251
 20
288.8127080883143
 10
10.42073169828251
 20
288.8127080883143
 10
10.42073169828251
 20
281.8460314021642
 10
10.42073169828251
 20
281.8460314021642
 10
10.42073169828251
 20
281.8460314021642
 10
11.79256962550286
 20
281.8460314021642
 10
11.79256962550286
 20
281.8460314021642
 97
        0
 75
     2
 76
     1
 98
        0
  0
ENDSEC
  0
SECTION
  2
OBJECTS
  0
DICTIONARY
  5
C
330
0
100
AcDbDictionary
281
     1
  3
ACAD_GROUP
350
D
  3
ACAD_LAYOUT
350
1A
  3
ACAD_MLINESTYLE
350
17
  3
ACAD_PLOTSETTINGS
350
19
  3
ACAD_PLOTSTYLENAME
350
E
  3
ACAD_TABLESTYLE
350
60
  3
ACAD_VISUALSTYLE
350
2A
  0
DICTIONARY
  5
D
102
{ACAD_REACTORS
330
C
102
}
330
C
100
AcDbDictionary
281
     1
  0
DICTIONARY
  5
1A
102
{ACAD_REACTORS
330
C
102
}
330
C
100
AcDbDictionary
281
     1
  3
Layout1
350
1E
  3
Layout2
350
26
  3
Model
350
22
  0
DICTIONARY
  5
17
102
{ACAD_REACTORS
330
C
102
}
330
C
100
AcDbDictionary
281
     1
  3
Standard
350
18
  0
DICTIONARY
  5
19
102
{ACAD_REACTORS
330
C
102
}
330
C
100
AcDbDictionary
281
     1
  0
ACDBDICTIONARYWDFLT
  5
E
102
{ACAD_REACTORS
330
C
102
}
330
C
100
AcDbDictionary
281
     1
  3
Normal
350
F
100
AcDbDictionaryWithDefault
340
F
  0
DICTIONARY
  5
60
102
{ACAD_REACTORS
330
C
102
}
330
C
100
AcDbDictionary
281
     1
  0
DICTIONARY
  5
2A
102
{ACAD_REACTORS
330
C
102
}
330
C
100
AcDbDictionary
281
     1
  3
2dWireframe
350
2F
  3
3D Hidden
350
31
  3
3dWireframe
350
30
  3
Basic
350
32
  3
Brighten
350
36
  3
ColorChange
350
3A
  3
Conceptual
350
34
  3
Dim
350
35
  3
Facepattern
350
39
  3
Flat
350
2B
  3
FlatWithEdges
350
2C
  3
Gouraud
350
2D
  3
GouraudWithEdges
350
2E
  3
Linepattern
350
38
  3
Realistic
350
33
  3
Thicken
350
37
  0
LAYOUT
  5
1E
102
{ACAD_REACTORS
330
1A
102
}
330
1A
100
AcDbPlotSettings
  1

  2
none_device
  4

  6

 40
0.0
 41
0.0
 42
0.0
 43
0.0
 44
0.0
 45
0.0
 46
0.0
 47
0.0
 48
0.0
 49
0.0
140
0.0
141
0.0
142
1.0
143
1.0
 70
   688
 72
     0
 73
     0
 74
     5
  7

 75
    16
 76
     0
 77
     2
 78
   300
147
1.0
148
0.0
149
0.0
100
AcDbLayout
  1
Layout1
 70
     1
 71
     1
 10
0.0
 20
0.0
 11
12.0
 21
9.0
 12
0.0
 22
0.0
 32
0.0
 14
1.000000000000000E+20
 24
1.000000000000000E+20
 34
1.000000000000000E+20
 15
-1.000000000000000E+20
 25
-1.000000000000000E+20
 35
-1.000000000000000E+20
146
0.0
 13
0.0
 23
0.0
 33
0.0
 16
1.0
 26
0.0
 36
0.0
 17
0.0
 27
1.0
 37
0.0
 76
     0
330
1B
  0
LAYOUT
  5
26
102
{ACAD_REACTORS
330
1A
102
}
330
1A
100
AcDbPlotSettings
  1

  2
none_device
  4

  6

 40
0.0
 41
0.0
 42
0.0
 43
0.0
 44
0.0
 45
0.0
 46
0.0
 47
0.0
 48
0.0
 49
0.0
140
0.0
141
0.0
142
1.0
143
1.0
 70
   688
 72
     0
 73
     0
 74
     5
  7

 75
    16
 76
     0
 77
     2
 78
   300
147
1.0
148
0.0
149
0.0
100
AcDbLayout
  1
Layout2
 70
     1
 71
     2
 10
0.0
 20
0.0
 11
0.0
 21
0.0
 12
0.0
 22
0.0
 32
0.0
 14
0.0
 24
0.0
 34
0.0
 15
0.0
 25
0.0
 35
0.0
146
0.0
 13
0.0
 23
0.0
 33
0.0
 16
1.0
 26
0.0
 36
0.0
 17
0.0
 27
1.0
 37
0.0
 76
     0
330
23
  0
LAYOUT
  5
22
102
{ACAD_REACTORS
330
1A
102
}
330
1A
100
AcDbPlotSettings
  1

  2
none_device
  4

  6

 40
0.0
 41
0.0
 42
0.0
 43
0.0
 44
0.0
 45
0.0
 46
0.0
 47
0.0
 48
0.0
 49
0.0
140
0.0
141
0.0
142
1.0
143
1.0
 70
  1712
 72
     0
 73
     0
 74
     0
  7

 75
     0
 76
     0
 77
     2
 78
   300
147
1.0
148
0.0
149
0.0
100
AcDbLayout
  1
Model
 70
     1
 71
     0
 10
0.0
 20
0.0
 11
12.0
 21
9.0
 12
0.0
 22
0.0
 32
0.0
 14
1.000000000000000E+20
 24
1.000000000000000E+20
 34
1.000000000000000E+20
 15
-1.000000000000000E+20
 25
-1.000000000000000E+20
 35
-1.000000000000000E+20
146
0.0
 13
0.0
 23
0.0
 33
0.0
 16
1.0
 26
0.0
 36
0.0
 17
0.0
 27
1.0
 37
0.0
 76
     0
330
1F
331
29
  0
MLINESTYLE
  5
18
102
{ACAD_REACTORS
330
17
102
}
330
17
100
AcDbMlineStyle
  2
Standard
 70
     0
  3

 62
   256
 51
90.0
 52
90.0
 71
     2
 49
0.5
 62
   256
  6
BYLAYER
 49
-0.5
 62
   256
  6
BYLAYER
  0
ACDBPLACEHOLDER
  5
F
102
{ACAD_REACTORS
330
E
102
}
330
E
  0
VISUALSTYLE
  5
2F
102
{ACAD_REACTORS
330
2A
102
}
330
2A
100
AcDbVisualStyle
  2
2dWireframe
 70
     4
 71
     0
 72
     2
 73
     0
 90
        0
 40
-0.6
 41
-30.0
 62
     5
 63
     7
421
 16777215
 74
     1
 91
        4
 64
     7
 65
   257
 75
     1
175
     1
 42
1.0
 92
        0
 66
   257
 43
1.0
 76
     1
 77
     6
 78
     2
 67
     7
 79
     5
170
     0
171
     0
290
     0
174
     0
 93
        1
 44
0.0
173
     0
291
     0
 45
0.0
1001
ACAD
1000
AcDbSavedByObjectVersion
1070
     0
  0
VISUALSTYLE
  5
31
102
{ACAD_REACTORS
330
2A
102
}
330
2A
100
AcDbVisualStyle
  2
3D Hidden
 70
     6
 71
     1
 72
     2
 73
     2
 90
        0
 40
-0.6
 41
-30.0
 62
     5
 63
     7
421
 16777215
 74
     2
 91
        2
 64
     7
 65
   257
 75
     2
175
     1
 42
40.0
 92
        0
 66
   257
 43
1.0
 76
     1
 77
     6
 78
     2
 67
     7
 79
     3
170
     0
171
     0
290
     0
174
     0
 93
        1
 44
0.0
173
     0
291
     0
 45
0.0
1001
ACAD
1000
AcDbSavedByObjectVersion
1070
     0
  0
VISUALSTYLE
  5
30
102
{ACAD_REACTORS
330
2A
102
}
330
2A
100
AcDbVisualStyle
  2
3dWireframe
 70
     5
 71
     0
 72
     2
 73
     0
 90
        0
 40
-0.6
 41
-30.0
 62
     5
 63
     7
421
 16777215
 74
     1
 91
        4
 64
     7
 65
   257
 75
     1
175
     1
 42
1.0
 92
        0
 66
   257
 43
1.0
 76
     1
 77
     6
 78
     2
 67
     7
 79
     5
170
     0
171
     0
290
     0
174
     0
 93
        1
 44
0.0
173
     0
291
     0
 45
0.0
1001
ACAD
1000
AcDbSavedByObjectVersion
1070
     0
  0
VISUALSTYLE
  5
32
102
{ACAD_REACTORS
330
2A
102
}
330
2A
100
AcDbVisualStyle
  2
Basic
 70
     7
 71
     1
 72
     0
 73
     1
 90
        0
 40
-0.6
 41
-30.0
 62
     5
 63
     7
421
 16777215
 74
     0
 91
        4
 64
     7
 65
   257
 75
     1
175
     1
 42
1.0
 92
        8
 66
     7
 43
1.0
 76
     1
 77
     6
 78
     2
 67
     7
 79
     5
170
     0
171
     0
290
     0
174
     0
 93
        1
 44
0.0
173
     0
291
     1
 45
0.0
1001
ACAD
1000
AcDbSavedByObjectVersion
1070
     0
  0
VISUALSTYLE
  5
36
102
{ACAD_REACTORS
330
2A
102
}
330
2A
100
AcDbVisualStyle
  2
Brighten
 70
    12
 71
     2
 72
     2
 73
     0
 90
        0
 40
-0.6
 41
-30.0
 62
     5
 63
     7
421
 16777215
 74
     1
 91
        4
 64
     7
 65
   257
 75
     1
175
     1
 42
1.0
 92
        8
 66
     7
 43
1.0
 76
     1
 77
     6
 78
     2
 67
     7
 79
     5
170
     0
171
     0
290
     0
174
     0
 93
        1
 44
50.0
173
     0
291
     1
 45
0.0
1001
ACAD
1000
AcDbSavedByObjectVersion
1070
     0
  0
VISUALSTYLE
  5
3A
102
{ACAD_REACTORS
330
2A
102
}
330
2A
100
AcDbVisualStyle
  2
ColorChange
 70
    16
 71
     2
 72
     2
 73
     3
 90
        0
 40
-0.6
 41
-30.0
 62
     5
 63
     8
421
  8421504
 74
     1
 91
        4
 64
     7
 65
   257
 75
     1
175
     1
 42
1.0
 92
        8
 66
     8
424
  8421504
 43
1.0
 76
     1
 77
     6
 78
     2
 67
     7
 79
     5
170
     0
171
     0
290
     0
174
     0
 93
        1
 44
0.0
173
     0
291
     1
 45
0.0
1001
ACAD
1000
AcDbSavedByObjectVersion
1070
     0
  0
VISUALSTYLE
  5
34
102
{ACAD_REACTORS
330
2A
102
}
330
2A
100
AcDbVisualStyle
  2
Conceptual
 70
     9
 71
     3
 72
     2
 73
     0
 90
        0
 40
-0.6
 41
-30.0
 62
     5
 63
     7
421
 16777215
 74
     2
 91
        2
 64
     7
 65
   257
 75
     1
175
     1
 42
40.0
 92
        8
 66
     7
 43
1.0
 76
     1
 77
     6
 78
     2
 67
     7
 79
     3
170
     0
171
     0
290
     0
174
     0
 93
        1
 44
0.0
173
     0
291
     0
 45
0.0
1001
ACAD
1000
AcDbSavedByObjectVersion
1070
     0
  0
VISUALSTYLE
  5
35
102
{ACAD_REACTORS
330
2A
102
}
330
2A
100
AcDbVisualStyle
  2
Dim
 70
    11
 71
     2
 72
     2
 73
     0
 90
        0
 40
-0.6
 41
-30.0
 62
     5
 63
     7
421
 16777215
 74
     1
 91
        4
 64
     7
 65
   257
 75
     1
175
     1
 42
1.0
 92
        8
 66
     7
 43
1.0
 76
     1
 77
     6
 78
     2
 67
     7
 79
     5
170
     0
171
     0
290
     0
174
     0
 93
        1
 44
-50.0
173
     0
291
     1
 45
0.0
1001
ACAD
1000
AcDbSavedByObjectVersion
1070
     0
  0
VISUALSTYLE
  5
39
102
{ACAD_REACTORS
330
2A
102
}
330
2A
100
AcDbVisualStyle
  2
Facepattern
 70
    15
 71
     2
 72
     2
 73
     0
 90
        0
 40
-0.6
 41
-30.0
 62
     5
 63
     7
421
 16777215
 74
     1
 91
        4
 64
     7
 65
   257
 75
     1
175
     1
 42
1.0
 92
        8
 66
     7
 43
1.0
 76
     1
 77
     6
 78
     2
 67
     7
 79
     5
170
     0
171
     0
290
     0
174
     0
 93
        1
 44
0.0
173
     0
291
     1
 45
0.0
1001
ACAD
1000
AcDbSavedByObjectVersion
1070
     0
  0
VISUALSTYLE
  5
2B
102
{ACAD_REACTORS
330
2A
102
}
330
2A
100
AcDbVisualStyle
  2
Flat
 70
     0
 71
     2
 72
     1
 73
     1
 90
        2
 40
-0.6
 41
30.0
 62
     5
 63
     7
421
 16777215
 74
     0
 91
        4
 64
     7
 65
   257
 75
     1
175
     1
 42
1.0
 92
        8
 66
     7
 43
1.0
 76
     1
 77
     6
 78
     2
 67
     7
 79
     5
170
     0
171
     0
290
     0
174
     0
 93
       13
 44
0.0
173
     0
291
     1
 45
0.0
1001
ACAD
1000
AcDbSavedByObjectVersion
1070
     0
  0
VISUALSTYLE
  5
2C
102
{ACAD_REACTORS
330
2A
102
}
330
2A
100
AcDbVisualStyle
  2
FlatWithEdges
 70
     1
 71
     2
 72
     1
 73
     1
 90
        2
 40
-0.6
 41
30.0
 62
     5
 63
     7
421
 16777215
 74
     1
 91
        4
 64
     7
 65
   257
 75
     1
175
     1
 42
1.0
 92
        0
 66
   257
 43
1.0
 76
     1
 77
     6
 78
     2
 67
     7
 79
     5
170
     0
171
     0
290
     0
174
     0
 93
       13
 44
0.0
173
     0
291
     1
 45
0.0
1001
ACAD
1000
AcDbSavedByObjectVersion
1070
     0
  0
VISUALSTYLE
  5
2D
102
{ACAD_REACTORS
330
2A
102
}
330
2A
100
AcDbVisualStyle
  2
Gouraud
 70
     2
 71
     2
 72
     2
 73
     1
 90
        2
 40
-0.6
 41
30.0
 62
     5
 63
     7
421
 16777215
 74
     0
 91
        4
 64
     7
 65
   257
 75
     1
175
     1
 42
1.0
 92
        0
 66
     7
 43
1.0
 76
     1
 77
     6
 78
     2
 67
     7
 79
     5
170
     0
171
     0
290
     0
174
     0
 93
       13
 44
0.0
173
     0
291
     1
 45
0.0
1001
ACAD
1000
AcDbSavedByObjectVersion
1070
     0
  0
VISUALSTYLE
  5
2E
102
{ACAD_REACTORS
330
2A
102
}
330
2A
100
AcDbVisualStyle
  2
GouraudWithEdges
 70
     3
 71
     2
 72
     2
 73
     1
 90
        2
 40
-0.6
 41
30.0
 62
     5
 63
     7
421
 16777215
 74
     1
 91
        4
 64
     7
 65
   257
 75
     1
175
     1
 42
1.0
 92
        0
 66
   257
 43
1.0
 76
     1
 77
     6
 78
     2
 67
     7
 79
     5
170
     0
171
     0
290
     0
174
     0
 93
       13
 44
0.0
173
     0
291
     1
 45
0.0
1001
ACAD
1000
AcDbSavedByObjectVersion
1070
     0
  0
VISUALSTYLE
  5
38
102
{ACAD_REACTORS
330
2A
102
}
330
2A
100
AcDbVisualStyle
  2
Linepattern
 70
    14
 71
     2
 72
     2
 73
     0
 90
        0
 40
-0.6
 41
-30.0
 62
     5
 63
     7
421
 16777215
 74
     1
 91
        4
 64
     7
 65
   257
 75
     7
175
     7
 42
1.0
 92
        8
 66
     7
 43
1.0
 76
     1
 77
     6
 78
     2
 67
     7
 79
     5
170
     0
171
     0
290
     0
174
     0
 93
        1
 44
0.0
173
     0
291
     1
 45
0.0
1001
ACAD
1000
AcDbSavedByObjectVersion
1070
     0
  0
VISUALSTYLE
  5
33
102
{ACAD_REACTORS
330
2A
102
}
330
2A
100
AcDbVisualStyle
  2
Realistic
 70
     8
 71
     2
 72
     2
 73
     0
 90
        0
 40
-0.6
 41
-30.0
 62
     5
 63
     7
421
 16777215
 74
     1
 91
        0
 64
     7
 65
   257
 75
     1
175
     1
 42
1.0
 92
        8
 66
     8
424
  7895160
 43
1.0
 76
     1
 77
     6
 78
     2
 67
     7
 79
     5
170
     0
171
     0
290
     0
174
     0
 93
       13
 44
0.0
173
     0
291
     0
 45
0.0
1001
ACAD
1000
AcDbSavedByObjectVersion
1070
     0
  0
VISUALSTYLE
  5
37
102
{ACAD_REACTORS
330
2A
102
}
330
2A
100
AcDbVisualStyle
  2
Thicken
 70
    13
 71
     2
 72
     2
 73
     0
 90
        0
 40
-0.6
 41
-30.0
 62
     5
 63
     7
421
 16777215
 74
     1
 91
        4
 64
     7
 65
   257
 75
     1
175
     1
 42
1.0
 92
       12
 66
     7
 43
1.0
 76
     1
 77
     6
 78
     2
 67
     7
 79
     5
170
     0
171
     0
290
     0
174
     0
 93
        1
 44
0.0
173
     0
291
     1
 45
0.0
1001
ACAD
1000
AcDbSavedByObjectVersion
1070
     0
  0
ENDSEC
  0
EOF
