  0
SECTION
  2
HEADER
  9
$ACADVER
  1
AC1018
  9
$ACADMAINTVER
 70
     0
  9
$DWGCODEPAGE
  3
ASCII
  9
$INSBASE
 10
0.0
 20
0.0
 30
0.0
  9
$EXTMIN
 10
1.000000000000000E+20
 20
1.000000000000000E+20
 30
1.000000000000000E+20
  9
$EXTMAX
 10
-1.000000000000000E+20
 20
-1.000000000000000E+20
 30
-1.000000000000000E+20
  9
$LIMMIN
 10
0.0
 20
0.0
  9
$LIMMAX
 10
12.0
 20
9.0
  9
$ORTHOMODE
 70
     0
  9
$REGENMODE
 70
     1
  9
$FILLMODE
 70
     1
  9
$QTEXTMODE
 70
     0
  9
$MIRRTEXT
 70
     1
  9
$LTSCALE
 40
1.0
  9
$ATTMODE
 70
     1
  9
$TEXTSIZE
 40
0.2
  9
$TRACEWID
 40
0.05
  9
$TEXTSTYLE
  7
Standard
  9
$CLAYER
  8
0
  9
$CELTYPE
  6
ByLayer
  9
$CECOLOR
 62
   256
  9
$CELTSCALE
 40
1.0
  9
$DISPSILH
 70
     0
  9
$DIMSCALE
 40
1.0
  9
$DIMASZ
 40
0.18
  9
$DIMEXO
 40
0.0625
  9
$DIMDLI
 40
0.38
  9
$DIMRND
 40
0.0
  9
$DIMDLE
 40
0.0
  9
$DIMEXE
 40
0.18
  9
$DIMTP
 40
0.0
  9
$DIMTM
 40
0.0
  9
$DIMTXT
 40
0.18
  9
$DIMCEN
 40
0.09
  9
$DIMTSZ
 40
0.0
  9
$DIMTOL
 70
     0
  9
$DIMLIM
 70
     0
  9
$DIMTIH
 70
     1
  9
$DIMTOH
 70
     1
  9
$DIMSE1
 70
     0
  9
$DIMSE2
 70
     0
  9
$DIMTAD
 70
     0
  9
$DIMZIN
 70
     0
  9
$DIMBLK
  1

  9
$DIMASO
 70
     1
  9
$DIMSHO
 70
     1
  9
$DIMPOST
  1

  9
$DIMAPOST
  1

  9
$DIMALT
 70
     0
  9
$DIMALTD
 70
     2
  9
$DIMALTF
 40
25.4
  9
$DIMLFAC
 40
1.0
  9
$DIMTOFL
 70
     0
  9
$DIMTVP
 40
0.0
  9
$DIMTIX
 70
     0
  9
$DIMSOXD
 70
     0
  9
$DIMSAH
 70
     0
  9
$DIMBLK1
  1

  9
$DIMBLK2
  1

  9
$DIMSTYLE
  2
Standard
  9
$DIMCLRD
 70
     0
  9
$DIMCLRE
 70
     0
  9
$DIMCLRT
 70
     0
  9
$DIMTFAC
 40
1.0
  9
$DIMGAP
 40
0.09
  9
$DIMJUST
 70
     0
  9
$DIMSD1
 70
     0
  9
$DIMSD2
 70
     0
  9
$DIMTOLJ
 70
     1
  9
$DIMTZIN
 70
     0
  9
$DIMALTZ
 70
     0
  9
$DIMALTTZ
 70
     0
  9
$DIMUPT
 70
     0
  9
$DIMDEC
 70
     4
  9
$DIMTDEC
 70
     4
  9
$DIMALTU
 70
     2
  9
$DIMALTTD
 70
     2
  9
$DIMTXSTY
  7
Standard
  9
$DIMAUNIT
 70
     0
  9
$DIMADEC
 70
     0
  9
$DIMALTRND
 40
0.0
  9
$DIMAZIN
 70
     0
  9
$DIMDSEP
 70
    46
  9
$DIMATFIT
 70
     3
  9
$DIMFRAC
 70
     0
  9
$DIMLDRBLK
  1

  9
$DIMLUNIT
 70
     2
  9
$DIMLWD
 70
    -2
  9
$DIMLWE
 70
    -2
  9
$DIMTMOVE
 70
     0
  9
$LUNITS
 70
     2
  9
$LUPREC
 70
     4
  9
$SKETCHINC
 40
0.1
  9
$FILLETRAD
 40
0.5
  9
$AUNITS
 70
     0
  9
$AUPREC
 70
     0
  9
$MENU
  1
.
  9
$ELEVATION
 40
0.0
  9
$PELEVATION
 40
0.0
  9
$THICKNESS
 40
0.0
  9
$LIMCHECK
 70
     0
  9
$CHAMFERA
 40
0.5
  9
$CHAMFERB
 40
0.5
  9
$CHAMFERC
 40
1.0
  9
$CHAMFERD
 40
0.0
  9
$SKPOLY
 70
     0
  9
$TDCREATE
 40
2456361.731890301
  9
$TDUCREATE
 40
2456361.690223634
  9
$TDUPDATE
 40
2456361.731890312
  9
$TDUUPDATE
 40
2456361.690223646
  9
$TDINDWG
 40
0.0000000116
  9
$TDUSRTIMER
 40
0.0000000116
  9
$USRTIMER
 70
     1
  9
$ANGBASE
 50
0.0
  9
$ANGDIR
 70
     0
  9
$PDMODE
 70
     0
  9
$PDSIZE
 40
0.0
  9
$PLINEWID
 40
0.0
  9
$SPLFRAME
 70
     0
  9
$SPLINETYPE
 70
     6
  9
$SPLINESEGS
 70
     8
  9
$HANDSEED
  5
61
  9
$SURFTAB1
 70
     6
  9
$SURFTAB2
 70
     6
  9
$SURFTYPE
 70
     6
  9
$SURFU
 70
     6
  9
$SURFV
 70
     6
  9
$UCSBASE
  2

  9
$UCSNAME
  2

  9
$UCSORG
 10
0.0
 20
0.0
 30
0.0
  9
$UCSXDIR
 10
1.0
 20
0.0
 30
0.0
  9
$UCSYDIR
 10
0.0
 20
1.0
 30
0.0
  9
$UCSORTHOREF
  2

  9
$UCSORTHOVIEW
 70
     0
  9
$UCSORGTOP
 10
0.0
 20
0.0
 30
0.0
  9
$UCSORGBOTTOM
 10
0.0
 20
0.0
 30
0.0
  9
$UCSORGLEFT
 10
0.0
 20
0.0
 30
0.0
  9
$UCSORGRIGHT
 10
0.0
 20
0.0
 30
0.0
  9
$UCSORGFRONT
 10
0.0
 20
0.0
 30
0.0
  9
$UCSORGBACK
 10
0.0
 20
0.0
 30
0.0
  9
$PUCSBASE
  2

  9
$PUCSNAME
  2

  9
$PUCSORG
 10
0.0
 20
0.0
 30
0.0
  9
$PUCSXDIR
 10
1.0
 20
0.0
 30
0.0
  9
$PUCSYDIR
 10
0.0
 20
1.0
 30
0.0
  9
$PUCSORTHOREF
  2

  9
$PUCSORTHOVIEW
 70
     0
  9
$PUCSORGTOP
 10
0.0
 20
0.0
 30
0.0
  9
$PUCSORGBOTTOM
 10
0.0
 20
0.0
 30
0.0
  9
$PUCSORGLEFT
 10
0.0
 20
0.0
 30
0.0
  9
$PUCSORGRIGHT
 10
0.0
 20
0.0
 30
0.0
  9
$PUCSORGFRONT
 10
0.0
 20
0.0
 30
0.0
  9
$PUCSORGBACK
 10
0.0
 20
0.0
 30
0.0
  9
$USERI1
 70
     0
  9
$USERI2
 70
     0
  9
$USERI3
 70
     0
  9
$USERI4
 70
     0
  9
$USERI5
 70
     0
  9
$USERR1
 40
0.0
  9
$USERR2
 40
0.0
  9
$USERR3
 40
0.0
  9
$USERR4
 40
0.0
  9
$USERR5
 40
0.0
  9
$WORLDVIEW
 70
     1
  9
$SHADEDGE
 70
     3
  9
$SHADEDIF
 70
    70
  9
$TILEMODE
 70
     1
  9
$MAXACTVP
 70
    64
  9
$PINSBASE
 10
0.0
 20
0.0
 30
0.0
  9
$PLIMCHECK
 70
     0
  9
$PEXTMIN
 10
1.000000000000000E+20
 20
1.000000000000000E+20
 30
1.000000000000000E+20
  9
$PEXTMAX
 10
-1.000000000000000E+20
 20
-1.000000000000000E+20
 30
-1.000000000000000E+20
  9
$PLIMMIN
 10
0.0
 20
0.0
  9
$PLIMMAX
 10
12.0
 20
9.0
  9
$UNITMODE
 70
     0
  9
$VISRETAIN
 70
     1
  9
$PLINEGEN
 70
     0
  9
$PSLTSCALE
 70
     1
  9
$TREEDEPTH
 70
  3020
  9
$CMLSTYLE
  2
Standard
  9
$CMLJUST
 70
     0
  9
$CMLSCALE
 40
1.0
  9
$PROXYGRAPHICS
 70
     1
  9
$MEASUREMENT
 70
     0
  9
$CELWEIGHT
370
    -1
  9
$ENDCAPS
280
     0
  9
$JOINSTYLE
280
     0
  9
$LWDISPLAY
290
     1
  9
$INSUNITS
 70
     1
  9
$HYPERLINKBASE
  1

  9
$STYLESHEET
  1

  9
$XEDIT
290
     1
  9
$CEPSNTYPE
380
     0
  9
$PSTYLEMODE
290
     1
  9
$FINGERPRINTGUID
  2
{59A79059-F9E5-42D2-8FE1-AADF2A970236}
  9
$VERSIONGUID
  2
{FAEB1C32-E019-11D5-929B-00C0DF256EC4}
  9
$EXTNAMES
290
     1
  9
$PSVPSCALE
 40
0.0
  9
$OLESTARTUP
290
     0
  9
$SORTENTS
280
   127
  9
$INDEXCTL
280
     0
  9
$HIDETEXT
280
     1
  9
$XCLIPFRAME
290
     0
  9
$HALOGAP
280
     0
  9
$OBSCOLOR
 70
   257
  9
$OBSLTYPE
280
     0
  9
$INTERSECTIONDISPLAY
280
     0
  9
$INTERSECTIONCOLOR
 70
   257
  9
$DIMASSOC
280
     2
  9
$PROJECTNAME
  1

  0
ENDSEC
  0
SECTION
  2
CLASSES
  0
CLASS
  1
ACDBDICTIONARYWDFLT
  2
AcDbDictionaryWithDefault
  3
ObjectDBX Classes
 90
        0
 91
        3
280
     0
281
     0
  0
CLASS
  1
VISUALSTYLE
  2
AcDbVisualStyle
  3
ObjectDBX Classes
 90
     4095
 91
        3
280
     0
281
     0
  0
ENDSEC
  0
SECTION
  2
TABLES
  0
TABLE
  2
VPORT
  5
8
330
0
100
AcDbSymbolTable
 70
     1
  0
VPORT
  5
29
330
8
100
AcDbSymbolTableRecord
100
AcDbViewportTableRecord
  2
*Active
 70
     0
 10
0.0
 20
0.0
 11
1.0
 21
1.0
 12
0.0
 22
0.0
 13
0.0
 23
0.0
 14
0.5
 24
0.5
 15
0.5
 25
0.5
 16
0.0
 26
0.0
 36
1.0
 17
105.0008952513716
 27
148.5000775824991
 37
0.0
 40
297.0001551649982
 41
0.7070763662937379
 42
50.0
 43
0.0
 44
0.0
 50
0.0
 51
0.0
 71
     0
 72
   100
 73
     1
 74
     3
 75
     0
 76
     0
 77
     0
 78
     0
281
     0
 65
     1
110
0.0
120
0.0
130
0.0
111
1.0
121
0.0
131
0.0
112
0.0
122
1.0
132
0.0
 79
     0
146
0.0
  0
ENDTAB
  0
TABLE
  2
LTYPE
  5
5
330
0
100
AcDbSymbolTable
 70
     1
  0
LTYPE
  5
14
330
5
100
AcDbSymbolTableRecord
100
AcDbLinetypeTableRecord
  2
ByBlock
 70
     0
  3

 72
    65
 73
     0
 40
0.0
  0
LTYPE
  5
15
330
5
100
AcDbSymbolTableRecord
100
AcDbLinetypeTableRecord
  2
ByLayer
 70
     0
  3

 72
    65
 73
     0
 40
0.0
  0
LTYPE
  5
16
330
5
100
AcDbSymbolTableRecord
100
AcDbLinetypeTableRecord
  2
Continuous
 70
     0
  3
Solid line
 72
    65
 73
     0
 40
0.0
  0
ENDTAB
  0
TABLE
  2
LAYER
  5
2
330
0
100
AcDbSymbolTable
 70
     2
  0
LAYER
  5
10
330
2
100
AcDbSymbolTableRecord
100
AcDbLayerTableRecord
  2
0
 70
     0
 62
     7
  6
Continuous
370
    -3
390
F
  0
LAYER
  5
3B
330
2
100
AcDbSymbolTableRecord
100
AcDbLayerTableRecord
  2
Layer 1
 70
     0
 62
     7
  6
Continuous
370
    -3
390
F
  0
ENDTAB
  0
TABLE
  2
STYLE
  5
3
330
0
100
AcDbSymbolTable
 70
     1
  0
STYLE
  5
11
330
3
100
AcDbSymbolTableRecord
100
AcDbTextStyleTableRecord
  2
Standard
 70
     0
 40
0.0
 41
1.0
 50
0.0
 71
     0
 42
0.2
  3
txt
  4

  0
ENDTAB
  0
TABLE
  2
VIEW
  5
6
330
0
100
AcDbSymbolTable
 70
     0
  0
ENDTAB
  0
TABLE
  2
UCS
  5
7
330
0
100
AcDbSymbolTable
 70
     0
  0
ENDTAB
  0
TABLE
  2
APPID
  5
9
330
0
100
AcDbSymbolTable
 70
     1
  0
APPID
  5
12
330
9
100
AcDbSymbolTableRecord
100
AcDbRegAppTableRecord
  2
ACAD
 70
     0
  0
ENDTAB
  0
TABLE
  2
DIMSTYLE
  5
A
330
0
100
AcDbSymbolTable
 70
     1
100
AcDbDimStyleTable
  0
DIMSTYLE
105
27
330
A
100
AcDbSymbolTableRecord
100
AcDbDimStyleTableRecord
  2
Standard
 70
     0
340
11
  0
ENDTAB
  0
TABLE
  2
BLOCK_RECORD
  5
1
330
0
100
AcDbSymbolTable
 70
     1
  0
BLOCK_RECORD
  5
1F
330
1
100
AcDbSymbolTableRecord
100
AcDbBlockTableRecord
  2
*Model_Space
340
22
  0
BLOCK_RECORD
  5
1B
330
1
100
AcDbSymbolTableRecord
100
AcDbBlockTableRecord
  2
*Paper_Space
340
1E
  0
BLOCK_RECORD
  5
23
330
1
100
AcDbSymbolTableRecord
100
AcDbBlockTableRecord
  2
*Paper_Space0
340
26
  0
ENDTAB
  0
ENDSEC
  0
SECTION
  2
BLOCKS
  0
BLOCK
  5
20
330
1F
100
AcDbEntity
  8
0
100
AcDbBlockBegin
  2
*Model_Space
 70
     0
 71
     0
 10
0.0
 20
0.0
 30
0.0
  3
*Model_Space
  1

  0
ENDBLK
  5
21
330
1F
100
AcDbEntity
  8
0
100
AcDbBlockEnd
  0
BLOCK
  5
1C
330
1B
100
AcDbEntity
 67
     1
  8
0
100
AcDbBlockBegin
  2
*Paper_Space
 70
     0
 71
     0
 10
0.0
 20
0.0
 30
0.0
  3
*Paper_Space
  1

  0
ENDBLK
  5
1D
330
1B
100
AcDbEntity
 67
     1
  8
0
100
AcDbBlockEnd
  0
BLOCK
  5
24
330
23
100
AcDbEntity
  8
0
100
AcDbBlockBegin
  2
*Paper_Space0
 70
     0
 71
     0
 10
0.0
 20
0.0
 30
0.0
  3
*Paper_Space0
  1

  0
ENDBLK
  5
25
330
23
100
AcDbEntity
  8
0
100
AcDbBlockEnd
  0
ENDSEC
  0
SECTION
  2
ENTITIES
  0
POLYLINE
  5
3C
330
1F
100
AcDbEntity
  8
Layer 1
 62
   250
420
  2301728
370
    18
100
AcDb2dPolyline
 66
     1
 10
0.0
 20
0.0
 30
0.0
  0
VERTEX
  5
3D
330
3C
100
AcDbEntity
  8
Layer 1
 62
   250
420
  2301728
370
    18
100
AcDbVertex
100
AcDb2dVertex
 10
19.34560195005806
 20
285.9103854821195
 30
0.0
  0
VERTEX
  5
5E
330
3C
100
AcDbEntity
  8
0
100
AcDbVertex
100
AcDb2dVertex
 10
19.34560195005806
 20
285.9103854821195
 30
0.0
  0
SEQEND
  5
3E
330
3C
100
AcDbEntity
  8
Layer 1
370
    18
  0
POLYLINE
  5
3F
330
1F
100
AcDbEntity
  8
Layer 1
 62
   250
420
  2301728
370
    18
100
AcDb2dPolyline
 66
     1
 10
0.0
 20
0.0
 30
0.0
  0
VERTEX
  5
40
330
3F
100
AcDbEntity
  8
Layer 1
 62
   250
420
  2301728
370
    18
100
AcDbVertex
100
AcDb2dVertex
 10
21.57389117990769
 20
289.3058738323666
 30
0.0
  0
VERTEX
  5
5F
330
3F
100
AcDbEntity
  8
0
100
AcDbVertex
100
AcDb2dVertex
 10
21.57389117990769
 20
289.3058738323666
 30
0.0
  0
SEQEND
  5
41
330
3F
100
AcDbEntity
  8
Layer 1
370
    18
  0
SPLINE
  5
42
330
1F
100
AcDbEntity
  8
Layer 1
 62
   250
420
  2301728
370
    18
100
AcDbSpline
210
0.0
220
0.0
230
1.0
 70
    11
 71
     3
 72
    29
 73
    25
 74
     0
 42
0.0000000001
 43
0.0000000001
 40
0.0
 40
0.0
 40
0.0
 40
0.0
 40
1.0
 40
1.0
 40
1.0
 40
2.0
 40
2.0
 40
2.0
 40
3.0
 40
3.0
 40
3.0
 40
4.0
 40
4.0
 40
4.0
 40
5.0
 40
5.0
 40
5.0
 40
6.0
 40
6.0
 40
6.0
 40
7.0
 40
7.0
 40
7.0
 40
8.0
 40
8.0
 40
8.0
 40
8.0
 10
47.93577922383052
 20
284.2749975764151
 30
0.0
 10
47.23091222255157
 20
284.7545551843234
 30
0.0
 10
46.76789108388152
 20
285.5627751183412
 30
0.0
 10
46.76789108388152
 20
286.4795156317348
 30
0.0
 10
46.76789108388152
 20
287.9507446292723
 30
0.0
 10
47.96023941791206
 20
289.1432652181908
 30
0.0
 10
49.43164067033749
 20
289.1432652181908
 30
0.0
 10
49.84332985241392
 20
289.1432652181908
 30
0.0
 10
50.23331491861518
 20
289.04990306895
 30
0.0
 10
50.58126979216931
 20
288.8829880825767
 30
0.0
 10
50.58126979216931
 20
288.8829880825767
 30
0.0
 10
50.07415140219734
 20
288.0063829580634
 30
0.0
 10
50.07415140219734
 20
288.0063829580634
 30
0.0
 10
49.87502475178716
 20
288.0907878531335
 30
0.0
 10
49.65626104415659
 20
288.1374689277538
 30
0.0
 10
49.42681753347635
 20
288.1374689277538
 30
0.0
 10
48.50869898097955
 20
288.1374689277538
 30
0.0
 10
47.76421335548403
 20
287.3910884984915
 30
0.0
 10
47.76421335548403
 20
286.4702138677883
 30
0.0
 10
47.76421335548403
 20
285.9246826378151
 30
0.0
 10
48.02569627531332
 20
285.4401296381577
 30
0.0
 10
48.42946173254644
 20
285.1362720159055
 30
0.0
 10
48.42946173254644
 20
285.1362720159055
 30
0.0
 10
47.93577922383052
 20
284.2749975764151
 30
0.0
 10
47.93577922383052
 20
284.2749975764151
 30
0.0
  0
HATCH
  5
43
330
1F
100
AcDbEntity
  8
Layer 1
 62
    18
420
        0
100
AcDbHatch
 10
0.0
 20
0.0
 30
0.0
210
0.0
220
0.0
230
1.0
  2
SOLID
 70
     1
 71
     0
 91
        1
 92
        1
 93
        1
 72
     4
 94
        3
 73
     0
 74
     1
 95
       29
 96
       25
 40
0.0
 40
0.0
 40
0.0
 40
0.0
 40
1.0
 40
1.0
 40
1.0
 40
2.0
 40
2.0
 40
2.0
 40
3.0
 40
3.0
 40
3.0
 40
4.0
 40
4.0
 40
4.0
 40
5.0
 40
5.0
 40
5.0
 40
6.0
 40
6.0
 40
6.0
 40
7.0
 40
7.0
 40
7.0
 40
8.0
 40
8.0
 40
8.0
 40
8.0
 10
47.93577922383052
 20
284.2749975764151
 10
47.23091222255157
 20
284.7545551843234
 10
46.76789108388152
 20
285.5627751183412
 10
46.76789108388152
 20
286.4795156317348
 10
46.76789108388152
 20
287.9507446292723
 10
47.96023941791206
 20
289.1432652181908
 10
49.43164067033749
 20
289.1432652181908
 10
49.84332985241392
 20
289.1432652181908
 10
50.23331491861518
 20
289.04990306895
 10
50.58126979216931
 20
288.8829880825767
 10
50.58126979216931
 20
288.8829880825767
 10
50.07415140219734
 20
288.0063829580634
 10
50.07415140219734
 20
288.0063829580634
 10
49.87502475178716
 20
288.0907878531335
 10
49.65626104415659
 20
288.1374689277538
 10
49.42681753347635
 20
288.1374689277538
 10
48.50869898097955
 20
288.1374689277538
 10
47.76421335548403
 20
287.3910884984915
 10
47.76421335548403
 20
286.4702138677883
 10
47.76421335548403
 20
285.9246826378151
 10
48.02569627531332
 20
285.4401296381577
 10
48.42946173254644
 20
285.1362720159055
 10
48.42946173254644
 20
285.1362720159055
 10
47.93577922383052
 20
284.2749975764151
 10
47.93577922383052
 20
284.2749975764151
 97
        0
 75
     2
 76
     1
 98
        0
  0
SPLINE
  5
44
330
1F
100
AcDbEntity
  8
Layer 1
 62
   250
420
  2301728
370
    18
100
AcDbSpline
210
0.0
220
0.0
230
1.0
 70
    11
 71
     3
 72
    29
 73
    25
 74
     0
 42
0.0000000001
 43
0.0000000001
 40
0.0
 40
0.0
 40
0.0
 40
0.0
 40
1.0
 40
1.0
 40
1.0
 40
2.0
 40
2.0
 40
2.0
 40
3.0
 40
3.0
 40
3.0
 40
4.0
 40
4.0
 40
4.0
 40
5.0
 40
5.0
 40
5.0
 40
6.0
 40
6.0
 40
6.0
 40
7.0
 40
7.0
 40
7.0
 40
8.0
 40
8.0
 40
8.0
 40
8.0
 10
48.28097801917828
 20
284.0765599455565
 30
0.0
 10
48.62927740250822
 20
283.9094727042954
 30
0.0
 10
49.01960697848527
 20
283.8161105550546
 30
0.0
 10
49.43164067033749
 20
283.8161105550546
 30
0.0
 10
50.90269741298713
 20
283.8161105550546
 30
0.0
 10
52.09539025679346
 20
285.0084588890851
 30
0.0
 10
52.09539025679346
 20
286.4795156317348
 30
0.0
 10
52.09539025679346
 20
287.3964284000163
 30
0.0
 10
51.63202460834762
 20
288.2049928438099
 30
0.0
 10
50.92681309729286
 20
288.6842059419424
 30
0.0
 10
50.92681309729286
 20
288.6842059419424
 30
0.0
 10
50.42245078552727
 20
287.8053615038863
 30
0.0
 10
50.42245078552727
 20
287.8053615038863
 30
0.0
 10
50.82759428186357
 20
287.5013316267462
 30
0.0
 10
51.08942171146865
 20
287.0164341173131
 30
0.0
 10
51.08942171146865
 20
286.4702138677883
 30
0.0
 10
51.08942171146865
 20
285.5496837468609
 30
0.0
 10
50.34493608597313
 20
284.8031310627106
 30
0.0
 10
49.42681753347635
 20
284.8031310627106
 30
0.0
 10
49.1973740227961
 20
284.8031310627106
 30
0.0
 10
48.97861031516553
 20
284.8496398824431
 30
0.0
 10
48.77982817453114
 20
284.9340447775132
 30
0.0
 10
48.77982817453114
 20
284.9340447775132
 30
0.0
 10
48.28097801917828
 20
284.0765599455565
 30
0.0
 10
48.28097801917828
 20
284.0765599455565
 30
0.0
  0
HATCH
  5
45
330
1F
100
AcDbEntity
  8
Layer 1
 62
    18
420
        0
100
AcDbHatch
 10
0.0
 20
0.0
 30
0.0
210
0.0
220
0.0
230
1.0
  2
SOLID
 70
     1
 71
     0
 91
        1
 92
        1
 93
        1
 72
     4
 94
        3
 73
     0
 74
     1
 95
       29
 96
       25
 40
0.0
 40
0.0
 40
0.0
 40
0.0
 40
1.0
 40
1.0
 40
1.0
 40
2.0
 40
2.0
 40
2.0
 40
3.0
 40
3.0
 40
3.0
 40
4.0
 40
4.0
 40
4.0
 40
5.0
 40
5.0
 40
5.0
 40
6.0
 40
6.0
 40
6.0
 40
7.0
 40
7.0
 40
7.0
 40
8.0
 40
8.0
 40
8.0
 40
8.0
 10
48.28097801917828
 20
284.0765599455565
 10
48.62927740250822
 20
283.9094727042954
 10
49.01960697848527
 20
283.8161105550546
 10
49.43164067033749
 20
283.8161105550546
 10
50.90269741298713
 20
283.8161105550546
 10
52.09539025679346
 20
285.0084588890851
 10
52.09539025679346
 20
286.4795156317348
 10
52.09539025679346
 20
287.3964284000163
 10
51.63202460834762
 20
288.2049928438099
 10
50.92681309729286
 20
288.6842059419424
 10
50.92681309729286
 20
288.6842059419424
 10
50.42245078552727
 20
287.8053615038863
 10
50.42245078552727
 20
287.8053615038863
 10
50.82759428186357
 20
287.5013316267462
 10
51.08942171146865
 20
287.0164341173131
 10
51.08942171146865
 20
286.4702138677883
 10
51.08942171146865
 20
285.5496837468609
 10
50.34493608597313
 20
284.8031310627106
 10
49.42681753347635
 20
284.8031310627106
 10
49.1973740227961
 20
284.8031310627106
 10
48.97861031516553
 20
284.8496398824431
 10
48.77982817453114
 20
284.9340447775132
 10
48.77982817453114
 20
284.9340447775132
 10
48.28097801917828
 20
284.0765599455565
 10
48.28097801917828
 20
284.0765599455565
 97
        0
 75
     2
 76
     1
 98
        0
  0
SPLINE
  5
46
330
1F
100
AcDbEntity
  8
Layer 1
 62
   250
420
  2301728
370
    18
100
AcDbSpline
210
0.0
220
0.0
230
1.0
 70
    11
 71
     3
 72
    29
 73
    25
 74
     0
 42
0.0000000001
 43
0.0000000001
 40
0.0
 40
0.0
 40
0.0
 40
0.0
 40
1.0
 40
1.0
 40
1.0
 40
2.0
 40
2.0
 40
2.0
 40
3.0
 40
3.0
 40
3.0
 40
4.0
 40
4.0
 40
4.0
 40
5.0
 40
5.0
 40
5.0
 40
6.0
 40
6.0
 40
6.0
 40
7.0
 40
7.0
 40
7.0
 40
8.0
 40
8.0
 40
8.0
 40
8.0
 10
55.46848547161376
 20
282.9369216072228
 30
0.0
 10
56.00729876095897
 20
282.6592467279311
 30
0.0
 10
56.61777008366978
 20
282.5028392897196
 30
0.0
 10
57.26441493283919
 20
282.5028392897196
 30
0.0
 10
59.44550632340473
 20
282.5028392897196
 30
0.0
 10
61.21353049279067
 20
284.2832658110342
 30
0.0
 10
61.21353049279067
 20
286.4795156317348
 30
0.0
 10
61.21353049279067
 20
287.8758137530367
 30
0.0
 10
60.49901721778942
 20
289.1041633586379
 30
0.0
 10
59.41794554134103
 20
289.8136812418901
 30
0.0
 10
59.41794554134103
 20
289.8136812418901
 30
0.0
 10
58.93115322814105
 20
288.9661871934316
 30
0.0
 10
58.93115322814105
 20
288.9661871934316
 30
0.0
 10
59.71870257561109
 20
288.4246178258799
 30
0.0
 10
60.23546723930534
 20
287.5128727042354
 30
0.0
 10
60.23546723930534
 20
286.4795156317348
 30
0.0
 10
60.23546723930534
 20
284.8179449830699
 30
0.0
 10
58.89876930921621
 20
283.4712562694826
 30
0.0
 10
57.25029003203154
 20
283.4712562694826
 30
0.0
 10
56.78347928582773
 20
283.4712562694826
 30
0.0
 10
56.34181775325705
 20
283.5790878293068
 30
0.0
 10
55.94804307952202
 20
283.7716687939769
 30
0.0
 10
55.94804307952202
 20
283.7716687939769
 30
0.0
 10
55.46848547161376
 20
282.9369216072228
 30
0.0
 10
55.46848547161376
 20
282.9369216072228
 30
0.0
  0
HATCH
  5
47
330
1F
100
AcDbEntity
  8
Layer 1
 62
    18
420
        0
100
AcDbHatch
 10
0.0
 20
0.0
 30
0.0
210
0.0
220
0.0
230
1.0
  2
SOLID
 70
     1
 71
     0
 91
        1
 92
        1
 93
        1
 72
     4
 94
        3
 73
     0
 74
     1
 95
       29
 96
       25
 40
0.0
 40
0.0
 40
0.0
 40
0.0
 40
1.0
 40
1.0
 40
1.0
 40
2.0
 40
2.0
 40
2.0
 40
3.0
 40
3.0
 40
3.0
 40
4.0
 40
4.0
 40
4.0
 40
5.0
 40
5.0
 40
5.0
 40
6.0
 40
6.0
 40
6.0
 40
7.0
 40
7.0
 40
7.0
 40
8.0
 40
8.0
 40
8.0
 40
8.0
 10
55.46848547161376
 20
282.9369216072228
 10
56.00729876095897
 20
282.6592467279311
 10
56.61777008366978
 20
282.5028392897196
 10
57.26441493283919
 20
282.5028392897196
 10
59.44550632340473
 20
282.5028392897196
 10
61.21353049279067
 20
284.2832658110342
 10
61.21353049279067
 20
286.4795156317348
 10
61.21353049279067
 20
287.8758137530367
 10
60.49901721778942
 20
289.1041633586379
 10
59.41794554134103
 20
289.8136812418901
 10
59.41794554134103
 20
289.8136812418901
 10
58.93115322814105
 20
288.9661871934316
 10
58.93115322814105
 20
288.9661871934316
 10
59.71870257561109
 20
288.4246178258799
 10
60.23546723930534
 20
287.5128727042354
 10
60.23546723930534
 20
286.4795156317348
 10
60.23546723930534
 20
284.8179449830699
 10
58.89876930921621
 20
283.4712562694826
 10
57.25029003203154
 20
283.4712562694826
 10
56.78347928582773
 20
283.4712562694826
 10
56.34181775325705
 20
283.5790878293068
 10
55.94804307952202
 20
283.7716687939769
 10
55.94804307952202
 20
283.7716687939769
 10
55.46848547161376
 20
282.9369216072228
 10
55.46848547161376
 20
282.9369216072228
 97
        0
 75
     2
 76
     1
 98
        0
  0
SPLINE
  5
48
330
1F
100
AcDbEntity
  8
Layer 1
 62
   250
420
  2301728
370
    18
100
AcDbSpline
210
0.0
220
0.0
230
1.0
 70
    11
 71
     3
 72
    53
 73
    49
 74
     0
 42
0.0000000001
 43
0.0000000001
 40
0.0
 40
0.0
 40
0.0
 40
0.0
 40
1.0
 40
1.0
 40
1.0
 40
2.0
 40
2.0
 40
2.0
 40
3.0
 40
3.0
 40
3.0
 40
4.0
 40
4.0
 40
4.0
 40
5.0
 40
5.0
 40
5.0
 40
6.0
 40
6.0
 40
6.0
 40
7.0
 40
7.0
 40
7.0
 40
8.0
 40
8.0
 40
8.0
 40
9.0
 40
9.0
 40
9.0
 40
10.0
 40
10.0
 40
10.0
 40
11.0
 40
11.0
 40
11.0
 40
12.0
 40
12.0
 40
12.0
 40
13.0
 40
13.0
 40
13.0
 40
14.0
 40
14.0
 40
14.0
 40
15.0
 40
15.0
 40
15.0
 40
16.0
 40
16.0
 40
16.0
 40
16.0
 10
57.26441493283919
 20
290.4565364835257
 30
0.0
 10
55.24214254891567
 20
290.4565364835257
 30
0.0
 10
53.57540425361381
 20
288.9257072947755
 30
0.0
 10
53.34320466472719
 20
286.9518385343513
 30
0.0
 10
53.20230016642656
 20
288.1502157894583
 30
0.0
 10
52.5329176720546
 20
289.1854676657258
 30
0.0
 10
51.57586951489284
 20
289.8136812418901
 30
0.0
 10
51.57586951489284
 20
289.8136812418901
 30
0.0
 10
51.08907720169286
 20
288.9661871934316
 30
0.0
 10
51.08907720169286
 20
288.9661871934316
 30
0.0
 10
51.87628203938711
 20
288.4246178258799
 30
0.0
 10
52.39339121285715
 20
287.5128727042354
 30
0.0
 10
52.39339121285715
 20
286.4795156317348
 30
0.0
 10
52.39339121285715
 20
284.8179449830699
 30
0.0
 10
51.05669328276802
 20
283.4712562694826
 30
0.0
 10
49.40821400558335
 20
283.4712562694826
 30
0.0
 10
48.94140325937954
 20
283.4712562694826
 30
0.0
 10
48.49939721703306
 20
283.5790878293068
 30
0.0
 10
48.10596705307383
 20
283.7716687939769
 30
0.0
 10
48.10596705307383
 20
283.7716687939769
 30
0.0
 10
47.62640944516556
 20
282.9369216072228
 30
0.0
 10
47.62640944516556
 20
282.9369216072228
 30
0.0
 10
48.16522273451078
 20
282.6592467279311
 30
0.0
 10
48.77534954744579
 20
282.5028392897196
 30
0.0
 10
49.422338906391
 20
282.5028392897196
 30
0.0
 10
51.44426678053871
 20
282.5028392897196
 30
0.0
 10
53.11134958561637
 20
284.033496223582
 30
0.0
 10
53.34354917450299
 20
286.0071927291182
 30
0.0
 10
53.48479818257942
 20
284.8034755724864
 30
0.0
 10
54.15969283336411
 20
283.7644340886852
 30
0.0
 10
55.12397569581759
 20
283.1367372771846
 30
0.0
 10
55.12397569581759
 20
283.1367372771846
 30
0.0
 10
55.60284428417426
 20
283.9704509346113
 30
0.0
 10
55.60284428417426
 20
283.9704509346113
 30
0.0
 10
54.79669140881123
 20
284.5092642239565
 30
0.0
 10
54.26511282475774
 20
285.4318614035386
 30
0.0
 10
54.26511282475774
 20
286.4795156317348
 30
0.0
 10
54.26511282475774
 20
288.1410862803997
 30
0.0
 10
55.60146624507108
 20
289.4879472488748
 30
0.0
 10
57.25029003203154
 20
289.4879472488748
 30
0.0
 10
57.73157018881879
 20
289.4879472488748
 30
0.0
 10
58.18597858309393
 20
289.3732254935347
 30
0.0
 10
58.58836600122386
 20
289.1694479611513
 30
0.0
 10
58.58836600122386
 20
289.1694479611513
 30
0.0
 10
59.07412478509646
 20
290.0152194607309
 30
0.0
 10
59.07412478509646
 20
290.0152194607309
 30
0.0
 10
58.53221090776908
 20
290.2973729671079
 30
0.0
 10
57.91691644819713
 20
290.4565364835257
 30
0.0
 10
57.26441493283919
 20
290.4565364835257
 30
0.0
  0
HATCH
  5
49
330
1F
100
AcDbEntity
  8
Layer 1
 62
    18
420
        0
100
AcDbHatch
 10
0.0
 20
0.0
 30
0.0
210
0.0
220
0.0
230
1.0
  2
SOLID
 70
     1
 71
     0
 91
        1
 92
        1
 93
        1
 72
     4
 94
        3
 73
     0
 74
     1
 95
       53
 96
       49
 40
0.0
 40
0.0
 40
0.0
 40
0.0
 40
1.0
 40
1.0
 40
1.0
 40
2.0
 40
2.0
 40
2.0
 40
3.0
 40
3.0
 40
3.0
 40
4.0
 40
4.0
 40
4.0
 40
5.0
 40
5.0
 40
5.0
 40
6.0
 40
6.0
 40
6.0
 40
7.0
 40
7.0
 40
7.0
 40
8.0
 40
8.0
 40
8.0
 40
9.0
 40
9.0
 40
9.0
 40
10.0
 40
10.0
 40
10.0
 40
11.0
 40
11.0
 40
11.0
 40
12.0
 40
12.0
 40
12.0
 40
13.0
 40
13.0
 40
13.0
 40
14.0
 40
14.0
 40
14.0
 40
15.0
 40
15.0
 40
15.0
 40
16.0
 40
16.0
 40
16.0
 40
16.0
 10
57.26441493283919
 20
290.4565364835257
 10
55.24214254891567
 20
290.4565364835257
 10
53.57540425361381
 20
288.9257072947755
 10
53.34320466472719
 20
286.9518385343513
 10
53.20230016642656
 20
288.1502157894583
 10
52.5329176720546
 20
289.1854676657258
 10
51.57586951489284
 20
289.8136812418901
 10
51.57586951489284
 20
289.8136812418901
 10
51.08907720169286
 20
288.9661871934316
 10
51.08907720169286
 20
288.9661871934316
 10
51.87628203938711
 20
288.4246178258799
 10
52.39339121285715
 20
287.5128727042354
 10
52.39339121285715
 20
286.4795156317348
 10
52.39339121285715
 20
284.8179449830699
 10
51.05669328276802
 20
283.4712562694826
 10
49.40821400558335
 20
283.4712562694826
 10
48.94140325937954
 20
283.4712562694826
 10
48.49939721703306
 20
283.5790878293068
 10
48.10596705307383
 20
283.7716687939769
 10
48.10596705307383
 20
283.7716687939769
 10
47.62640944516556
 20
282.9369216072228
 10
47.62640944516556
 20
282.9369216072228
 10
48.16522273451078
 20
282.6592467279311
 10
48.77534954744579
 20
282.5028392897196
 10
49.422338906391
 20
282.5028392897196
 10
51.44426678053871
 20
282.5028392897196
 10
53.11134958561637
 20
284.033496223582
 10
53.34354917450299
 20
286.0071927291182
 10
53.48479818257942
 20
284.8034755724864
 10
54.15969283336411
 20
283.7644340886852
 10
55.12397569581759
 20
283.1367372771846
 10
55.12397569581759
 20
283.1367372771846
 10
55.60284428417426
 20
283.9704509346113
 10
55.60284428417426
 20
283.9704509346113
 10
54.79669140881123
 20
284.5092642239565
 10
54.26511282475774
 20
285.4318614035386
 10
54.26511282475774
 20
286.4795156317348
 10
54.26511282475774
 20
288.1410862803997
 10
55.60146624507108
 20
289.4879472488748
 10
57.25029003203154
 20
289.4879472488748
 10
57.73157018881879
 20
289.4879472488748
 10
58.18597858309393
 20
289.3732254935347
 10
58.58836600122386
 20
289.1694479611513
 10
58.58836600122386
 20
289.1694479611513
 10
59.07412478509646
 20
290.0152194607309
 10
59.07412478509646
 20
290.0152194607309
 10
58.53221090776908
 20
290.2973729671079
 10
57.91691644819713
 20
290.4565364835257
 10
57.26441493283919
 20
290.4565364835257
 97
        0
 75
     2
 76
     1
 98
        0
  0
SPLINE
  5
4A
330
1F
100
AcDbEntity
  8
Layer 1
 62
   250
420
  2301728
370
    18
100
AcDbSpline
210
0.0
220
0.0
230
1.0
 70
    11
 71
     3
 72
    29
 73
    25
 74
     0
 42
0.0000000001
 43
0.0000000001
 40
0.0
 40
0.0
 40
0.0
 40
0.0
 40
1.0
 40
1.0
 40
1.0
 40
2.0
 40
2.0
 40
2.0
 40
3.0
 40
3.0
 40
3.0
 40
4.0
 40
4.0
 40
4.0
 40
5.0
 40
5.0
 40
5.0
 40
6.0
 40
6.0
 40
6.0
 40
7.0
 40
7.0
 40
7.0
 40
8.0
 40
8.0
 40
8.0
 40
8.0
 10
55.77785525027872
 20
284.2749975764151
 30
0.0
 10
55.07298824899976
 20
284.7545551843234
 30
0.0
 10
54.60996711032971
 20
285.5627751183412
 30
0.0
 10
54.60996711032971
 20
286.4795156317348
 30
0.0
 10
54.60996711032971
 20
287.9507446292723
 30
0.0
 10
55.80265995413604
 20
289.1432652181908
 30
0.0
 10
57.27371669678568
 20
289.1432652181908
 30
0.0
 10
57.68540587886211
 20
289.1432652181908
 30
0.0
 10
58.07539094506337
 20
289.04990306895
 30
0.0
 10
58.42369032839329
 20
288.8829880825767
 30
0.0
 10
58.42369032839329
 20
288.8829880825767
 30
0.0
 10
57.91622742864553
 20
288.0063829580634
 30
0.0
 10
57.91622742864553
 20
288.0063829580634
 30
0.0
 10
57.71710077823535
 20
288.0907878531335
 30
0.0
 10
57.49868158038058
 20
288.1374689277538
 30
0.0
 10
57.26923806970033
 20
288.1374689277538
 30
0.0
 10
56.35077500742774
 20
288.1374689277538
 30
0.0
 10
55.60663389170802
 20
287.3910884984915
 30
0.0
 10
55.60663389170802
 20
286.4702138677883
 30
0.0
 10
55.60663389170802
 20
285.9246826378151
 30
0.0
 10
55.86777230176152
 20
285.4401296381577
 30
0.0
 10
56.27188226877043
 20
285.1362720159055
 30
0.0
 10
56.27188226877043
 20
285.1362720159055
 30
0.0
 10
55.77785525027872
 20
284.2749975764151
 30
0.0
 10
55.77785525027872
 20
284.2749975764151
 30
0.0
  0
HATCH
  5
4B
330
1F
100
AcDbEntity
  8
Layer 1
 62
    18
420
        0
100
AcDbHatch
 10
0.0
 20
0.0
 30
0.0
210
0.0
220
0.0
230
1.0
  2
SOLID
 70
     1
 71
     0
 91
        1
 92
        1
 93
        1
 72
     4
 94
        3
 73
     0
 74
     1
 95
       29
 96
       25
 40
0.0
 40
0.0
 40
0.0
 40
0.0
 40
1.0
 40
1.0
 40
1.0
 40
2.0
 40
2.0
 40
2.0
 40
3.0
 40
3.0
 40
3.0
 40
4.0
 40
4.0
 40
4.0
 40
5.0
 40
5.0
 40
5.0
 40
6.0
 40
6.0
 40
6.0
 40
7.0
 40
7.0
 40
7.0
 40
8.0
 40
8.0
 40
8.0
 40
8.0
 10
55.77785525027872
 20
284.2749975764151
 10
55.07298824899976
 20
284.7545551843234
 10
54.60996711032971
 20
285.5627751183412
 10
54.60996711032971
 20
286.4795156317348
 10
54.60996711032971
 20
287.9507446292723
 10
55.80265995413604
 20
289.1432652181908
 10
57.27371669678568
 20
289.1432652181908
 10
57.68540587886211
 20
289.1432652181908
 10
58.07539094506337
 20
289.04990306895
 10
58.42369032839329
 20
288.8829880825767
 10
58.42369032839329
 20
288.8829880825767
 10
57.91622742864553
 20
288.0063829580634
 10
57.91622742864553
 20
288.0063829580634
 10
57.71710077823535
 20
288.0907878531335
 10
57.49868158038058
 20
288.1374689277538
 10
57.26923806970033
 20
288.1374689277538
 10
56.35077500742774
 20
288.1374689277538
 10
55.60663389170802
 20
287.3910884984915
 10
55.60663389170802
 20
286.4702138677883
 10
55.60663389170802
 20
285.9246826378151
 10
55.86777230176152
 20
285.4401296381577
 10
56.27188226877043
 20
285.1362720159055
 10
56.27188226877043
 20
285.1362720159055
 10
55.77785525027872
 20
284.2749975764151
 10
55.77785525027872
 20
284.2749975764151
 97
        0
 75
     2
 76
     1
 98
        0
  0
SPLINE
  5
4C
330
1F
100
AcDbEntity
  8
Layer 1
 62
   250
420
  2301728
370
    18
100
AcDbSpline
210
0.0
220
0.0
230
1.0
 70
    11
 71
     3
 72
    29
 73
    25
 74
     0
 42
0.0000000001
 43
0.0000000001
 40
0.0
 40
0.0
 40
0.0
 40
0.0
 40
1.0
 40
1.0
 40
1.0
 40
2.0
 40
2.0
 40
2.0
 40
3.0
 40
3.0
 40
3.0
 40
4.0
 40
4.0
 40
4.0
 40
5.0
 40
5.0
 40
5.0
 40
6.0
 40
6.0
 40
6.0
 40
7.0
 40
7.0
 40
7.0
 40
8.0
 40
8.0
 40
8.0
 40
8.0
 10
56.12305404562647
 20
284.0765599455565
 30
0.0
 10
56.47135342895641
 20
283.9094727042954
 30
0.0
 10
56.86168300493346
 20
283.8161105550546
 30
0.0
 10
57.27371669678568
 20
283.8161105550546
 30
0.0
 10
58.74477343943532
 20
283.8161105550546
 30
0.0
 10
59.93746628324166
 20
285.0084588890851
 30
0.0
 10
59.93746628324166
 20
286.4795156317348
 30
0.0
 10
59.93746628324166
 20
287.3964284000163
 30
0.0
 10
59.47410063479581
 20
288.2049928438099
 30
0.0
 10
58.76923363351685
 20
288.6842059419424
 30
0.0
 10
58.76923363351685
 20
288.6842059419424
 30
0.0
 10
58.26487132175126
 20
287.8053615038863
 30
0.0
 10
58.26487132175126
 20
287.8053615038863
 30
0.0
 10
58.66967030831176
 20
287.5013316267462
 30
0.0
 10
58.93149773791685
 20
287.0164341173131
 30
0.0
 10
58.93149773791685
 20
286.4702138677883
 30
0.0
 10
58.93149773791685
 20
285.5496837468609
 30
0.0
 10
58.18735662219712
 20
284.8031310627106
 30
0.0
 10
57.26923806970033
 20
284.8031310627106
 30
0.0
 10
57.03945004924429
 20
284.8031310627106
 30
0.0
 10
56.82068634161372
 20
284.8496398824431
 30
0.0
 10
56.62190420097933
 20
284.9340447775132
 30
0.0
 10
56.62190420097933
 20
284.9340447775132
 30
0.0
 10
56.12305404562647
 20
284.0765599455565
 30
0.0
 10
56.12305404562647
 20
284.0765599455565
 30
0.0
  0
HATCH
  5
4D
330
1F
100
AcDbEntity
  8
Layer 1
 62
    18
420
        0
100
AcDbHatch
 10
0.0
 20
0.0
 30
0.0
210
0.0
220
0.0
230
1.0
  2
SOLID
 70
     1
 71
     0
 91
        1
 92
        1
 93
        1
 72
     4
 94
        3
 73
     0
 74
     1
 95
       29
 96
       25
 40
0.0
 40
0.0
 40
0.0
 40
0.0
 40
1.0
 40
1.0
 40
1.0
 40
2.0
 40
2.0
 40
2.0
 40
3.0
 40
3.0
 40
3.0
 40
4.0
 40
4.0
 40
4.0
 40
5.0
 40
5.0
 40
5.0
 40
6.0
 40
6.0
 40
6.0
 40
7.0
 40
7.0
 40
7.0
 40
8.0
 40
8.0
 40
8.0
 40
8.0
 10
56.12305404562647
 20
284.0765599455565
 10
56.47135342895641
 20
283.9094727042954
 10
56.86168300493346
 20
283.8161105550546
 10
57.27371669678568
 20
283.8161105550546
 10
58.74477343943532
 20
283.8161105550546
 10
59.93746628324166
 20
285.0084588890851
 10
59.93746628324166
 20
286.4795156317348
 10
59.93746628324166
 20
287.3964284000163
 10
59.47410063479581
 20
288.2049928438099
 10
58.76923363351685
 20
288.6842059419424
 10
58.76923363351685
 20
288.6842059419424
 10
58.26487132175126
 20
287.8053615038863
 10
58.26487132175126
 20
287.8053615038863
 10
58.66967030831176
 20
287.5013316267462
 10
58.93149773791685
 20
287.0164341173131
 10
58.93149773791685
 20
286.4702138677883
 10
58.93149773791685
 20
285.5496837468609
 10
58.18735662219712
 20
284.8031310627106
 10
57.26923806970033
 20
284.8031310627106
 10
57.03945004924429
 20
284.8031310627106
 10
56.82068634161372
 20
284.8496398824431
 10
56.62190420097933
 20
284.9340447775132
 10
56.62190420097933
 20
284.9340447775132
 10
56.12305404562647
 20
284.0765599455565
 10
56.12305404562647
 20
284.0765599455565
 97
        0
 75
     2
 76
     1
 98
        0
  0
SPLINE
  5
4E
330
1F
100
AcDbEntity
  8
Layer 1
 62
   250
420
  2301728
370
    18
100
AcDbSpline
210
0.0
220
0.0
230
1.0
 70
    11
 71
     3
 72
    53
 73
    49
 74
     0
 42
0.0000000001
 43
0.0000000001
 40
0.0
 40
0.0
 40
0.0
 40
0.0
 40
1.0
 40
1.0
 40
1.0
 40
2.0
 40
2.0
 40
2.0
 40
3.0
 40
3.0
 40
3.0
 40
4.0
 40
4.0
 40
4.0
 40
5.0
 40
5.0
 40
5.0
 40
6.0
 40
6.0
 40
6.0
 40
7.0
 40
7.0
 40
7.0
 40
8.0
 40
8.0
 40
8.0
 40
9.0
 40
9.0
 40
9.0
 40
10.0
 40
10.0
 40
10.0
 40
11.0
 40
11.0
 40
11.0
 40
12.0
 40
12.0
 40
12.0
 40
13.0
 40
13.0
 40
13.0
 40
14.0
 40
14.0
 40
14.0
 40
15.0
 40
15.0
 40
15.0
 40
16.0
 40
16.0
 40
16.0
 40
16.0
 10
38.82211761491867
 20
288.1374689277538
 30
0.0
 10
38.82211761491867
 20
288.1374689277538
 30
0.0
 10
39.37712286372631
 20
289.1432652181908
 30
0.0
 10
39.37712286372631
 20
289.1432652181908
 30
0.0
 10
39.37712286372631
 20
289.1432652181908
 30
0.0
 10
43.03753923156059
 20
289.1432652181908
 30
0.0
 10
43.03753923156059
 20
289.1432652181908
 30
0.0
 10
43.74481780127013
 20
289.1432652181908
 30
0.0
 10
44.31842657797075
 20
288.5594934031042
 30
0.0
 10
44.31842657797075
 20
287.8392957168023
 30
0.0
 10
44.31842657797075
 20
287.1192702853883
 30
0.0
 10
43.74481780127013
 20
286.5354984703017
 30
0.0
 10
43.03753923156059
 20
286.5354984703017
 30
0.0
 10
43.03753923156059
 20
286.5354984703017
 30
0.0
 10
41.37183446558612
 20
286.5354984703017
 30
0.0
 10
41.37183446558612
 20
286.5354984703017
 30
0.0
 10
40.47886512672245
 20
286.5354984703017
 30
0.0
 10
39.75470557799891
 20
285.8163343133272
 30
0.0
 10
39.75470557799891
 20
284.9295661504278
 30
0.0
 10
39.75470557799891
 20
284.9295661504278
 30
0.0
 10
39.75470557799891
 20
283.4712562694826
 30
0.0
 10
39.75470557799891
 20
283.4712562694826
 30
0.0
 10
39.75470557799891
 20
283.4712562694826
 30
0.0
 10
45.47322334643951
 20
283.4712562694826
 30
0.0
 10
45.47322334643951
 20
283.4712562694826
 30
0.0
 10
45.47322334643951
 20
283.4712562694826
 30
0.0
 10
45.47322334643951
 20
282.5028392897196
 30
0.0
 10
45.47322334643951
 20
282.5028392897196
 30
0.0
 10
45.47322334643951
 20
282.5028392897196
 30
0.0
 10
38.80454761635307
 20
282.5400463455056
 30
0.0
 10
38.80454761635307
 20
282.5400463455056
 30
0.0
 10
38.80454761635307
 20
282.5400463455056
 30
0.0
 10
38.80454761635307
 20
285.0453214350953
 30
0.0
 10
38.80454761635307
 20
285.0453214350953
 30
0.0
 10
38.80454761635307
 20
286.3825361298482
 30
0.0
 10
39.92833850500017
 20
287.4667083942787
 30
0.0
 10
41.31464584280396
 20
287.4667083942787
 30
0.0
 10
41.31464584280396
 20
287.4667083942787
 30
0.0
 10
43.04718550528289
 20
287.4667083942787
 30
0.0
 10
43.04718550528289
 20
287.4667083942787
 30
0.0
 10
43.22977568645486
 20
287.4667083942787
 30
0.0
 10
43.37757038027141
 20
287.6169146565258
 30
0.0
 10
43.37757038027141
 20
287.8020886610163
 30
0.0
 10
43.37757038027141
 20
287.9872626655067
 30
0.0
 10
43.22977568645486
 20
288.1374689277538
 30
0.0
 10
43.04718550528289
 20
288.1374689277538
 30
0.0
 10
43.04718550528289
 20
288.1374689277538
 30
0.0
 10
38.82211761491867
 20
288.1374689277538
 30
0.0
 10
38.82211761491867
 20
288.1374689277538
 30
0.0
  0
HATCH
  5
4F
330
1F
100
AcDbEntity
  8
Layer 1
 62
    18
420
        0
100
AcDbHatch
 10
0.0
 20
0.0
 30
0.0
210
0.0
220
0.0
230
1.0
  2
SOLID
 70
     1
 71
     0
 91
        1
 92
        1
 93
        1
 72
     4
 94
        3
 73
     0
 74
     1
 95
       53
 96
       49
 40
0.0
 40
0.0
 40
0.0
 40
0.0
 40
1.0
 40
1.0
 40
1.0
 40
2.0
 40
2.0
 40
2.0
 40
3.0
 40
3.0
 40
3.0
 40
4.0
 40
4.0
 40
4.0
 40
5.0
 40
5.0
 40
5.0
 40
6.0
 40
6.0
 40
6.0
 40
7.0
 40
7.0
 40
7.0
 40
8.0
 40
8.0
 40
8.0
 40
9.0
 40
9.0
 40
9.0
 40
10.0
 40
10.0
 40
10.0
 40
11.0
 40
11.0
 40
11.0
 40
12.0
 40
12.0
 40
12.0
 40
13.0
 40
13.0
 40
13.0
 40
14.0
 40
14.0
 40
14.0
 40
15.0
 40
15.0
 40
15.0
 40
16.0
 40
16.0
 40
16.0
 40
16.0
 10
38.82211761491867
 20
288.1374689277538
 10
38.82211761491867
 20
288.1374689277538
 10
39.37712286372631
 20
289.1432652181908
 10
39.37712286372631
 20
289.1432652181908
 10
39.37712286372631
 20
289.1432652181908
 10
43.03753923156059
 20
289.1432652181908
 10
43.03753923156059
 20
289.1432652181908
 10
43.74481780127013
 20
289.1432652181908
 10
44.31842657797075
 20
288.5594934031042
 10
44.31842657797075
 20
287.8392957168023
 10
44.31842657797075
 20
287.1192702853883
 10
43.74481780127013
 20
286.5354984703017
 10
43.03753923156059
 20
286.5354984703017
 10
43.03753923156059
 20
286.5354984703017
 10
41.37183446558612
 20
286.5354984703017
 10
41.37183446558612
 20
286.5354984703017
 10
40.47886512672245
 20
286.5354984703017
 10
39.75470557799891
 20
285.8163343133272
 10
39.75470557799891
 20
284.9295661504278
 10
39.75470557799891
 20
284.9295661504278
 10
39.75470557799891
 20
283.4712562694826
 10
39.75470557799891
 20
283.4712562694826
 10
39.75470557799891
 20
283.4712562694826
 10
45.47322334643951
 20
283.4712562694826
 10
45.47322334643951
 20
283.4712562694826
 10
45.47322334643951
 20
283.4712562694826
 10
45.47322334643951
 20
282.5028392897196
 10
45.47322334643951
 20
282.5028392897196
 10
45.47322334643951
 20
282.5028392897196
 10
38.80454761635307
 20
282.5400463455056
 10
38.80454761635307
 20
282.5400463455056
 10
38.80454761635307
 20
282.5400463455056
 10
38.80454761635307
 20
285.0453214350953
 10
38.80454761635307
 20
285.0453214350953
 10
38.80454761635307
 20
286.3825361298482
 10
39.92833850500017
 20
287.4667083942787
 10
41.31464584280396
 20
287.4667083942787
 10
41.31464584280396
 20
287.4667083942787
 10
43.04718550528289
 20
287.4667083942787
 10
43.04718550528289
 20
287.4667083942787
 10
43.22977568645486
 20
287.4667083942787
 10
43.37757038027141
 20
287.6169146565258
 10
43.37757038027141
 20
287.8020886610163
 10
43.37757038027141
 20
287.9872626655067
 10
43.22977568645486
 20
288.1374689277538
 10
43.04718550528289
 20
288.1374689277538
 10
43.04718550528289
 20
288.1374689277538
 10
38.82211761491867
 20
288.1374689277538
 10
38.82211761491867
 20
288.1374689277538
 97
        0
 75
     2
 76
     1
 98
        0
  0
SPLINE
  5
50
330
1F
100
AcDbEntity
  8
Layer 1
 62
   250
420
  2301728
370
    18
100
AcDbSpline
210
0.0
220
0.0
230
1.0
 70
    11
 71
     3
 72
    83
 73
    79
 74
     0
 42
0.0000000001
 43
0.0000000001
 40
0.0
 40
0.0
 40
0.0
 40
0.0
 40
1.0
 40
1.0
 40
1.0
 40
2.0
 40
2.0
 40
2.0
 40
3.0
 40
3.0
 40
3.0
 40
4.0
 40
4.0
 40
4.0
 40
5.0
 40
5.0
 40
5.0
 40
6.0
 40
6.0
 40
6.0
 40
7.0
 40
7.0
 40
7.0
 40
8.0
 40
8.0
 40
8.0
 40
9.0
 40
9.0
 40
9.0
 40
10.0
 40
10.0
 40
10.0
 40
11.0
 40
11.0
 40
11.0
 40
12.0
 40
12.0
 40
12.0
 40
13.0
 40
13.0
 40
13.0
 40
14.0
 40
14.0
 40
14.0
 40
15.0
 40
15.0
 40
15.0
 40
16.0
 40
16.0
 40
16.0
 40
17.0
 40
17.0
 40
17.0
 40
18.0
 40
18.0
 40
18.0
 40
19.0
 40
19.0
 40
19.0
 40
20.0
 40
20.0
 40
20.0
 40
21.0
 40
21.0
 40
21.0
 40
22.0
 40
22.0
 40
22.0
 40
23.0
 40
23.0
 40
23.0
 40
24.0
 40
24.0
 40
24.0
 40
25.0
 40
25.0
 40
25.0
 40
26.0
 40
26.0
 40
26.0
 40
26.0
 10
49.422338906391
 20
290.4565364835257
 30
0.0
 10
47.57438846902034
 20
290.4565364835257
 30
0.0
 10
46.02306094861019
 20
289.1782329604341
 30
0.0
 10
45.59242372886499
 20
287.4520667288074
 30
0.0
 10
45.61206078608537
 20
287.5812578947309
 30
0.0
 10
45.62205156958345
 20
287.7138941584125
 30
0.0
 10
45.62205156958345
 20
287.8487697356367
 30
0.0
 10
45.62205156958345
 20
289.2889928533525
 30
0.0
 10
44.4586420567198
 20
290.4565364835257
 30
0.0
 10
43.02375884052875
 20
290.4565364835257
 30
0.0
 10
43.02375884052875
 20
290.4565364835257
 30
0.0
 10
40.10128241244985
 20
290.4565364835257
 30
0.0
 10
40.10128241244985
 20
290.4565364835257
 30
0.0
 10
40.10128241244985
 20
290.4565364835257
 30
0.0
 10
39.56729225996579
 20
289.4879472488748
 30
0.0
 10
39.56729225996579
 20
289.4879472488748
 30
0.0
 10
39.56729225996579
 20
289.4879472488748
 30
0.0
 10
42.96105806133384
 20
289.4879472488748
 30
0.0
 10
42.96105806133384
 20
289.4879472488748
 30
0.0
 10
43.88021014315802
 20
289.4879472488748
 30
0.0
 10
44.62572929798093
 20
288.7536246617653
 30
0.0
 10
44.62572929798093
 20
287.8479084611972
 30
0.0
 10
44.62572929798093
 20
286.942192260629
 30
0.0
 10
43.88021014315802
 20
286.2080419284074
 30
0.0
 10
42.96105806133384
 20
286.2080419284074
 30
0.0
 10
42.96105806133384
 20
286.2080419284074
 30
0.0
 10
41.36115466253644
 20
286.2094199675106
 30
0.0
 10
41.36115466253644
 20
286.2094199675106
 30
0.0
 10
40.62803785964219
 20
286.2094199675106
 30
0.0
 10
40.0337584963938
 20
285.6361557005857
 30
0.0
 10
40.0337584963938
 20
284.9288771308762
 30
0.0
 10
40.0337584963938
 20
284.9288771308762
 30
0.0
 10
40.0337584963938
 20
283.8161105550546
 30
0.0
 10
40.0337584963938
 20
283.8161105550546
 30
0.0
 10
40.0337584963938
 20
283.8161105550546
 30
0.0
 10
45.47322334643951
 20
283.8161105550546
 30
0.0
 10
45.47322334643951
 20
283.8161105550546
 30
0.0
 10
45.47322334643951
 20
283.8161105550546
 30
0.0
 10
45.47322334643951
 20
284.8031310627106
 30
0.0
 10
45.47322334643951
 20
284.8031310627106
 30
0.0
 10
45.47322334643951
 20
284.8031310627106
 30
0.0
 10
40.95601116620014
 20
284.8031310627106
 30
0.0
 10
40.95601116620014
 20
284.8031310627106
 30
0.0
 10
40.95601116620014
 20
284.8031310627106
 30
0.0
 10
40.95601116620014
 20
284.8961487021756
 30
0.0
 10
40.95601116620014
 20
284.8961487021756
 30
0.0
 10
40.95601116620014
 20
285.0866626081909
 30
0.0
 10
41.10828448710205
 20
285.2410029877475
 30
0.0
 10
41.29604231491096
 20
285.2410029877475
 30
0.0
 10
41.29604231491096
 20
285.2410029877475
 30
0.0
 10
43.02375884052875
 20
285.2410029877475
 30
0.0
 10
43.02375884052875
 20
285.2410029877475
 30
0.0
 10
44.2243754091784
 20
285.2410029877475
 30
0.0
 10
45.23447807181277
 20
286.0585246857119
 30
0.0
 10
45.53247902787646
 20
287.1690519479908
 30
0.0
 10
45.49354942321148
 20
286.9451205937233
 30
0.0
 10
45.47322334643951
 20
286.7148158086036
 30
0.0
 10
45.47322334643951
 20
286.4795156317348
 30
0.0
 10
45.47322334643951
 20
285.0777053540202
 30
0.0
 10
46.1935932876293
 20
283.8450493762215
 30
0.0
 10
47.28189966936939
 20
283.1367372771846
 30
0.0
 10
47.28189966936939
 20
283.1367372771846
 30
0.0
 10
47.76076825772607
 20
283.9704509346113
 30
0.0
 10
47.76076825772607
 20
283.9704509346113
 30
0.0
 10
46.95461538236304
 20
284.5092642239565
 30
0.0
 10
46.42303679830955
 20
285.4318614035386
 30
0.0
 10
46.42303679830955
 20
286.4795156317348
 30
0.0
 10
46.42303679830955
 20
288.1410862803997
 30
0.0
 10
47.75939021862289
 20
289.4879472488748
 30
0.0
 10
49.40821400558335
 20
289.4879472488748
 30
0.0
 10
49.8891496525948
 20
289.4879472488748
 30
0.0
 10
50.34390255664574
 20
289.3732254935347
 30
0.0
 10
50.74628997477567
 20
289.1694479611513
 30
0.0
 10
50.74628997477567
 20
289.1694479611513
 30
0.0
 10
51.23204875864827
 20
290.0152194607309
 30
0.0
 10
51.23204875864827
 20
290.0152194607309
 30
0.0
 10
50.6897903715451
 20
290.2973729671079
 30
0.0
 10
50.07449591197314
 20
290.4565364835257
 30
0.0
 10
49.422338906391
 20
290.4565364835257
 30
0.0
  0
HATCH
  5
51
330
1F
100
AcDbEntity
  8
Layer 1
 62
    18
420
        0
100
AcDbHatch
 10
0.0
 20
0.0
 30
0.0
210
0.0
220
0.0
230
1.0
  2
SOLID
 70
     1
 71
     0
 91
        1
 92
        1
 93
        1
 72
     4
 94
        3
 73
     0
 74
     1
 95
       83
 96
       79
 40
0.0
 40
0.0
 40
0.0
 40
0.0
 40
1.0
 40
1.0
 40
1.0
 40
2.0
 40
2.0
 40
2.0
 40
3.0
 40
3.0
 40
3.0
 40
4.0
 40
4.0
 40
4.0
 40
5.0
 40
5.0
 40
5.0
 40
6.0
 40
6.0
 40
6.0
 40
7.0
 40
7.0
 40
7.0
 40
8.0
 40
8.0
 40
8.0
 40
9.0
 40
9.0
 40
9.0
 40
10.0
 40
10.0
 40
10.0
 40
11.0
 40
11.0
 40
11.0
 40
12.0
 40
12.0
 40
12.0
 40
13.0
 40
13.0
 40
13.0
 40
14.0
 40
14.0
 40
14.0
 40
15.0
 40
15.0
 40
15.0
 40
16.0
 40
16.0
 40
16.0
 40
17.0
 40
17.0
 40
17.0
 40
18.0
 40
18.0
 40
18.0
 40
19.0
 40
19.0
 40
19.0
 40
20.0
 40
20.0
 40
20.0
 40
21.0
 40
21.0
 40
21.0
 40
22.0
 40
22.0
 40
22.0
 40
23.0
 40
23.0
 40
23.0
 40
24.0
 40
24.0
 40
24.0
 40
25.0
 40
25.0
 40
25.0
 40
26.0
 40
26.0
 40
26.0
 40
26.0
 10
49.422338906391
 20
290.4565364835257
 10
47.57438846902034
 20
290.4565364835257
 10
46.02306094861019
 20
289.1782329604341
 10
45.59242372886499
 20
287.4520667288074
 10
45.61206078608537
 20
287.5812578947309
 10
45.62205156958345
 20
287.7138941584125
 10
45.62205156958345
 20
287.8487697356367
 10
45.62205156958345
 20
289.2889928533525
 10
44.4586420567198
 20
290.4565364835257
 10
43.02375884052875
 20
290.4565364835257
 10
43.02375884052875
 20
290.4565364835257
 10
40.10128241244985
 20
290.4565364835257
 10
40.10128241244985
 20
290.4565364835257
 10
40.10128241244985
 20
290.4565364835257
 10
39.56729225996579
 20
289.4879472488748
 10
39.56729225996579
 20
289.4879472488748
 10
39.56729225996579
 20
289.4879472488748
 10
42.96105806133384
 20
289.4879472488748
 10
42.96105806133384
 20
289.4879472488748
 10
43.88021014315802
 20
289.4879472488748
 10
44.62572929798093
 20
288.7536246617653
 10
44.62572929798093
 20
287.8479084611972
 10
44.62572929798093
 20
286.942192260629
 10
43.88021014315802
 20
286.2080419284074
 10
42.96105806133384
 20
286.2080419284074
 10
42.96105806133384
 20
286.2080419284074
 10
41.36115466253644
 20
286.2094199675106
 10
41.36115466253644
 20
286.2094199675106
 10
40.62803785964219
 20
286.2094199675106
 10
40.0337584963938
 20
285.6361557005857
 10
40.0337584963938
 20
284.9288771308762
 10
40.0337584963938
 20
284.9288771308762
 10
40.0337584963938
 20
283.8161105550546
 10
40.0337584963938
 20
283.8161105550546
 10
40.0337584963938
 20
283.8161105550546
 10
45.47322334643951
 20
283.8161105550546
 10
45.47322334643951
 20
283.8161105550546
 10
45.47322334643951
 20
283.8161105550546
 10
45.47322334643951
 20
284.8031310627106
 10
45.47322334643951
 20
284.8031310627106
 10
45.47322334643951
 20
284.8031310627106
 10
40.95601116620014
 20
284.8031310627106
 10
40.95601116620014
 20
284.8031310627106
 10
40.95601116620014
 20
284.8031310627106
 10
40.95601116620014
 20
284.8961487021756
 10
40.95601116620014
 20
284.8961487021756
 10
40.95601116620014
 20
285.0866626081909
 10
41.10828448710205
 20
285.2410029877475
 10
41.29604231491096
 20
285.2410029877475
 10
41.29604231491096
 20
285.2410029877475
 10
43.02375884052875
 20
285.2410029877475
 10
43.02375884052875
 20
285.2410029877475
 10
44.2243754091784
 20
285.2410029877475
 10
45.23447807181277
 20
286.0585246857119
 10
45.53247902787646
 20
287.1690519479908
 10
45.49354942321148
 20
286.9451205937233
 10
45.47322334643951
 20
286.7148158086036
 10
45.47322334643951
 20
286.4795156317348
 10
45.47322334643951
 20
285.0777053540202
 10
46.1935932876293
 20
283.8450493762215
 10
47.28189966936939
 20
283.1367372771846
 10
47.28189966936939
 20
283.1367372771846
 10
47.76076825772607
 20
283.9704509346113
 10
47.76076825772607
 20
283.9704509346113
 10
46.95461538236304
 20
284.5092642239565
 10
46.42303679830955
 20
285.4318614035386
 10
46.42303679830955
 20
286.4795156317348
 10
46.42303679830955
 20
288.1410862803997
 10
47.75939021862289
 20
289.4879472488748
 10
49.40821400558335
 20
289.4879472488748
 10
49.8891496525948
 20
289.4879472488748
 10
50.34390255664574
 20
289.3732254935347
 10
50.74628997477567
 20
289.1694479611513
 10
50.74628997477567
 20
289.1694479611513
 10
51.23204875864827
 20
290.0152194607309
 10
51.23204875864827
 20
290.0152194607309
 10
50.6897903715451
 20
290.2973729671079
 10
50.07449591197314
 20
290.4565364835257
 10
49.422338906391
 20
290.4565364835257
 97
        0
 75
     2
 76
     1
 98
        0
  0
SPLINE
  5
52
330
1F
100
AcDbEntity
  8
Layer 1
 62
   250
420
  2301728
370
    18
100
AcDbSpline
210
0.0
220
0.0
230
1.0
 70
    11
 71
     3
 72
    80
 73
    76
 74
     0
 42
0.0000000001
 43
0.0000000001
 40
0.0
 40
0.0
 40
0.0
 40
0.0
 40
1.0
 40
1.0
 40
1.0
 40
2.0
 40
2.0
 40
2.0
 40
3.0
 40
3.0
 40
3.0
 40
4.0
 40
4.0
 40
4.0
 40
5.0
 40
5.0
 40
5.0
 40
6.0
 40
6.0
 40
6.0
 40
7.0
 40
7.0
 40
7.0
 40
8.0
 40
8.0
 40
8.0
 40
9.0
 40
9.0
 40
9.0
 40
10.0
 40
10.0
 40
10.0
 40
11.0
 40
11.0
 40
11.0
 40
12.0
 40
12.0
 40
12.0
 40
13.0
 40
13.0
 40
13.0
 40
14.0
 40
14.0
 40
14.0
 40
15.0
 40
15.0
 40
15.0
 40
16.0
 40
16.0
 40
16.0
 40
17.0
 40
17.0
 40
17.0
 40
18.0
 40
18.0
 40
18.0
 40
19.0
 40
19.0
 40
19.0
 40
20.0
 40
20.0
 40
20.0
 40
21.0
 40
21.0
 40
21.0
 40
22.0
 40
22.0
 40
22.0
 40
23.0
 40
23.0
 40
23.0
 40
24.0
 40
24.0
 40
24.0
 40
25.0
 40
25.0
 40
25.0
 40
25.0
 10
26.76806506958652
 20
290.4565364835257
 30
0.0
 10
28.35728866533425
 20
290.4565364835257
 30
0.0
 10
29.64541071703612
 20
289.1542895310162
 30
0.0
 10
29.64541071703612
 20
287.5478404464787
 30
0.0
 10
29.64541071703612
 20
285.9415636168291
 30
0.0
 10
28.35728866533425
 20
284.6394889192075
 30
0.0
 10
26.76806506958652
 20
284.6394889192075
 30
0.0
 10
26.76806506958652
 20
284.6394889192075
 30
0.0
 10
24.29138429138786
 20
284.6394889192075
 30
0.0
 10
24.29138429138786
 20
284.6394889192075
 30
0.0
 10
24.29138429138786
 20
284.6394889192075
 30
0.0
 10
24.29138429138786
 20
282.3850169463973
 30
0.0
 10
24.29138429138786
 20
282.3850169463973
 30
0.0
 10
24.29138429138786
 20
282.3850169463973
 30
0.0
 10
23.2540653564656
 20
282.3850169463973
 30
0.0
 10
23.2540653564656
 20
282.3850169463973
 30
0.0
 10
23.2540653564656
 20
282.3850169463973
 30
0.0
 10
23.2540653564656
 20
289.1608352167564
 30
0.0
 10
23.2540653564656
 20
289.1608352167564
 30
0.0
 10
23.2540653564656
 20
289.1608352167564
 30
0.0
 10
26.71880017164767
 20
289.1608352167564
 30
0.0
 10
26.71880017164767
 20
289.1608352167564
 30
0.0
 10
27.61349205939032
 20
289.1608352167564
 30
0.0
 10
28.33902964721705
 20
288.4382259620239
 30
0.0
 10
28.33902964721705
 20
287.5469791720392
 30
0.0
 10
28.33902964721705
 20
286.6555601271666
 30
0.0
 10
27.61349205939032
 20
285.9331231273221
 30
0.0
 10
26.71880017164767
 20
285.9331231273221
 30
0.0
 10
26.71880017164767
 20
285.9331231273221
 30
0.0
 10
24.99211717535727
 20
285.9331231273221
 30
0.0
 10
24.99211717535727
 20
285.9331231273221
 30
0.0
 10
24.99211717535727
 20
285.9331231273221
 30
0.0
 10
25.57537222578019
 20
286.9449483388354
 30
0.0
 10
25.57537222578019
 20
286.9449483388354
 30
0.0
 10
25.57537222578019
 20
286.9449483388354
 30
0.0
 10
26.71225448590754
 20
286.9449483388354
 30
0.0
 10
26.71225448590754
 20
286.9449483388354
 30
0.0
 10
27.04470641955085
 20
286.9449483388354
 30
0.0
 10
27.31445757399925
 20
287.2115989053016
 30
0.0
 10
27.31445757399925
 20
287.540605741187
 30
0.0
 10
27.31445757399925
 20
287.8694403221844
 30
0.0
 10
27.04470641955085
 20
288.1360908886506
 30
0.0
 10
26.71225448590754
 20
288.1360908886506
 30
0.0
 10
26.71225448590754
 20
288.1360908886506
 30
0.0
 10
24.29138429138786
 20
288.1360908886506
 30
0.0
 10
24.29138429138786
 20
288.1360908886506
 30
0.0
 10
24.29138429138786
 20
288.1360908886506
 30
0.0
 10
24.29138429138786
 20
284.7173481285374
 30
0.0
 10
24.29138429138786
 20
284.7173481285374
 30
0.0
 10
24.29138429138786
 20
284.7173481285374
 30
0.0
 10
24.80745993553053
 20
285.6130735456074
 30
0.0
 10
24.80745993553053
 20
285.6130735456074
 30
0.0
 10
24.80745993553053
 20
285.6130735456074
 30
0.0
 10
26.78908016591009
 20
285.6130735456074
 30
0.0
 10
26.78908016591009
 20
285.6130735456074
 30
0.0
 10
27.82915517903872
 20
285.6130735456074
 30
0.0
 10
28.67217060041195
 20
286.4784821024074
 30
0.0
 10
28.67217060041195
 20
287.5461178975997
 30
0.0
 10
28.67217060041195
 20
288.6139259476799
 30
0.0
 10
27.82915517903872
 20
289.4795067593678
 30
0.0
 10
26.78908016591009
 20
289.4795067593678
 30
0.0
 10
26.78908016591009
 20
289.4795067593678
 30
0.0
 10
22.92092440327071
 20
289.4795067593678
 30
0.0
 10
22.92092440327071
 20
289.4795067593678
 30
0.0
 10
22.92092440327071
 20
289.4795067593678
 30
0.0
 10
22.92092440327071
 20
282.3850169463973
 30
0.0
 10
22.92092440327071
 20
282.3850169463973
 30
0.0
 10
22.92092440327071
 20
282.3850169463973
 30
0.0
 10
21.96043114835099
 20
282.3850169463973
 30
0.0
 10
21.96043114835099
 20
282.3850169463973
 30
0.0
 10
21.96043114835099
 20
282.3850169463973
 30
0.0
 10
21.96043114835099
 20
290.4565364835257
 30
0.0
 10
21.96043114835099
 20
290.4565364835257
 30
0.0
 10
21.96043114835099
 20
290.4565364835257
 30
0.0
 10
26.76806506958652
 20
290.4565364835257
 30
0.0
 10
26.76806506958652
 20
290.4565364835257
 30
0.0
  0
HATCH
  5
53
330
1F
100
AcDbEntity
  8
Layer 1
 62
    18
420
        0
100
AcDbHatch
 10
0.0
 20
0.0
 30
0.0
210
0.0
220
0.0
230
1.0
  2
SOLID
 70
     1
 71
     0
 91
        1
 92
        1
 93
        1
 72
     4
 94
        3
 73
     0
 74
     1
 95
       80
 96
       76
 40
0.0
 40
0.0
 40
0.0
 40
0.0
 40
1.0
 40
1.0
 40
1.0
 40
2.0
 40
2.0
 40
2.0
 40
3.0
 40
3.0
 40
3.0
 40
4.0
 40
4.0
 40
4.0
 40
5.0
 40
5.0
 40
5.0
 40
6.0
 40
6.0
 40
6.0
 40
7.0
 40
7.0
 40
7.0
 40
8.0
 40
8.0
 40
8.0
 40
9.0
 40
9.0
 40
9.0
 40
10.0
 40
10.0
 40
10.0
 40
11.0
 40
11.0
 40
11.0
 40
12.0
 40
12.0
 40
12.0
 40
13.0
 40
13.0
 40
13.0
 40
14.0
 40
14.0
 40
14.0
 40
15.0
 40
15.0
 40
15.0
 40
16.0
 40
16.0
 40
16.0
 40
17.0
 40
17.0
 40
17.0
 40
18.0
 40
18.0
 40
18.0
 40
19.0
 40
19.0
 40
19.0
 40
20.0
 40
20.0
 40
20.0
 40
21.0
 40
21.0
 40
21.0
 40
22.0
 40
22.0
 40
22.0
 40
23.0
 40
23.0
 40
23.0
 40
24.0
 40
24.0
 40
24.0
 40
25.0
 40
25.0
 40
25.0
 40
25.0
 10
26.76806506958652
 20
290.4565364835257
 10
28.35728866533425
 20
290.4565364835257
 10
29.64541071703612
 20
289.1542895310162
 10
29.64541071703612
 20
287.5478404464787
 10
29.64541071703612
 20
285.9415636168291
 10
28.35728866533425
 20
284.6394889192075
 10
26.76806506958652
 20
284.6394889192075
 10
26.76806506958652
 20
284.6394889192075
 10
24.29138429138786
 20
284.6394889192075
 10
24.29138429138786
 20
284.6394889192075
 10
24.29138429138786
 20
284.6394889192075
 10
24.29138429138786
 20
282.3850169463973
 10
24.29138429138786
 20
282.3850169463973
 10
24.29138429138786
 20
282.3850169463973
 10
23.2540653564656
 20
282.3850169463973
 10
23.2540653564656
 20
282.3850169463973
 10
23.2540653564656
 20
282.3850169463973
 10
23.2540653564656
 20
289.1608352167564
 10
23.2540653564656
 20
289.1608352167564
 10
23.2540653564656
 20
289.1608352167564
 10
26.71880017164767
 20
289.1608352167564
 10
26.71880017164767
 20
289.1608352167564
 10
27.61349205939032
 20
289.1608352167564
 10
28.33902964721705
 20
288.4382259620239
 10
28.33902964721705
 20
287.5469791720392
 10
28.33902964721705
 20
286.6555601271666
 10
27.61349205939032
 20
285.9331231273221
 10
26.71880017164767
 20
285.9331231273221
 10
26.71880017164767
 20
285.9331231273221
 10
24.99211717535727
 20
285.9331231273221
 10
24.99211717535727
 20
285.9331231273221
 10
24.99211717535727
 20
285.9331231273221
 10
25.57537222578019
 20
286.9449483388354
 10
25.57537222578019
 20
286.9449483388354
 10
25.57537222578019
 20
286.9449483388354
 10
26.71225448590754
 20
286.9449483388354
 10
26.71225448590754
 20
286.9449483388354
 10
27.04470641955085
 20
286.9449483388354
 10
27.31445757399925
 20
287.2115989053016
 10
27.31445757399925
 20
287.540605741187
 10
27.31445757399925
 20
287.8694403221844
 10
27.04470641955085
 20
288.1360908886506
 10
26.71225448590754
 20
288.1360908886506
 10
26.71225448590754
 20
288.1360908886506
 10
24.29138429138786
 20
288.1360908886506
 10
24.29138429138786
 20
288.1360908886506
 10
24.29138429138786
 20
288.1360908886506
 10
24.29138429138786
 20
284.7173481285374
 10
24.29138429138786
 20
284.7173481285374
 10
24.29138429138786
 20
284.7173481285374
 10
24.80745993553053
 20
285.6130735456074
 10
24.80745993553053
 20
285.6130735456074
 10
24.80745993553053
 20
285.6130735456074
 10
26.78908016591009
 20
285.6130735456074
 10
26.78908016591009
 20
285.6130735456074
 10
27.82915517903872
 20
285.6130735456074
 10
28.67217060041195
 20
286.4784821024074
 10
28.67217060041195
 20
287.5461178975997
 10
28.67217060041195
 20
288.6139259476799
 10
27.82915517903872
 20
289.4795067593678
 10
26.78908016591009
 20
289.4795067593678
 10
26.78908016591009
 20
289.4795067593678
 10
22.92092440327071
 20
289.4795067593678
 10
22.92092440327071
 20
289.4795067593678
 10
22.92092440327071
 20
289.4795067593678
 10
22.92092440327071
 20
282.3850169463973
 10
22.92092440327071
 20
282.3850169463973
 10
22.92092440327071
 20
282.3850169463973
 10
21.96043114835099
 20
282.3850169463973
 10
21.96043114835099
 20
282.3850169463973
 10
21.96043114835099
 20
282.3850169463973
 10
21.96043114835099
 20
290.4565364835257
 10
21.96043114835099
 20
290.4565364835257
 10
21.96043114835099
 20
290.4565364835257
 10
26.76806506958652
 20
290.4565364835257
 10
26.76806506958652
 20
290.4565364835257
 97
        0
 75
     2
 76
     1
 98
        0
  0
SPLINE
  5
54
330
1F
100
AcDbEntity
  8
Layer 1
 62
   250
420
  2301728
370
    18
100
AcDbSpline
210
0.0
220
0.0
230
1.0
 70
    11
 71
     3
 72
    41
 73
    37
 74
     0
 42
0.0000000001
 43
0.0000000001
 40
0.0
 40
0.0
 40
0.0
 40
0.0
 40
1.0
 40
1.0
 40
1.0
 40
2.0
 40
2.0
 40
2.0
 40
3.0
 40
3.0
 40
3.0
 40
4.0
 40
4.0
 40
4.0
 40
5.0
 40
5.0
 40
5.0
 40
6.0
 40
6.0
 40
6.0
 40
7.0
 40
7.0
 40
7.0
 40
8.0
 40
8.0
 40
8.0
 40
9.0
 40
9.0
 40
9.0
 40
10.0
 40
10.0
 40
10.0
 40
11.0
 40
11.0
 40
11.0
 40
12.0
 40
12.0
 40
12.0
 40
12.0
 10
35.23025869246782
 20
285.4442637554673
 30
0.0
 10
34.92295597245764
 20
285.0039802619998
 30
0.0
 10
34.41514856293409
 20
284.71631459921
 30
0.0
 10
33.84050625690607
 20
284.71631459921
 30
0.0
 10
32.9034396667405
 20
284.71631459921
 30
0.0
 10
32.14345110133414
 20
285.481815321029
 30
0.0
 10
32.14345110133414
 20
286.4261166164864
 30
0.0
 10
32.14345110133414
 20
287.3705901668316
 30
0.0
 10
32.9034396667405
 20
288.1360908886506
 30
0.0
 10
33.84050625690607
 20
288.1360908886506
 30
0.0
 10
33.84050625690607
 20
288.1360908886506
 30
0.0
 10
36.00230510002703
 20
288.1360908886506
 30
0.0
 10
36.00230510002703
 20
288.1360908886506
 30
0.0
 10
35.50000984691622
 20
288.7610316219449
 30
0.0
 10
34.72968598823599
 20
289.1608352167564
 30
0.0
 10
33.86634449009079
 20
289.1608352167564
 30
0.0
 10
32.35222402546663
 20
289.1608352167564
 30
0.0
 10
31.12508020408067
 20
287.9317965916035
 30
0.0
 10
31.12508020408067
 20
286.4156090683246
 30
0.0
 10
31.12508020408067
 20
284.8992492901577
 30
0.0
 10
32.35222402546663
 20
283.670038410117
 30
0.0
 10
33.86634449009079
 20
283.670038410117
 30
0.0
 10
35.38012044493915
 20
283.670038410117
 30
0.0
 10
36.6072642663251
 20
284.8992492901577
 30
0.0
 10
36.6072642663251
 20
286.4156090683246
 30
0.0
 10
36.6072642663251
 20
286.4269778909259
 30
0.0
 10
36.6072642663251
 20
286.4383467135272
 30
0.0
 10
36.60691975654931
 20
286.4497155361284
 30
0.0
 10
36.60691975654931
 20
286.4497155361284
 30
0.0
 10
34.06099251341562
 20
286.4497155361284
 30
0.0
 10
34.06099251341562
 20
286.4497155361284
 30
0.0
 10
34.06099251341562
 20
286.4497155361284
 30
0.0
 10
33.48187158030226
 20
285.4442637554673
 30
0.0
 10
33.48187158030226
 20
285.4442637554673
 30
0.0
 10
33.48187158030226
 20
285.4442637554673
 30
0.0
 10
35.23025869246782
 20
285.4442637554673
 30
0.0
 10
35.23025869246782
 20
285.4442637554673
 30
0.0
  0
HATCH
  5
55
330
1F
100
AcDbEntity
  8
Layer 1
 62
    18
420
        0
100
AcDbHatch
 10
0.0
 20
0.0
 30
0.0
210
0.0
220
0.0
230
1.0
  2
SOLID
 70
     1
 71
     0
 91
        1
 92
        1
 93
        1
 72
     4
 94
        3
 73
     0
 74
     1
 95
       41
 96
       37
 40
0.0
 40
0.0
 40
0.0
 40
0.0
 40
1.0
 40
1.0
 40
1.0
 40
2.0
 40
2.0
 40
2.0
 40
3.0
 40
3.0
 40
3.0
 40
4.0
 40
4.0
 40
4.0
 40
5.0
 40
5.0
 40
5.0
 40
6.0
 40
6.0
 40
6.0
 40
7.0
 40
7.0
 40
7.0
 40
8.0
 40
8.0
 40
8.0
 40
9.0
 40
9.0
 40
9.0
 40
10.0
 40
10.0
 40
10.0
 40
11.0
 40
11.0
 40
11.0
 40
12.0
 40
12.0
 40
12.0
 40
12.0
 10
35.23025869246782
 20
285.4442637554673
 10
34.92295597245764
 20
285.0039802619998
 10
34.41514856293409
 20
284.71631459921
 10
33.84050625690607
 20
284.71631459921
 10
32.9034396667405
 20
284.71631459921
 10
32.14345110133414
 20
285.481815321029
 10
32.14345110133414
 20
286.4261166164864
 10
32.14345110133414
 20
287.3705901668316
 10
32.9034396667405
 20
288.1360908886506
 10
33.84050625690607
 20
288.1360908886506
 10
33.84050625690607
 20
288.1360908886506
 10
36.00230510002703
 20
288.1360908886506
 10
36.00230510002703
 20
288.1360908886506
 10
35.50000984691622
 20
288.7610316219449
 10
34.72968598823599
 20
289.1608352167564
 10
33.86634449009079
 20
289.1608352167564
 10
32.35222402546663
 20
289.1608352167564
 10
31.12508020408067
 20
287.9317965916035
 10
31.12508020408067
 20
286.4156090683246
 10
31.12508020408067
 20
284.8992492901577
 10
32.35222402546663
 20
283.670038410117
 10
33.86634449009079
 20
283.670038410117
 10
35.38012044493915
 20
283.670038410117
 10
36.6072642663251
 20
284.8992492901577
 10
36.6072642663251
 20
286.4156090683246
 10
36.6072642663251
 20
286.4269778909259
 10
36.6072642663251
 20
286.4383467135272
 10
36.60691975654931
 20
286.4497155361284
 10
36.60691975654931
 20
286.4497155361284
 10
34.06099251341562
 20
286.4497155361284
 10
34.06099251341562
 20
286.4497155361284
 10
34.06099251341562
 20
286.4497155361284
 10
33.48187158030226
 20
285.4442637554673
 10
33.48187158030226
 20
285.4442637554673
 10
33.48187158030226
 20
285.4442637554673
 10
35.23025869246782
 20
285.4442637554673
 10
35.23025869246782
 20
285.4442637554673
 97
        0
 75
     2
 76
     1
 98
        0
  0
SPLINE
  5
56
330
1F
100
AcDbEntity
  8
Layer 1
 62
   250
420
  2301728
370
    18
100
AcDbSpline
210
0.0
220
0.0
230
1.0
 70
    11
 71
     3
 72
    47
 73
    43
 74
     0
 42
0.0000000001
 43
0.0000000001
 40
0.0
 40
0.0
 40
0.0
 40
0.0
 40
1.0
 40
1.0
 40
1.0
 40
2.0
 40
2.0
 40
2.0
 40
3.0
 40
3.0
 40
3.0
 40
4.0
 40
4.0
 40
4.0
 40
5.0
 40
5.0
 40
5.0
 40
6.0
 40
6.0
 40
6.0
 40
7.0
 40
7.0
 40
7.0
 40
8.0
 40
8.0
 40
8.0
 40
9.0
 40
9.0
 40
9.0
 40
10.0
 40
10.0
 40
10.0
 40
11.0
 40
11.0
 40
11.0
 40
12.0
 40
12.0
 40
12.0
 40
13.0
 40
13.0
 40
13.0
 40
14.0
 40
14.0
 40
14.0
 40
14.0
 10
37.5246937992703
 20
288.1362631435385
 30
0.0
 10
36.8777044403251
 20
289.5074120512073
 30
0.0
 10
35.48002827992004
 20
290.4565364835257
 30
0.0
 10
33.85979880435066
 20
290.4565364835257
 30
0.0
 10
31.62427486920932
 20
290.4565364835257
 30
0.0
 10
29.81215344852147
 20
288.6495827094748
 30
0.0
 10
29.81215344852147
 20
286.4207767149615
 30
0.0
 10
29.81215344852147
 20
284.1919707204482
 30
0.0
 10
31.62427486920932
 20
282.3850169463973
 30
0.0
 10
33.85979880435066
 20
282.3850169463973
 30
0.0
 10
36.095322739492
 20
282.3850169463973
 30
0.0
 10
37.90744416017985
 20
284.1919707204482
 30
0.0
 10
37.90744416017985
 20
286.4207767149615
 30
0.0
 10
37.90744416017985
 20
286.8936163822418
 30
0.0
 10
37.82579534331615
 20
287.3476802667411
 30
0.0
 10
37.67593359084482
 20
287.7693602323156
 30
0.0
 10
37.67593359084482
 20
287.7693602323156
 30
0.0
 10
34.82029205927038
 20
287.7690157225398
 30
0.0
 10
34.82029205927038
 20
287.7690157225398
 30
0.0
 10
34.82029205927038
 20
287.7690157225398
 30
0.0
 10
34.23049132310734
 20
286.744443649322
 30
0.0
 10
34.23049132310734
 20
286.744443649322
 30
0.0
 10
34.23049132310734
 20
286.744443649322
 30
0.0
 10
36.9038871832856
 20
286.744443649322
 30
0.0
 10
36.9038871832856
 20
286.744443649322
 30
0.0
 10
36.91525600588688
 20
286.6371288541615
 30
0.0
 10
36.92111267207542
 20
286.5282637650099
 30
0.0
 10
36.92111267207542
 20
286.4180206367552
 30
0.0
 10
36.92111267207542
 20
284.7269944022597
 30
0.0
 10
35.54893023507928
 20
283.3565345141425
 30
0.0
 10
33.85669821636849
 20
283.3565345141425
 30
0.0
 10
32.16412168788192
 20
283.3565345141425
 30
0.0
 10
30.79193925088578
 20
284.7269944022597
 30
0.0
 10
30.79193925088578
 20
286.4180206367552
 30
0.0
 10
30.79193925088578
 20
288.1088746163628
 30
0.0
 10
32.16412168788192
 20
289.4795067593678
 30
0.0
 10
33.85669821636849
 20
289.4795067593678
 30
0.0
 10
34.91158714985636
 20
289.4795067593678
 30
0.0
 10
35.84210805428182
 20
288.946894645987
 30
0.0
 10
36.39332369555569
 20
288.1360908886506
 30
0.0
 10
36.39332369555569
 20
288.1360908886506
 30
0.0
 10
37.5246937992703
 20
288.1362631435385
 30
0.0
 10
37.5246937992703
 20
288.1362631435385
 30
0.0
  0
HATCH
  5
57
330
1F
100
AcDbEntity
  8
Layer 1
 62
    18
420
        0
100
AcDbHatch
 10
0.0
 20
0.0
 30
0.0
210
0.0
220
0.0
230
1.0
  2
SOLID
 70
     1
 71
     0
 91
        1
 92
        1
 93
        1
 72
     4
 94
        3
 73
     0
 74
     1
 95
       47
 96
       43
 40
0.0
 40
0.0
 40
0.0
 40
0.0
 40
1.0
 40
1.0
 40
1.0
 40
2.0
 40
2.0
 40
2.0
 40
3.0
 40
3.0
 40
3.0
 40
4.0
 40
4.0
 40
4.0
 40
5.0
 40
5.0
 40
5.0
 40
6.0
 40
6.0
 40
6.0
 40
7.0
 40
7.0
 40
7.0
 40
8.0
 40
8.0
 40
8.0
 40
9.0
 40
9.0
 40
9.0
 40
10.0
 40
10.0
 40
10.0
 40
11.0
 40
11.0
 40
11.0
 40
12.0
 40
12.0
 40
12.0
 40
13.0
 40
13.0
 40
13.0
 40
14.0
 40
14.0
 40
14.0
 40
14.0
 10
37.5246937992703
 20
288.1362631435385
 10
36.8777044403251
 20
289.5074120512073
 10
35.48002827992004
 20
290.4565364835257
 10
33.85979880435066
 20
290.4565364835257
 10
31.62427486920932
 20
290.4565364835257
 10
29.81215344852147
 20
288.6495827094748
 10
29.81215344852147
 20
286.4207767149615
 10
29.81215344852147
 20
284.1919707204482
 10
31.62427486920932
 20
282.3850169463973
 10
33.85979880435066
 20
282.3850169463973
 10
36.095322739492
 20
282.3850169463973
 10
37.90744416017985
 20
284.1919707204482
 10
37.90744416017985
 20
286.4207767149615
 10
37.90744416017985
 20
286.8936163822418
 10
37.82579534331615
 20
287.3476802667411
 10
37.67593359084482
 20
287.7693602323156
 10
37.67593359084482
 20
287.7693602323156
 10
34.82029205927038
 20
287.7690157225398
 10
34.82029205927038
 20
287.7690157225398
 10
34.82029205927038
 20
287.7690157225398
 10
34.23049132310734
 20
286.744443649322
 10
34.23049132310734
 20
286.744443649322
 10
34.23049132310734
 20
286.744443649322
 10
36.9038871832856
 20
286.744443649322
 10
36.9038871832856
 20
286.744443649322
 10
36.91525600588688
 20
286.6371288541615
 10
36.92111267207542
 20
286.5282637650099
 10
36.92111267207542
 20
286.4180206367552
 10
36.92111267207542
 20
284.7269944022597
 10
35.54893023507928
 20
283.3565345141425
 10
33.85669821636849
 20
283.3565345141425
 10
32.16412168788192
 20
283.3565345141425
 10
30.79193925088578
 20
284.7269944022597
 10
30.79193925088578
 20
286.4180206367552
 10
30.79193925088578
 20
288.1088746163628
 10
32.16412168788192
 20
289.4795067593678
 10
33.85669821636849
 20
289.4795067593678
 10
34.91158714985636
 20
289.4795067593678
 10
35.84210805428182
 20
288.946894645987
 10
36.39332369555569
 20
288.1360908886506
 10
36.39332369555569
 20
288.1360908886506
 10
37.5246937992703
 20
288.1362631435385
 10
37.5246937992703
 20
288.1362631435385
 97
        0
 75
     2
 76
     1
 98
        0
  0
SPLINE
  5
58
330
1F
100
AcDbEntity
  8
Layer 1
 62
   250
420
  2301728
370
    18
100
AcDbSpline
210
0.0
220
0.0
230
1.0
 70
    11
 71
     3
 72
    53
 73
    49
 74
     0
 42
0.0000000001
 43
0.0000000001
 40
0.0
 40
0.0
 40
0.0
 40
0.0
 40
1.0
 40
1.0
 40
1.0
 40
2.0
 40
2.0
 40
2.0
 40
3.0
 40
3.0
 40
3.0
 40
4.0
 40
4.0
 40
4.0
 40
5.0
 40
5.0
 40
5.0
 40
6.0
 40
6.0
 40
6.0
 40
7.0
 40
7.0
 40
7.0
 40
8.0
 40
8.0
 40
8.0
 40
9.0
 40
9.0
 40
9.0
 40
10.0
 40
10.0
 40
10.0
 40
11.0
 40
11.0
 40
11.0
 40
12.0
 40
12.0
 40
12.0
 40
13.0
 40
13.0
 40
13.0
 40
14.0
 40
14.0
 40
14.0
 40
15.0
 40
15.0
 40
15.0
 40
16.0
 40
16.0
 40
16.0
 40
16.0
 10
16.9867435151817
 20
288.3777644963716
 30
0.0
 10
17.29094564720971
 20
289.0297492470659
 30
0.0
 10
17.96515127844282
 20
289.4831241120137
 30
0.0
 10
18.74822199882751
 20
289.4831241120137
 30
0.0
 10
19.81585779401983
 20
289.4831241120137
 30
0.0
 10
20.68161086059561
 20
288.6399364357525
 30
0.0
 10
20.68161086059561
 20
287.6002059323997
 30
0.0
 10
20.68161086059561
 20
287.6002059323997
 30
0.0
 10
20.68161086059561
 20
282.3850169463973
 30
0.0
 10
20.68161086059561
 20
282.3850169463973
 30
0.0
 10
20.68161086059561
 20
282.3850169463973
 30
0.0
 10
21.65485097721978
 20
282.3850169463973
 30
0.0
 10
21.65485097721978
 20
282.3850169463973
 30
0.0
 10
21.65485097721978
 20
282.3850169463973
 30
0.0
 10
21.65485097721978
 20
287.5790185811882
 30
0.0
 10
21.65485097721978
 20
287.5790185811882
 30
0.0
 10
21.65485097721978
 20
289.1680699220481
 30
0.0
 10
20.35294853448606
 20
290.4565364835257
 30
0.0
 10
18.74649944994853
 20
290.4565364835257
 30
0.0
 10
18.08435166086829
 20
290.4565364835257
 30
0.0
 10
17.47422484793328
 20
290.2377727758952
 30
0.0
 10
16.98536547607851
 20
289.8691473157933
 30
0.0
 10
16.98536547607851
 20
289.8691473157933
 30
0.0
 10
16.98536547607851
 20
289.8691473157933
 30
0.0
 10
16.98536547607851
 20
289.8691473157933
 30
0.0
 10
16.49650610422375
 20
290.2377727758952
 30
0.0
 10
15.88603478151294
 20
290.4565364835257
 30
0.0
 10
15.2238869924327
 20
290.4565364835257
 30
0.0
 10
13.61778241767096
 20
290.4565364835257
 30
0.0
 10
12.31553546516144
 20
289.1680699220481
 30
0.0
 10
12.31553546516144
 20
287.5790185811882
 30
0.0
 10
12.31553546516144
 20
287.5790185811882
 30
0.0
 10
12.3103678185245
 20
282.3850169463973
 30
0.0
 10
12.3103678185245
 20
282.3850169463973
 30
0.0
 10
12.3103678185245
 20
282.3850169463973
 30
0.0
 10
13.29256518931938
 20
282.3850169463973
 30
0.0
 10
13.29256518931938
 20
282.3850169463973
 30
0.0
 10
13.29256518931938
 20
282.3850169463973
 30
0.0
 10
13.29256518931938
 20
287.6002059323997
 30
0.0
 10
13.29256518931938
 20
287.6002059323997
 30
0.0
 10
13.29256518931938
 20
288.6399364357525
 30
0.0
 10
14.15797374611935
 20
289.4831241120137
 30
0.0
 10
15.22595405108748
 20
289.4831241120137
 30
0.0
 10
16.00902477147217
 20
289.4831241120137
 30
0.0
 10
16.68288589292948
 20
289.0297492470659
 30
0.0
 10
16.9867435151817
 20
288.3777644963716
 30
0.0
 10
16.9867435151817
 20
288.3777644963716
 30
0.0
 10
16.9867435151817
 20
288.3777644963716
 30
0.0
 10
16.9867435151817
 20
288.3777644963716
 30
0.0
  0
HATCH
  5
59
330
1F
100
AcDbEntity
  8
Layer 1
 62
    18
420
        0
100
AcDbHatch
 10
0.0
 20
0.0
 30
0.0
210
0.0
220
0.0
230
1.0
  2
SOLID
 70
     1
 71
     0
 91
        1
 92
        1
 93
        1
 72
     4
 94
        3
 73
     0
 74
     1
 95
       53
 96
       49
 40
0.0
 40
0.0
 40
0.0
 40
0.0
 40
1.0
 40
1.0
 40
1.0
 40
2.0
 40
2.0
 40
2.0
 40
3.0
 40
3.0
 40
3.0
 40
4.0
 40
4.0
 40
4.0
 40
5.0
 40
5.0
 40
5.0
 40
6.0
 40
6.0
 40
6.0
 40
7.0
 40
7.0
 40
7.0
 40
8.0
 40
8.0
 40
8.0
 40
9.0
 40
9.0
 40
9.0
 40
10.0
 40
10.0
 40
10.0
 40
11.0
 40
11.0
 40
11.0
 40
12.0
 40
12.0
 40
12.0
 40
13.0
 40
13.0
 40
13.0
 40
14.0
 40
14.0
 40
14.0
 40
15.0
 40
15.0
 40
15.0
 40
16.0
 40
16.0
 40
16.0
 40
16.0
 10
16.9867435151817
 20
288.3777644963716
 10
17.29094564720971
 20
289.0297492470659
 10
17.96515127844282
 20
289.4831241120137
 10
18.74822199882751
 20
289.4831241120137
 10
19.81585779401983
 20
289.4831241120137
 10
20.68161086059561
 20
288.6399364357525
 10
20.68161086059561
 20
287.6002059323997
 10
20.68161086059561
 20
287.6002059323997
 10
20.68161086059561
 20
282.3850169463973
 10
20.68161086059561
 20
282.3850169463973
 10
20.68161086059561
 20
282.3850169463973
 10
21.65485097721978
 20
282.3850169463973
 10
21.65485097721978
 20
282.3850169463973
 10
21.65485097721978
 20
282.3850169463973
 10
21.65485097721978
 20
287.5790185811882
 10
21.65485097721978
 20
287.5790185811882
 10
21.65485097721978
 20
289.1680699220481
 10
20.35294853448606
 20
290.4565364835257
 10
18.74649944994853
 20
290.4565364835257
 10
18.08435166086829
 20
290.4565364835257
 10
17.47422484793328
 20
290.2377727758952
 10
16.98536547607851
 20
289.8691473157933
 10
16.98536547607851
 20
289.8691473157933
 10
16.98536547607851
 20
289.8691473157933
 10
16.98536547607851
 20
289.8691473157933
 10
16.49650610422375
 20
290.2377727758952
 10
15.88603478151294
 20
290.4565364835257
 10
15.2238869924327
 20
290.4565364835257
 10
13.61778241767096
 20
290.4565364835257
 10
12.31553546516144
 20
289.1680699220481
 10
12.31553546516144
 20
287.5790185811882
 10
12.31553546516144
 20
287.5790185811882
 10
12.3103678185245
 20
282.3850169463973
 10
12.3103678185245
 20
282.3850169463973
 10
12.3103678185245
 20
282.3850169463973
 10
13.29256518931938
 20
282.3850169463973
 10
13.29256518931938
 20
282.3850169463973
 10
13.29256518931938
 20
282.3850169463973
 10
13.29256518931938
 20
287.6002059323997
 10
13.29256518931938
 20
287.6002059323997
 10
13.29256518931938
 20
288.6399364357525
 10
14.15797374611935
 20
289.4831241120137
 10
15.22595405108748
 20
289.4831241120137
 10
16.00902477147217
 20
289.4831241120137
 10
16.68288589292948
 20
289.0297492470659
 10
16.9867435151817
 20
288.3777644963716
 10
16.9867435151817
 20
288.3777644963716
 10
16.9867435151817
 20
288.3777644963716
 10
16.9867435151817
 20
288.3777644963716
 97
        0
 75
     2
 76
     1
 98
        0
  0
SPLINE
  5
5A
330
1F
100
AcDbEntity
  8
Layer 1
 62
   250
420
  2301728
370
    18
100
AcDbSpline
210
0.0
220
0.0
230
1.0
 70
    11
 71
     3
 72
    35
 73
    31
 74
     0
 42
0.0000000001
 43
0.0000000001
 40
0.0
 40
0.0
 40
0.0
 40
0.0
 40
1.0
 40
1.0
 40
1.0
 40
2.0
 40
2.0
 40
2.0
 40
3.0
 40
3.0
 40
3.0
 40
4.0
 40
4.0
 40
4.0
 40
5.0
 40
5.0
 40
5.0
 40
6.0
 40
6.0
 40
6.0
 40
7.0
 40
7.0
 40
7.0
 40
8.0
 40
8.0
 40
8.0
 40
9.0
 40
9.0
 40
9.0
 40
10.0
 40
10.0
 40
10.0
 40
10.0
 10
20.36121676910517
 20
282.3850169463973
 30
0.0
 10
20.36121676910517
 20
282.3850169463973
 30
0.0
 10
20.36121676910517
 20
287.5297536832494
 30
0.0
 10
20.36121676910517
 20
287.5297536832494
 30
0.0
 10
20.36121676910517
 20
288.4246178258799
 30
0.0
 10
19.6387797692606
 20
289.1499831588188
 30
0.0
 10
18.74753297927592
 20
289.1499831588188
 30
0.0
 10
17.85594167951543
 20
289.1499831588188
 30
0.0
 10
17.13350467967086
 20
288.4246178258799
 30
0.0
 10
17.13350467967086
 20
287.5297536832494
 30
0.0
 10
17.13350467967086
 20
287.5297536832494
 30
0.0
 10
17.13350467967086
 20
282.3850169463973
 30
0.0
 10
17.13350467967086
 20
282.3850169463973
 30
0.0
 10
17.13350467967086
 20
282.3850169463973
 30
0.0
 10
18.15807675288867
 20
282.3850169463973
 30
0.0
 10
18.15807675288867
 20
282.3850169463973
 30
0.0
 10
18.15807675288867
 20
282.3850169463973
 30
0.0
 10
18.15807675288867
 20
287.5232079975092
 30
0.0
 10
18.15807675288867
 20
287.5232079975092
 30
0.0
 10
18.15807675288867
 20
287.8558321860405
 30
0.0
 10
18.42472731935491
 20
288.1252388307131
 30
0.0
 10
18.75373415524025
 20
288.1252388307131
 30
0.0
 10
19.08274099112559
 20
288.1252388307131
 30
0.0
 10
19.34939155759182
 20
287.8558321860405
 30
0.0
 10
19.34939155759182
 20
287.5232079975092
 30
0.0
 10
19.34939155759182
 20
287.5232079975092
 30
0.0
 10
19.34939155759182
 20
282.3850169463973
 30
0.0
 10
19.34939155759182
 20
282.3850169463973
 30
0.0
 10
19.34939155759182
 20
282.3850169463973
 30
0.0
 10
20.36121676910517
 20
282.3850169463973
 30
0.0
 10
20.36121676910517
 20
282.3850169463973
 30
0.0
  0
HATCH
  5
5B
330
1F
100
AcDbEntity
  8
Layer 1
 62
    18
420
        0
100
AcDbHatch
 10
0.0
 20
0.0
 30
0.0
210
0.0
220
0.0
230
1.0
  2
SOLID
 70
     1
 71
     0
 91
        1
 92
        1
 93
        1
 72
     4
 94
        3
 73
     0
 74
     1
 95
       35
 96
       31
 40
0.0
 40
0.0
 40
0.0
 40
0.0
 40
1.0
 40
1.0
 40
1.0
 40
2.0
 40
2.0
 40
2.0
 40
3.0
 40
3.0
 40
3.0
 40
4.0
 40
4.0
 40
4.0
 40
5.0
 40
5.0
 40
5.0
 40
6.0
 40
6.0
 40
6.0
 40
7.0
 40
7.0
 40
7.0
 40
8.0
 40
8.0
 40
8.0
 40
9.0
 40
9.0
 40
9.0
 40
10.0
 40
10.0
 40
10.0
 40
10.0
 10
20.36121676910517
 20
282.3850169463973
 10
20.36121676910517
 20
282.3850169463973
 10
20.36121676910517
 20
287.5297536832494
 10
20.36121676910517
 20
287.5297536832494
 10
20.36121676910517
 20
288.4246178258799
 10
19.6387797692606
 20
289.1499831588188
 10
18.74753297927592
 20
289.1499831588188
 10
17.85594167951543
 20
289.1499831588188
 10
17.13350467967086
 20
288.4246178258799
 10
17.13350467967086
 20
287.5297536832494
 10
17.13350467967086
 20
287.5297536832494
 10
17.13350467967086
 20
282.3850169463973
 10
17.13350467967086
 20
282.3850169463973
 10
17.13350467967086
 20
282.3850169463973
 10
18.15807675288867
 20
282.3850169463973
 10
18.15807675288867
 20
282.3850169463973
 10
18.15807675288867
 20
282.3850169463973
 10
18.15807675288867
 20
287.5232079975092
 10
18.15807675288867
 20
287.5232079975092
 10
18.15807675288867
 20
287.8558321860405
 10
18.42472731935491
 20
288.1252388307131
 10
18.75373415524025
 20
288.1252388307131
 10
19.08274099112559
 20
288.1252388307131
 10
19.34939155759182
 20
287.8558321860405
 10
19.34939155759182
 20
287.5232079975092
 10
19.34939155759182
 20
287.5232079975092
 10
19.34939155759182
 20
282.3850169463973
 10
19.34939155759182
 20
282.3850169463973
 10
19.34939155759182
 20
282.3850169463973
 10
20.36121676910517
 20
282.3850169463973
 10
20.36121676910517
 20
282.3850169463973
 97
        0
 75
     2
 76
     1
 98
        0
  0
SPLINE
  5
5C
330
1F
100
AcDbEntity
  8
Layer 1
 62
   250
420
  2301728
370
    18
100
AcDbSpline
210
0.0
220
0.0
230
1.0
 70
    11
 71
     3
 72
    35
 73
    31
 74
     0
 42
0.0000000001
 43
0.0000000001
 40
0.0
 40
0.0
 40
0.0
 40
0.0
 40
1.0
 40
1.0
 40
1.0
 40
2.0
 40
2.0
 40
2.0
 40
3.0
 40
3.0
 40
3.0
 40
4.0
 40
4.0
 40
4.0
 40
5.0
 40
5.0
 40
5.0
 40
6.0
 40
6.0
 40
6.0
 40
7.0
 40
7.0
 40
7.0
 40
8.0
 40
8.0
 40
8.0
 40
9.0
 40
9.0
 40
9.0
 40
10.0
 40
10.0
 40
10.0
 40
10.0
 10
16.83894882136514
 20
282.3850169463973
 30
0.0
 10
16.83894882136514
 20
282.3850169463973
 30
0.0
 10
16.83894882136514
 20
287.5297536832494
 30
0.0
 10
16.83894882136514
 20
287.5297536832494
 30
0.0
 10
16.83894882136514
 20
288.4246178258799
 30
0.0
 10
16.11616731174478
 20
289.1499831588188
 30
0.0
 10
15.22492052176009
 20
289.1499831588188
 30
0.0
 10
14.3336737317754
 20
289.1499831588188
 30
0.0
 10
13.61123673193084
 20
288.4246178258799
 30
0.0
 10
13.61123673193084
 20
287.5297536832494
 30
0.0
 10
13.61123673193084
 20
287.5297536832494
 30
0.0
 10
13.61123673193084
 20
282.3850169463973
 30
0.0
 10
13.61123673193084
 20
282.3850169463973
 30
0.0
 10
13.61123673193084
 20
282.3850169463973
 30
0.0
 10
14.63580880514864
 20
282.3850169463973
 30
0.0
 10
14.63580880514864
 20
282.3850169463973
 30
0.0
 10
14.63580880514864
 20
282.3850169463973
 30
0.0
 10
14.63580880514864
 20
287.5232079975092
 30
0.0
 10
14.63580880514864
 20
287.5232079975092
 30
0.0
 10
14.63580880514864
 20
287.8558321860405
 30
0.0
 10
14.90245937161488
 20
288.1252388307131
 30
0.0
 10
15.23146620750022
 20
288.1252388307131
 30
0.0
 10
15.56047304338556
 20
288.1252388307131
 30
0.0
 10
15.82712360985179
 20
287.8558321860405
 30
0.0
 10
15.82712360985179
 20
287.5232079975092
 30
0.0
 10
15.82712360985179
 20
287.5232079975092
 30
0.0
 10
15.82712360985179
 20
282.3850169463973
 30
0.0
 10
15.82712360985179
 20
282.3850169463973
 30
0.0
 10
15.82712360985179
 20
282.3850169463973
 30
0.0
 10
16.83894882136514
 20
282.3850169463973
 30
0.0
 10
16.83894882136514
 20
282.3850169463973
 30
0.0
  0
HATCH
  5
5D
330
1F
100
AcDbEntity
  8
Layer 1
 62
    18
420
        0
100
AcDbHatch
 10
0.0
 20
0.0
 30
0.0
210
0.0
220
0.0
230
1.0
  2
SOLID
 70
     1
 71
     0
 91
        1
 92
        1
 93
        1
 72
     4
 94
        3
 73
     0
 74
     1
 95
       35
 96
       31
 40
0.0
 40
0.0
 40
0.0
 40
0.0
 40
1.0
 40
1.0
 40
1.0
 40
2.0
 40
2.0
 40
2.0
 40
3.0
 40
3.0
 40
3.0
 40
4.0
 40
4.0
 40
4.0
 40
5.0
 40
5.0
 40
5.0
 40
6.0
 40
6.0
 40
6.0
 40
7.0
 40
7.0
 40
7.0
 40
8.0
 40
8.0
 40
8.0
 40
9.0
 40
9.0
 40
9.0
 40
10.0
 40
10.0
 40
10.0
 40
10.0
 10
16.83894882136514
 20
282.3850169463973
 10
16.83894882136514
 20
282.3850169463973
 10
16.83894882136514
 20
287.5297536832494
 10
16.83894882136514
 20
287.5297536832494
 10
16.83894882136514
 20
288.4246178258799
 10
16.11616731174478
 20
289.1499831588188
 10
15.22492052176009
 20
289.1499831588188
 10
14.3336737317754
 20
289.1499831588188
 10
13.61123673193084
 20
288.4246178258799
 10
13.61123673193084
 20
287.5297536832494
 10
13.61123673193084
 20
287.5297536832494
 10
13.61123673193084
 20
282.3850169463973
 10
13.61123673193084
 20
282.3850169463973
 10
13.61123673193084
 20
282.3850169463973
 10
14.63580880514864
 20
282.3850169463973
 10
14.63580880514864
 20
282.3850169463973
 10
14.63580880514864
 20
282.3850169463973
 10
14.63580880514864
 20
287.5232079975092
 10
14.63580880514864
 20
287.5232079975092
 10
14.63580880514864
 20
287.8558321860405
 10
14.90245937161488
 20
288.1252388307131
 10
15.23146620750022
 20
288.1252388307131
 10
15.56047304338556
 20
288.1252388307131
 10
15.82712360985179
 20
287.8558321860405
 10
15.82712360985179
 20
287.5232079975092
 10
15.82712360985179
 20
287.5232079975092
 10
15.82712360985179
 20
282.3850169463973
 10
15.82712360985179
 20
282.3850169463973
 10
15.82712360985179
 20
282.3850169463973
 10
16.83894882136514
 20
282.3850169463973
 10
16.83894882136514
 20
282.3850169463973
 97
        0
 75
     2
 76
     1
 98
        0
  0
ENDSEC
  0
SECTION
  2
OBJECTS
  0
DICTIONARY
  5
C
330
0
100
AcDbDictionary
281
     1
  3
ACAD_GROUP
350
D
  3
ACAD_LAYOUT
350
1A
  3
ACAD_MLINESTYLE
350
17
  3
ACAD_PLOTSETTINGS
350
19
  3
ACAD_PLOTSTYLENAME
350
E
  3
ACAD_TABLESTYLE
350
60
  3
ACAD_VISUALSTYLE
350
2A
  0
DICTIONARY
  5
D
102
{ACAD_REACTORS
330
C
102
}
330
C
100
AcDbDictionary
281
     1
  0
DICTIONARY
  5
1A
102
{ACAD_REACTORS
330
C
102
}
330
C
100
AcDbDictionary
281
     1
  3
Layout1
350
1E
  3
Layout2
350
26
  3
Model
350
22
  0
DICTIONARY
  5
17
102
{ACAD_REACTORS
330
C
102
}
330
C
100
AcDbDictionary
281
     1
  3
Standard
350
18
  0
DICTIONARY
  5
19
102
{ACAD_REACTORS
330
C
102
}
330
C
100
AcDbDictionary
281
     1
  0
ACDBDICTIONARYWDFLT
  5
E
102
{ACAD_REACTORS
330
C
102
}
330
C
100
AcDbDictionary
281
     1
  3
Normal
350
F
100
AcDbDictionaryWithDefault
340
F
  0
DICTIONARY
  5
60
102
{ACAD_REACTORS
330
C
102
}
330
C
100
AcDbDictionary
281
     1
  0
DICTIONARY
  5
2A
102
{ACAD_REACTORS
330
C
102
}
330
C
100
AcDbDictionary
281
     1
  3
2dWireframe
350
2F
  3
3D Hidden
350
31
  3
3dWireframe
350
30
  3
Basic
350
32
  3
Brighten
350
36
  3
ColorChange
350
3A
  3
Conceptual
350
34
  3
Dim
350
35
  3
Facepattern
350
39
  3
Flat
350
2B
  3
FlatWithEdges
350
2C
  3
Gouraud
350
2D
  3
GouraudWithEdges
350
2E
  3
Linepattern
350
38
  3
Realistic
350
33
  3
Thicken
350
37
  0
LAYOUT
  5
1E
102
{ACAD_REACTORS
330
1A
102
}
330
1A
100
AcDbPlotSettings
  1

  2
none_device
  4

  6

 40
0.0
 41
0.0
 42
0.0
 43
0.0
 44
0.0
 45
0.0
 46
0.0
 47
0.0
 48
0.0
 49
0.0
140
0.0
141
0.0
142
1.0
143
1.0
 70
   688
 72
     0
 73
     0
 74
     5
  7

 75
    16
 76
     0
 77
     2
 78
   300
147
1.0
148
0.0
149
0.0
100
AcDbLayout
  1
Layout1
 70
     1
 71
     1
 10
0.0
 20
0.0
 11
12.0
 21
9.0
 12
0.0
 22
0.0
 32
0.0
 14
1.000000000000000E+20
 24
1.000000000000000E+20
 34
1.000000000000000E+20
 15
-1.000000000000000E+20
 25
-1.000000000000000E+20
 35
-1.000000000000000E+20
146
0.0
 13
0.0
 23
0.0
 33
0.0
 16
1.0
 26
0.0
 36
0.0
 17
0.0
 27
1.0
 37
0.0
 76
     0
330
1B
  0
LAYOUT
  5
26
102
{ACAD_REACTORS
330
1A
102
}
330
1A
100
AcDbPlotSettings
  1

  2
none_device
  4

  6

 40
0.0
 41
0.0
 42
0.0
 43
0.0
 44
0.0
 45
0.0
 46
0.0
 47
0.0
 48
0.0
 49
0.0
140
0.0
141
0.0
142
1.0
143
1.0
 70
   688
 72
     0
 73
     0
 74
     5
  7

 75
    16
 76
     0
 77
     2
 78
   300
147
1.0
148
0.0
149
0.0
100
AcDbLayout
  1
Layout2
 70
     1
 71
     2
 10
0.0
 20
0.0
 11
0.0
 21
0.0
 12
0.0
 22
0.0
 32
0.0
 14
0.0
 24
0.0
 34
0.0
 15
0.0
 25
0.0
 35
0.0
146
0.0
 13
0.0
 23
0.0
 33
0.0
 16
1.0
 26
0.0
 36
0.0
 17
0.0
 27
1.0
 37
0.0
 76
     0
330
23
  0
LAYOUT
  5
22
102
{ACAD_REACTORS
330
1A
102
}
330
1A
100
AcDbPlotSettings
  1

  2
none_device
  4

  6

 40
0.0
 41
0.0
 42
0.0
 43
0.0
 44
0.0
 45
0.0
 46
0.0
 47
0.0
 48
0.0
 49
0.0
140
0.0
141
0.0
142
1.0
143
1.0
 70
  1712
 72
     0
 73
     0
 74
     0
  7

 75
     0
 76
     0
 77
     2
 78
   300
147
1.0
148
0.0
149
0.0
100
AcDbLayout
  1
Model
 70
     1
 71
     0
 10
0.0
 20
0.0
 11
12.0
 21
9.0
 12
0.0
 22
0.0
 32
0.0
 14
1.000000000000000E+20
 24
1.000000000000000E+20
 34
1.000000000000000E+20
 15
-1.000000000000000E+20
 25
-1.000000000000000E+20
 35
-1.000000000000000E+20
146
0.0
 13
0.0
 23
0.0
 33
0.0
 16
1.0
 26
0.0
 36
0.0
 17
0.0
 27
1.0
 37
0.0
 76
     0
330
1F
331
29
  0
MLINESTYLE
  5
18
102
{ACAD_REACTORS
330
17
102
}
330
17
100
AcDbMlineStyle
  2
Standard
 70
     0
  3

 62
   256
 51
90.0
 52
90.0
 71
     2
 49
0.5
 62
   256
  6
BYLAYER
 49
-0.5
 62
   256
  6
BYLAYER
  0
ACDBPLACEHOLDER
  5
F
102
{ACAD_REACTORS
330
E
102
}
330
E
  0
VISUALSTYLE
  5
2F
102
{ACAD_REACTORS
330
2A
102
}
330
2A
100
AcDbVisualStyle
  2
2dWireframe
 70
     4
 71
     0
 72
     2
 73
     0
 90
        0
 40
-0.6
 41
-30.0
 62
     5
 63
     7
421
 16777215
 74
     1
 91
        4
 64
     7
 65
   257
 75
     1
175
     1
 42
1.0
 92
        0
 66
   257
 43
1.0
 76
     1
 77
     6
 78
     2
 67
     7
 79
     5
170
     0
171
     0
290
     0
174
     0
 93
        1
 44
0.0
173
     0
291
     0
 45
0.0
1001
ACAD
1000
AcDbSavedByObjectVersion
1070
     0
  0
VISUALSTYLE
  5
31
102
{ACAD_REACTORS
330
2A
102
}
330
2A
100
AcDbVisualStyle
  2
3D Hidden
 70
     6
 71
     1
 72
     2
 73
     2
 90
        0
 40
-0.6
 41
-30.0
 62
     5
 63
     7
421
 16777215
 74
     2
 91
        2
 64
     7
 65
   257
 75
     2
175
     1
 42
40.0
 92
        0
 66
   257
 43
1.0
 76
     1
 77
     6
 78
     2
 67
     7
 79
     3
170
     0
171
     0
290
     0
174
     0
 93
        1
 44
0.0
173
     0
291
     0
 45
0.0
1001
ACAD
1000
AcDbSavedByObjectVersion
1070
     0
  0
VISUALSTYLE
  5
30
102
{ACAD_REACTORS
330
2A
102
}
330
2A
100
AcDbVisualStyle
  2
3dWireframe
 70
     5
 71
     0
 72
     2
 73
     0
 90
        0
 40
-0.6
 41
-30.0
 62
     5
 63
     7
421
 16777215
 74
     1
 91
        4
 64
     7
 65
   257
 75
     1
175
     1
 42
1.0
 92
        0
 66
   257
 43
1.0
 76
     1
 77
     6
 78
     2
 67
     7
 79
     5
170
     0
171
     0
290
     0
174
     0
 93
        1
 44
0.0
173
     0
291
     0
 45
0.0
1001
ACAD
1000
AcDbSavedByObjectVersion
1070
     0
  0
VISUALSTYLE
  5
32
102
{ACAD_REACTORS
330
2A
102
}
330
2A
100
AcDbVisualStyle
  2
Basic
 70
     7
 71
     1
 72
     0
 73
     1
 90
        0
 40
-0.6
 41
-30.0
 62
     5
 63
     7
421
 16777215
 74
     0
 91
        4
 64
     7
 65
   257
 75
     1
175
     1
 42
1.0
 92
        8
 66
     7
 43
1.0
 76
     1
 77
     6
 78
     2
 67
     7
 79
     5
170
     0
171
     0
290
     0
174
     0
 93
        1
 44
0.0
173
     0
291
     1
 45
0.0
1001
ACAD
1000
AcDbSavedByObjectVersion
1070
     0
  0
VISUALSTYLE
  5
36
102
{ACAD_REACTORS
330
2A
102
}
330
2A
100
AcDbVisualStyle
  2
Brighten
 70
    12
 71
     2
 72
     2
 73
     0
 90
        0
 40
-0.6
 41
-30.0
 62
     5
 63
     7
421
 16777215
 74
     1
 91
        4
 64
     7
 65
   257
 75
     1
175
     1
 42
1.0
 92
        8
 66
     7
 43
1.0
 76
     1
 77
     6
 78
     2
 67
     7
 79
     5
170
     0
171
     0
290
     0
174
     0
 93
        1
 44
50.0
173
     0
291
     1
 45
0.0
1001
ACAD
1000
AcDbSavedByObjectVersion
1070
     0
  0
VISUALSTYLE
  5
3A
102
{ACAD_REACTORS
330
2A
102
}
330
2A
100
AcDbVisualStyle
  2
ColorChange
 70
    16
 71
     2
 72
     2
 73
     3
 90
        0
 40
-0.6
 41
-30.0
 62
     5
 63
     8
421
  8421504
 74
     1
 91
        4
 64
     7
 65
   257
 75
     1
175
     1
 42
1.0
 92
        8
 66
     8
424
  8421504
 43
1.0
 76
     1
 77
     6
 78
     2
 67
     7
 79
     5
170
     0
171
     0
290
     0
174
     0
 93
        1
 44
0.0
173
     0
291
     1
 45
0.0
1001
ACAD
1000
AcDbSavedByObjectVersion
1070
     0
  0
VISUALSTYLE
  5
34
102
{ACAD_REACTORS
330
2A
102
}
330
2A
100
AcDbVisualStyle
  2
Conceptual
 70
     9
 71
     3
 72
     2
 73
     0
 90
        0
 40
-0.6
 41
-30.0
 62
     5
 63
     7
421
 16777215
 74
     2
 91
        2
 64
     7
 65
   257
 75
     1
175
     1
 42
40.0
 92
        8
 66
     7
 43
1.0
 76
     1
 77
     6
 78
     2
 67
     7
 79
     3
170
     0
171
     0
290
     0
174
     0
 93
        1
 44
0.0
173
     0
291
     0
 45
0.0
1001
ACAD
1000
AcDbSavedByObjectVersion
1070
     0
  0
VISUALSTYLE
  5
35
102
{ACAD_REACTORS
330
2A
102
}
330
2A
100
AcDbVisualStyle
  2
Dim
 70
    11
 71
     2
 72
     2
 73
     0
 90
        0
 40
-0.6
 41
-30.0
 62
     5
 63
     7
421
 16777215
 74
     1
 91
        4
 64
     7
 65
   257
 75
     1
175
     1
 42
1.0
 92
        8
 66
     7
 43
1.0
 76
     1
 77
     6
 78
     2
 67
     7
 79
     5
170
     0
171
     0
290
     0
174
     0
 93
        1
 44
-50.0
173
     0
291
     1
 45
0.0
1001
ACAD
1000
AcDbSavedByObjectVersion
1070
     0
  0
VISUALSTYLE
  5
39
102
{ACAD_REACTORS
330
2A
102
}
330
2A
100
AcDbVisualStyle
  2
Facepattern
 70
    15
 71
     2
 72
     2
 73
     0
 90
        0
 40
-0.6
 41
-30.0
 62
     5
 63
     7
421
 16777215
 74
     1
 91
        4
 64
     7
 65
   257
 75
     1
175
     1
 42
1.0
 92
        8
 66
     7
 43
1.0
 76
     1
 77
     6
 78
     2
 67
     7
 79
     5
170
     0
171
     0
290
     0
174
     0
 93
        1
 44
0.0
173
     0
291
     1
 45
0.0
1001
ACAD
1000
AcDbSavedByObjectVersion
1070
     0
  0
VISUALSTYLE
  5
2B
102
{ACAD_REACTORS
330
2A
102
}
330
2A
100
AcDbVisualStyle
  2
Flat
 70
     0
 71
     2
 72
     1
 73
     1
 90
        2
 40
-0.6
 41
30.0
 62
     5
 63
     7
421
 16777215
 74
     0
 91
        4
 64
     7
 65
   257
 75
     1
175
     1
 42
1.0
 92
        8
 66
     7
 43
1.0
 76
     1
 77
     6
 78
     2
 67
     7
 79
     5
170
     0
171
     0
290
     0
174
     0
 93
       13
 44
0.0
173
     0
291
     1
 45
0.0
1001
ACAD
1000
AcDbSavedByObjectVersion
1070
     0
  0
VISUALSTYLE
  5
2C
102
{ACAD_REACTORS
330
2A
102
}
330
2A
100
AcDbVisualStyle
  2
FlatWithEdges
 70
     1
 71
     2
 72
     1
 73
     1
 90
        2
 40
-0.6
 41
30.0
 62
     5
 63
     7
421
 16777215
 74
     1
 91
        4
 64
     7
 65
   257
 75
     1
175
     1
 42
1.0
 92
        0
 66
   257
 43
1.0
 76
     1
 77
     6
 78
     2
 67
     7
 79
     5
170
     0
171
     0
290
     0
174
     0
 93
       13
 44
0.0
173
     0
291
     1
 45
0.0
1001
ACAD
1000
AcDbSavedByObjectVersion
1070
     0
  0
VISUALSTYLE
  5
2D
102
{ACAD_REACTORS
330
2A
102
}
330
2A
100
AcDbVisualStyle
  2
Gouraud
 70
     2
 71
     2
 72
     2
 73
     1
 90
        2
 40
-0.6
 41
30.0
 62
     5
 63
     7
421
 16777215
 74
     0
 91
        4
 64
     7
 65
   257
 75
     1
175
     1
 42
1.0
 92
        0
 66
     7
 43
1.0
 76
     1
 77
     6
 78
     2
 67
     7
 79
     5
170
     0
171
     0
290
     0
174
     0
 93
       13
 44
0.0
173
     0
291
     1
 45
0.0
1001
ACAD
1000
AcDbSavedByObjectVersion
1070
     0
  0
VISUALSTYLE
  5
2E
102
{ACAD_REACTORS
330
2A
102
}
330
2A
100
AcDbVisualStyle
  2
GouraudWithEdges
 70
     3
 71
     2
 72
     2
 73
     1
 90
        2
 40
-0.6
 41
30.0
 62
     5
 63
     7
421
 16777215
 74
     1
 91
        4
 64
     7
 65
   257
 75
     1
175
     1
 42
1.0
 92
        0
 66
   257
 43
1.0
 76
     1
 77
     6
 78
     2
 67
     7
 79
     5
170
     0
171
     0
290
     0
174
     0
 93
       13
 44
0.0
173
     0
291
     1
 45
0.0
1001
ACAD
1000
AcDbSavedByObjectVersion
1070
     0
  0
VISUALSTYLE
  5
38
102
{ACAD_REACTORS
330
2A
102
}
330
2A
100
AcDbVisualStyle
  2
Linepattern
 70
    14
 71
     2
 72
     2
 73
     0
 90
        0
 40
-0.6
 41
-30.0
 62
     5
 63
     7
421
 16777215
 74
     1
 91
        4
 64
     7
 65
   257
 75
     7
175
     7
 42
1.0
 92
        8
 66
     7
 43
1.0
 76
     1
 77
     6
 78
     2
 67
     7
 79
     5
170
     0
171
     0
290
     0
174
     0
 93
        1
 44
0.0
173
     0
291
     1
 45
0.0
1001
ACAD
1000
AcDbSavedByObjectVersion
1070
     0
  0
VISUALSTYLE
  5
33
102
{ACAD_REACTORS
330
2A
102
}
330
2A
100
AcDbVisualStyle
  2
Realistic
 70
     8
 71
     2
 72
     2
 73
     0
 90
        0
 40
-0.6
 41
-30.0
 62
     5
 63
     7
421
 16777215
 74
     1
 91
        0
 64
     7
 65
   257
 75
     1
175
     1
 42
1.0
 92
        8
 66
     8
424
  7895160
 43
1.0
 76
     1
 77
     6
 78
     2
 67
     7
 79
     5
170
     0
171
     0
290
     0
174
     0
 93
       13
 44
0.0
173
     0
291
     0
 45
0.0
1001
ACAD
1000
AcDbSavedByObjectVersion
1070
     0
  0
VISUALSTYLE
  5
37
102
{ACAD_REACTORS
330
2A
102
}
330
2A
100
AcDbVisualStyle
  2
Thicken
 70
    13
 71
     2
 72
     2
 73
     0
 90
        0
 40
-0.6
 41
-30.0
 62
     5
 63
     7
421
 16777215
 74
     1
 91
        4
 64
     7
 65
   257
 75
     1
175
     1
 42
1.0
 92
       12
 66
     7
 43
1.0
 76
     1
 77
     6
 78
     2
 67
     7
 79
     5
170
     0
171
     0
290
     0
174
     0
 93
        1
 44
0.0
173
     0
291
     1
 45
0.0
1001
ACAD
1000
AcDbSavedByObjectVersion
1070
     0
  0
ENDSEC
  0
EOF
